<?xml version="1.0" encoding="utf-8"?>
<!-- Generator: Adobe Illustrator 23.0.3, SVG Export Plug-In . SVG Version: 6.00 Build 0)  -->
<svg version="1.0" id="Layer_1" xmlns="http://www.w3.org/2000/svg" xmlns:xlink="http://www.w3.org/1999/xlink" x="0px" y="0px"
	 viewBox="0 0 1190.55 720.01" style="enable-background:new 0 0 1190.55 720.01;" xml:space="preserve">
<style type="text/css">
	.st0{opacity:0.1;fill:#3772B9;enable-background:new    ;}
	.st1{fill:#302E41;}
	.st2{opacity:0.2;fill:#010101;enable-background:new    ;}
	.st3{fill:#3772B9;}
	.st4{fill:#666578;}
	.st5{fill:#F9BEBF;}
	.st6{opacity:0.1;fill:#010101;enable-background:new    ;}
	.st7{opacity:0.2;}
	.st8{fill:#403E56;}
	.st9{fill:#444276;}
	.st10{opacity:0.1;}
	.st11{fill:#010101;}
	.st12{fill:url(#XMLID_4107_);}
	.st13{fill:#3D5286;fill-opacity:0;}
	.st14{opacity:0.0244;fill:#3D5286;enable-background:new    ;}
	.st15{opacity:0.0488;fill:#3D5286;enable-background:new    ;}
	.st16{opacity:0.0732;fill:#3D5286;enable-background:new    ;}
	.st17{opacity:0.0976;fill:#3D5286;enable-background:new    ;}
	.st18{opacity:0.122;fill:#3D5286;enable-background:new    ;}
	.st19{opacity:0.1463;fill:#3D5286;enable-background:new    ;}
	.st20{opacity:0.1707;fill:#3D5286;enable-background:new    ;}
	.st21{opacity:0.1951;fill:#3D5286;enable-background:new    ;}
	.st22{opacity:0.2195;fill:#3D5286;enable-background:new    ;}
	.st23{opacity:0.2439;fill:#3D5286;enable-background:new    ;}
	.st24{opacity:0.2683;fill:#3D5286;enable-background:new    ;}
	.st25{opacity:0.2927;fill:#3D5286;enable-background:new    ;}
	.st26{opacity:0.3171;fill:#3D5286;enable-background:new    ;}
	.st27{opacity:0.3415;fill:#3D5286;enable-background:new    ;}
	.st28{opacity:0.3659;fill:#3D5286;enable-background:new    ;}
	.st29{opacity:0.3902;fill:#3D5286;enable-background:new    ;}
	.st30{opacity:0.4146;fill:#3D5286;enable-background:new    ;}
	.st31{opacity:0.439;fill:#3D5286;enable-background:new    ;}
	.st32{opacity:0.4634;fill:#3D5286;enable-background:new    ;}
	.st33{opacity:0.4878;fill:#3D5286;enable-background:new    ;}
	.st34{opacity:0.5122;fill:#3D5286;enable-background:new    ;}
	.st35{opacity:0.5366;fill:#3D5286;enable-background:new    ;}
	.st36{opacity:0.561;fill:#3D5286;enable-background:new    ;}
	.st37{opacity:0.5854;fill:#3D5286;enable-background:new    ;}
	.st38{opacity:0.6098;fill:#3D5286;enable-background:new    ;}
	.st39{opacity:0.6341;fill:#3D5286;enable-background:new    ;}
	.st40{opacity:0.6585;fill:#3D5286;enable-background:new    ;}
	.st41{opacity:0.6829;fill:#3D5286;enable-background:new    ;}
	.st42{opacity:0.7073;fill:#3D5286;enable-background:new    ;}
	.st43{opacity:0.7317;fill:#3D5286;enable-background:new    ;}
	.st44{opacity:0.7561;fill:#3D5286;enable-background:new    ;}
	.st45{opacity:0.7805;fill:#3D5286;enable-background:new    ;}
	.st46{opacity:0.8049;fill:#3D5286;enable-background:new    ;}
	.st47{opacity:0.8293;fill:#3D5286;enable-background:new    ;}
	.st48{opacity:0.8537;fill:#3D5286;enable-background:new    ;}
	.st49{opacity:0.878;fill:#3D5286;enable-background:new    ;}
	.st50{opacity:0.9024;fill:#3D5286;enable-background:new    ;}
	.st51{opacity:0.9268;fill:#3D5286;enable-background:new    ;}
	.st52{opacity:0.9512;fill:#3D5286;enable-background:new    ;}
	.st53{opacity:0.9756;fill:#3D5286;enable-background:new    ;}
	.st54{fill:#3D5286;}
	.st55{fill:#D2E1F1;}
	.st56{fill:url(#XMLID_4108_);}
	.st57{fill:#4A65A4;}
	.st58{fill:url(#XMLID_4109_);}
	.st59{fill:url(#XMLID_4110_);}
	.st60{fill:#FFFFFF;}
	.st61{fill:#DBE9F7;}
	.st62{fill:url(#XMLID_4111_);}
	.st63{fill:url(#XMLID_4112_);}
	.st64{opacity:0.3;fill:#4A65A4;enable-background:new    ;}
	.st65{fill:#F2B2B5;}
	.st66{fill:url(#XMLID_4124_);}
	.st67{fill:url(#XMLID_4125_);}
	.st68{fill:#A7CBEB;}
	.st69{fill:url(#XMLID_4126_);}
	.st70{fill:url(#XMLID_4127_);}
	.st71{fill:#EDF3FB;}
	.st72{fill:#EF9EA4;}
	.st73{fill:url(#XMLID_4128_);}
	.st74{fill:url(#XMLID_4129_);}
	.st75{fill:url(#XMLID_4130_);}
	.st76{fill:#FDC113;}
	.st77{fill:url(#XMLID_4163_);}
	.st78{fill:url(#XMLID_4164_);}
	.st79{fill:#FFDB6C;}
	.st80{fill:url(#XMLID_4165_);}
	.st81{fill:url(#XMLID_4166_);}
	.st82{fill:url(#XMLID_4167_);}
	.st83{fill:#FFCE3A;}
	.st84{fill:url(#XMLID_4168_);}
	.st85{fill:url(#XMLID_4169_);}
	.st86{fill:url(#XMLID_4170_);}
	.st87{fill:url(#XMLID_4171_);}
	.st88{fill:url(#XMLID_4172_);}
	.st89{fill:url(#XMLID_4173_);}
	.st90{fill:url(#XMLID_4174_);}
	.st91{fill:url(#XMLID_4175_);}
	.st92{fill:url(#XMLID_4176_);}
	.st93{fill:url(#XMLID_4177_);}
	.st94{opacity:0.6;fill:url(#XMLID_4178_);enable-background:new    ;}
	.st95{fill:url(#XMLID_4179_);}
	.st96{fill:#5E7EBF;}
	.st97{fill:#F8F6F9;}
	.st98{fill:url(#XMLID_4180_);}
	.st99{fill:url(#XMLID_4181_);}
	.st100{fill:url(#XMLID_4182_);}
	.st101{opacity:0.3;fill:#231F20;enable-background:new    ;}
	.st102{fill:url(#XMLID_4183_);}
	.st103{fill:#E5EEF9;}
	.st104{fill:#D2DCEA;}
	.st105{fill:#EAF7FE;}
	.st106{fill:none;stroke:#D2DCEA;stroke-width:2.5457;stroke-miterlimit:10;}
	.st107{fill:none;stroke:#D2DCEA;stroke-width:2.1192;stroke-miterlimit:10;}
	.st108{fill:#9EC1E1;}
	.st109{fill:none;stroke:#9EC1E1;stroke-width:1.3723;stroke-miterlimit:10;}
	.st110{fill:#1D1B50;}
	.st111{fill:#E2EDF9;}
	.st112{fill:#D9E5ED;}
	.st113{fill:#215CAA;}
	.st114{fill:#2E65B0;}
	.st115{fill:#E9AC86;}
	.st116{fill:#16405A;}
	.st117{fill:#EFBF96;}
	.st118{fill:#B5D1DE;}
	.st119{fill:#A1BAC6;}
	.st120{fill:#8EA2AC;}
	.st121{fill:#EAD7B9;}
	.st122{fill:#6591CC;}
	.st123{fill:#194967;}
	.st124{fill:#4C7ABD;}
	.st125{fill:#FDC12F;}
	.st126{fill:#B0D3F0;}
	.st127{fill:#FEBF13;}
	.st128{fill:#C2E0F5;}
	.st129{fill:#F2AA1E;}
	.st130{fill:#FFCF42;}
	.st131{fill:none;stroke:#B0D3F0;stroke-width:5.837;stroke-miterlimit:10;}
	.st132{fill:none;stroke:#B5D1DE;stroke-width:2.5823;}
	.st133{fill:url(#SVGID_1_);}
	.st134{fill:url(#SVGID_2_);}
	.st135{fill:#FBBF19;}
	.st136{opacity:0.5;fill:#8D8BC3;}
	.st137{opacity:0.5;fill:#F2A528;}
	.st138{fill:#E6E7E8;}
	.st139{fill:#818FA3;}
	.st140{fill:#DEE4F3;}
	.st141{fill:#F1F2F2;}
	.st142{fill:none;stroke:#E6E7E8;stroke-miterlimit:10;}
	.st143{fill:#D1D3D4;}
	.st144{fill:#FAA71A;}
	.st145{opacity:0.2;fill:#DEE4F3;}
	.st146{fill:none;stroke:#FEC14E;stroke-width:15;stroke-miterlimit:10;}
	.st147{fill:none;stroke:#D1D3D4;stroke-width:3;stroke-miterlimit:10;}
	.st148{fill:none;stroke:#818FA3;stroke-width:0.5;stroke-miterlimit:10;}
	.st149{fill:#0E1338;}
	.st150{opacity:0.5;fill:#D1D3D4;}
	.st151{fill:#BE1E2D;}
	.st152{fill:#8D8BC3;}
	.st153{fill:url(#SVGID_3_);}
	.st154{fill:url(#SVGID_4_);}
	.st155{fill:url(#SVGID_5_);}
	.st156{fill:url(#SVGID_6_);}
	.st157{fill:url(#SVGID_7_);}
	.st158{fill:url(#SVGID_8_);}
	.st159{fill:none;}
	.st160{fill:#6465AD;}
	.st161{fill:#D082B6;}
	.st162{fill:#4B51A0;}
	.st163{opacity:0.5;fill:#4B51A0;}
	.st164{fill:#722876;}
	.st165{fill:#F7941D;}
	.st166{opacity:0.3;fill:#F15A29;}
	.st167{fill:url(#SVGID_9_);}
	.st168{fill:url(#SVGID_10_);}
	.st169{opacity:0.5;fill:#FFE1B6;}
	.st170{fill:none;stroke:#9FB1CC;stroke-miterlimit:10;}
	.st171{fill:#FEC14E;}
	.st172{opacity:0.7;}
	.st173{opacity:0;fill:#3C5185;}
	.st174{opacity:0.0244;fill:#3C5185;}
	.st175{opacity:0.0488;fill:#3C5185;}
	.st176{opacity:0.0732;fill:#3C5185;}
	.st177{opacity:0.0976;fill:#3C5185;}
	.st178{opacity:0.122;fill:#3C5185;}
	.st179{opacity:0.1463;fill:#3C5185;}
	.st180{opacity:0.1707;fill:#3C5185;}
	.st181{opacity:0.1951;fill:#3C5185;}
	.st182{opacity:0.2195;fill:#3C5185;}
	.st183{opacity:0.2439;fill:#3C5185;}
	.st184{opacity:0.2683;fill:#3C5185;}
	.st185{opacity:0.2927;fill:#3C5185;}
	.st186{opacity:0.3171;fill:#3C5185;}
	.st187{opacity:0.3415;fill:#3C5185;}
	.st188{opacity:0.3659;fill:#3C5185;}
	.st189{opacity:0.3902;fill:#3C5185;}
	.st190{opacity:0.4146;fill:#3C5185;}
	.st191{opacity:0.439;fill:#3C5185;}
	.st192{opacity:0.4634;fill:#3C5185;}
	.st193{opacity:0.4878;fill:#3C5185;}
	.st194{opacity:0.5122;fill:#3C5185;}
	.st195{opacity:0.5366;fill:#3C5185;}
	.st196{opacity:0.561;fill:#3C5185;}
	.st197{opacity:0.5854;fill:#3C5185;}
	.st198{opacity:0.6098;fill:#3C5185;}
	.st199{opacity:0.6341;fill:#3C5185;}
	.st200{opacity:0.6585;fill:#3C5185;}
	.st201{opacity:0.6829;fill:#3C5185;}
	.st202{opacity:0.7073;fill:#3C5185;}
	.st203{opacity:0.7317;fill:#3C5185;}
	.st204{opacity:0.7561;fill:#3C5185;}
	.st205{opacity:0.7805;fill:#3C5185;}
	.st206{opacity:0.8049;fill:#3C5185;}
	.st207{opacity:0.8293;fill:#3C5185;}
	.st208{opacity:0.8537;fill:#3C5185;}
	.st209{opacity:0.878;fill:#3C5185;}
	.st210{opacity:0.9024;fill:#3C5185;}
	.st211{opacity:0.9268;fill:#3C5185;}
	.st212{opacity:0.9512;fill:#3C5185;}
	.st213{opacity:0.9756;fill:#3C5185;}
	.st214{fill:#3C5185;}
	.st215{fill:url(#XMLID_4184_);}
	.st216{fill:#EAF1F9;}
	.st217{fill:url(#XMLID_4185_);}
	.st218{fill:#D1E1F2;}
	.st219{fill:#49486B;}
	.st220{fill:url(#XMLID_4186_);}
	.st221{fill:url(#XMLID_4187_);}
	.st222{opacity:0.3;fill:#49486B;}
	.st223{fill:url(#XMLID_4188_);}
	.st224{fill:#F2B0B3;}
	.st225{fill:url(#XMLID_4189_);}
	.st226{opacity:0.3;fill:#3C5185;}
	.st227{fill:url(#SVGID_11_);}
	.st228{fill:url(#SVGID_12_);}
	.st229{opacity:0.3;fill:#2E3E64;}
	.st230{fill:#EF9EA3;}
	.st231{fill:url(#XMLID_4190_);}
	.st232{fill:url(#SVGID_13_);}
	.st233{fill:#FFCB4F;}
	.st234{fill:url(#XMLID_4191_);}
	.st235{fill:url(#XMLID_4192_);}
	.st236{fill:url(#XMLID_4193_);}
	.st237{fill:#2D469D;}
	.st238{opacity:0.83;fill:url(#XMLID_4194_);}
	.st239{opacity:0.49;fill:#6B7AB1;}
	.st240{fill:url(#SVGID_14_);}
	.st241{fill:url(#SVGID_15_);}
	.st242{fill:url(#SVGID_16_);}
	.st243{fill:#7FA6D7;}
	.st244{fill:url(#XMLID_4195_);}
	.st245{fill:url(#XMLID_4196_);}
	.st246{fill:#5F6896;}
	.st247{fill:#F2F2F2;}
	.st248{fill:#E2EBF6;}
	.st249{fill:#D9E6F4;}
	.st250{fill:#3BB6D5;}
	.st251{fill:#B0BFDD;}
	.st252{fill:#3E7BA8;}
	.st253{enable-background:new    ;}
	.st254{fill:#FBAA19;}
	.st255{fill:#F4DA80;}
	.st256{fill:#181914;}
	.st257{fill:#E2C59C;}
	.st258{fill:#864738;}
	.st259{fill:#AE5D4A;}
	.st260{fill:#0A1932;}
	.st261{fill:#B5B6B6;}
	.st262{fill:#A4ACAF;}
	.st263{clip-path:url(#SVGID_18_);enable-background:new    ;}
	.st264{fill:#9EA3A6;}
	.st265{clip-path:url(#SVGID_20_);enable-background:new    ;}
	.st266{fill:#959B9D;}
	.st267{fill:#98A0A2;}
	.st268{fill:#A2A9AD;}
	.st269{fill:#A6AFB2;}
	.st270{fill:#AAB4B7;}
	.st271{clip-path:url(#SVGID_22_);enable-background:new    ;}
	.st272{clip-path:url(#SVGID_24_);enable-background:new    ;}
	.st273{clip-path:url(#SVGID_26_);enable-background:new    ;}
	.st274{clip-path:url(#SVGID_28_);enable-background:new    ;}
	.st275{clip-path:url(#SVGID_30_);enable-background:new    ;}
	.st276{fill:#AAB2B5;}
	.st277{clip-path:url(#SVGID_32_);enable-background:new    ;}
	.st278{clip-path:url(#SVGID_34_);enable-background:new    ;}
	.st279{clip-path:url(#SVGID_36_);enable-background:new    ;}
	.st280{clip-path:url(#SVGID_38_);enable-background:new    ;}
	.st281{fill:#EFF9FE;}
	.st282{fill:#37A3BF;}
	.st283{fill:#DEC9A9;}
	.st284{fill:#EBB61F;}
	.st285{fill:#C5D2E2;}
	.st286{fill:#E4EDF2;}
	.st287{fill:#282724;}
	.st288{fill:#B6C2C9;}
	.st289{fill:#879BA6;}
	.st290{fill:#D9E1E4;}
	.st291{fill:#333B31;}
	.st292{fill:#3D473C;}
	.st293{fill:#F7C450;}
	.st294{fill:#D7DFE2;}
	.st295{fill:#359DB6;}
	.st296{fill:#974633;}
	.st297{fill:#7ECBD0;}
	.st298{fill:#387082;}
	.st299{fill:#89BDDA;}
	.st300{fill:#ADD5F1;}
	.st301{fill:#0E2145;}
	.st302{fill:#47C2C6;}
	.st303{fill:#36A8B5;}
	.st304{fill:#DCE5EA;}
	.st305{fill:#FBAF4F;}
	.st306{fill:#326192;}
	.st307{fill:#171311;}
	.st308{fill:#D1DEE6;}
	.st309{fill:#87BBD8;}
	.st310{fill:url(#SVGID_39_);}
	.st311{fill:#B4C0C7;}
	.st312{fill:#D7E3EB;}
	.st313{fill:#8599A4;}
	.st314{fill:#376890;}
	.st315{fill:url(#SVGID_40_);}
	.st316{fill:#FED815;}
	.st317{fill:#C1C4C7;}
	.st318{fill:#F6F6F6;}
	.st319{fill:#5380A2;}
	.st320{fill:#5899B0;}
	.st321{fill:#253551;}
	.st322{fill:#93A6C6;}
	.st323{fill:#047888;}
	.st324{fill:#12B4B4;}
	.st325{fill:#C4C4C4;}
	.st326{fill:#233450;}
	.st327{fill:#F48485;}
	.st328{fill:#C7E2ED;}
	.st329{fill:#E1E6EE;}
	.st330{fill:#121733;}
	.st331{fill:#FEBF52;}
	.st332{fill:#ED9B9C;}
	.st333{fill:#F4B7A9;}
	.st334{fill:#FBD1D9;}
	.st335{fill:#CCC9E1;}
	.st336{fill:#C56E79;}
	.st337{fill:#768BC5;}
	.st338{fill:#636FB1;}
	.st339{fill:#EFEFF8;}
	.st340{fill:#724E56;}
	.st341{fill:#383846;}
	.st342{fill:none;stroke:#1D1D1B;stroke-width:0;stroke-linecap:round;stroke-linejoin:round;}
	.st343{fill:#1D1D1B;}
	.st344{fill:#535566;}
	.st345{fill:#F8AFB1;}
	.st346{fill:#393941;}
	.st347{fill:#E2E4E8;}
	.st348{fill:#F6989A;}
	.st349{fill:#685856;}
	.st350{fill:#4A485C;}
	.st351{fill:#F5F6F7;}
	.st352{fill:#B9BAC0;}
	.st353{fill:#C27771;}
	.st354{fill:#54537C;}
	.st355{fill:#F8B2B0;}
	.st356{fill:#E99E9C;}
	.st357{fill:#4D413F;}
	.st358{fill:#B96760;}
	.st359{fill:#F6894F;}
	.st360{fill:#FCB54B;}
	.st361{fill:#FCE483;}
	.st362{fill:#796060;}
	.st363{fill:#6EA3D7;}
	.st364{fill:#4E8AC8;}
	.st365{fill:#BB664B;}
	.st366{fill:#F48471;}
	.st367{fill:#E7E8EB;}
	.st368{fill:#FFD766;}
	.st369{fill:#555387;}
	.st370{fill:#DBDADA;}
	.st371{fill:#9C9C9B;}
	.st372{fill:#878787;}
	.st373{fill:#C7C6C5;}
	.st374{fill:#EDEDEE;}
	.st375{fill:#FEEC87;}
	.st376{fill:#4A425F;}
	.st377{fill:#605570;}
	.st378{fill:#DD817F;}
	.st379{fill:#E0E3EF;}
	.st380{fill:#C3775E;}
	.st381{fill:#D3907A;}
	.st382{fill:#E5B182;}
	.st383{fill:#F5F6F6;}
	.st384{fill:#462C26;}
	.st385{fill:#A06F57;}
	.st386{fill:#3C3F54;}
	.st387{fill:#194043;}
	.st388{fill:#FAC2BE;}
	.st389{fill:#D8D7DF;}
	.st390{fill:#F9B5B2;}
	.st391{fill:#4A4A4A;}
	.st392{fill:#AFA0CE;}
	.st393{fill:#047091;}
	.st394{fill:#19243A;}
	.st395{clip-path:url(#SVGID_42_);}
	.st396{fill:#F8BFD2;}
	.st397{fill:#F27797;}
	.st398{fill:#96D4EC;}
	.st399{fill:#39A9E0;}
	.st400{fill:#BFD577;}
	.st401{fill:#95C13D;}
	.st402{fill:#F8B232;}
	.st403{fill:#F29220;}
	.st404{fill:#F2C65B;}
	.st405{fill:#F6E881;}
	.st406{fill:#F9E5BC;}
	.st407{fill:#FBC6AD;}
	.st408{fill:#1F2C41;}
	.st409{fill:#6BB5CF;}
	.st410{fill:#5771B6;}
	.st411{fill:#F29D42;}
	.st412{fill:#7D91AF;}
	.st413{fill:#F0C2C2;}
	.st414{fill:#A2B2CC;}
	.st415{fill:#585767;}
	.st416{fill:#875E5D;}
	.st417{fill:#484D6A;}
	.st418{fill:#E5807F;}
	.st419{fill:#F6999C;}
	.st420{fill:#FCD9D9;}
	.st421{fill:#121B2A;}
	.st422{fill:#1F2E45;}
	.st423{clip-path:url(#SVGID_44_);enable-background:new    ;}
	.st424{fill:#B3B3B3;}
	.st425{fill:#555A77;}
	.st426{fill:#92A3BF;}
	.st427{fill:#D78B8C;}
	.st428{fill:#8A4A49;}
	.st429{fill:#9B6162;}
	.st430{fill:#C48484;}
	.st431{fill:#F5D067;}
	.st432{fill:#CD7878;}
	.st433{fill:#BFC9D9;}
	.st434{fill:#B0BCD0;}
	.st435{fill:#616074;}
	.st436{fill:#362728;}
	.st437{fill:#D9B4A3;}
	.st438{fill:#F7B2AF;}
	.st439{fill:#7D428D;}
	.st440{fill:#E2C7B6;}
	.st441{fill:#FAC1BE;}
	.st442{fill:#F8C2DA;}
	.st443{fill:#FACEE1;}
	.st444{fill:#121210;}
	.st445{fill:#A48A7B;}
	.st446{fill:#4E4A82;}
	.st447{fill:#3C3A64;}
	.st448{fill:#F16E8D;}
	.st449{fill:#A95B5B;}
	.st450{fill:#F5A1A2;}
	.st451{fill:#F4BFBE;}
	.st452{fill:#FED46A;}
	.st453{fill:#FAC7D2;}
	.st454{fill:#342E4F;}
	.st455{fill:#837EBC;}
	.st456{fill:#9B96C9;}
	.st457{fill:#B47D81;}
	.st458{fill:#8F5A60;}
	.st459{fill:#A8A6C5;}
	.st460{fill:#A54C62;}
	.st461{fill:#902D42;}
	.st462{fill:#171021;}
	.st463{fill:#F1C131;}
	.st464{fill:#F9BEC7;}
	.st465{fill:#3F3F56;}
	.st466{fill:#77516D;}
	.st467{fill:#30303F;}
	.st468{fill:#24190F;}
	.st469{fill:#EFAA88;}
	.st470{fill:#DDDBE7;}
	.st471{fill:#5D7C92;}
	.st472{fill:#E79E7A;}
	.st473{fill:#D7D5DD;}
	.st474{fill:#6B6AB1;}
	.st475{fill:#466C83;}
	.st476{fill:#EEF8FA;}
	.st477{fill:#78787A;}
	.st478{fill:#85ACDB;}
	.st479{fill:#0F0F1E;}
	.st480{fill:#A46569;}
	.st481{fill:#454154;}
	.st482{fill:#E9A5A8;}
	.st483{fill:#9093AC;}
	.st484{fill:#EFB7B9;}
	.st485{fill:#5A5369;}
	.st486{fill:#69657F;}
	.st487{fill:#C5C8D6;}
	.st488{fill:#292F42;}
	.st489{fill:#456BB3;}
	.st490{fill:#698CC8;}
	.st491{fill:#F48270;}
	.st492{fill:#D6E1EE;}
	.st493{fill:#F47A66;}
	.st494{fill:#DEE3EE;}
	.st495{clip-path:url(#SVGID_46_);}
	.st496{fill:#917DBA;}
	.st497{fill:#82666B;}
	.st498{fill:#46425B;}
	.st499{fill:#CECFDB;}
	.st500{fill:#BABDD1;}
	.st501{fill:#F3746A;}
	.st502{fill:#F8A9A1;}
	.st503{fill:#F6A5B7;}
	.st504{fill:#2B2A6A;}
	.st505{fill:#D4EFFC;}
	.st506{fill:#E2E5EA;}
	.st507{fill:#F9C0CD;}
	.st508{fill:#B36B85;}
	.st509{fill:#FEC13C;}
	.st510{fill:#F6871F;}
	.st511{fill:#F5887C;}
	.st512{fill:#DC9BA3;}
	.st513{fill:#B69CCA;}
	.st514{fill:#534965;}
	.st515{fill:#B96976;}
	.st516{fill:#27193F;}
	.st517{fill:#C97883;}
	.st518{fill:#E4EBF2;}
	.st519{clip-path:url(#SVGID_48_);enable-background:new    ;}
	.st520{fill:#758BC6;}
	.st521{fill:#C1C1CC;}
	.st522{fill:#7D5426;}
	.st523{fill:#659B41;}
	.st524{fill:#56873D;}
	.st525{fill:#486C32;}
	.st526{fill:#496B32;}
	.st527{fill:#55873D;}
	.st528{fill:#94C93D;}
	.st529{fill:#72B844;}
	.st530{fill:#669A41;}
	.st531{fill:#476B32;}
	.st532{fill:#56863C;}
	.st533{fill:#71B744;}
	.st534{fill:#649B41;}
	.st535{fill:#FFFCF9;}
	.st536{fill:#BBC2D2;}
	.st537{fill:#F6CDB2;}
	.st538{fill:#EE9C86;}
	.st539{fill:#95C93D;}
	.st540{fill:#6FB544;}
	.st541{fill:#659940;}
	.st542{fill:#55853C;}
	.st543{fill:#C6C9D6;}
	.st544{fill:#A0A4B4;}
	.st545{fill:#454278;}
	.st546{fill:#964A75;}
	.st547{fill:#D1567C;}
	.st548{fill:#D2D1DF;}
	.st549{fill:#361D3E;}
	.st550{fill:#DADDDB;}
	.st551{fill:#717070;}
	.st552{fill:#585856;}
	.st553{fill:#B7B7B8;}
	.st554{fill:#454646;}
	.st555{fill:#727473;}
	.st556{fill:#838585;}
	.st557{fill:#607672;}
	.st558{fill:#DCDBDB;}
	.st559{fill:#566A66;}
	.st560{fill:#8DADA7;}
	.st561{fill:#D2DBEE;}
	.st562{fill:#2C100F;}
	.st563{fill:#9A3C63;}
	.st564{fill:#F9C0C7;}
	.st565{fill:#E39BA5;}
	.st566{fill:#C36987;}
	.st567{fill:#3A1518;}
	.st568{clip-path:url(#SVGID_50_);enable-background:new    ;}
	.st569{fill:#F2B9B8;}
	.st570{fill:#EEA04B;}
	.st571{fill:#3D3E51;}
	.st572{fill:#454A64;}
	.st573{fill:#3C364B;}
	.st574{fill:#C1C3C6;}
	.st575{fill:#D0E0F3;}
	.st576{fill:#14132B;}
	.st577{fill:#B8B9B8;}
	.st578{fill:#D6E1ED;}
	.st579{fill:#37475D;}
	.st580{fill:#E46047;}
	.st581{fill:#E290AC;}
	.st582{fill:#749DD2;}
	.st583{fill:#272043;}
	.st584{fill:#726797;}
	.st585{fill:#597DBE;}
	.st586{fill:#4161AD;}
	.st587{clip-path:url(#XMLID_4197_);}
	.st588{fill:#ACC5E7;}
	.st589{fill:#412312;}
	.st590{fill:#303E52;}
	.st591{opacity:0.5;fill:#5771B6;}
	.st592{fill:#F9E700;}
	.st593{fill:#101138;}
	.st594{fill:#A6B8DF;}
	.st595{fill:#E3ECF8;}
	.st596{fill:#BFC5DF;}
	.st597{fill:#7D90AA;}
	.st598{fill:#1E2656;}
	.st599{fill:#CECECF;}
	.st600{fill:#A7A7A8;}
	.st601{fill:#242164;}
	.st602{fill:#D3D4D5;}
	.st603{fill-rule:evenodd;clip-rule:evenodd;fill:#36475D;}
	.st604{fill:#474E5A;}
	.st605{fill:#23272C;}
	.st606{fill:#D9DADB;}
	.st607{fill:#5D6574;}
	.st608{fill:#7A8599;}
	.st609{fill:#BEBEBF;}
	.st610{fill:#676F80;}
	.st611{fill:none;stroke:#010101;stroke-width:0.1068;stroke-linecap:round;stroke-linejoin:round;stroke-miterlimit:10;}
	.st612{fill:#70777D;}
	.st613{fill:#231F20;}
	.st614{fill:#56A5A9;}
	.st615{fill:#6ECCDB;}
	.st616{fill:#4273B9;}
	.st617{fill:#69BD45;}
	.st618{fill:#EE3224;}
	.st619{clip-path:url(#XMLID_4212_);}
	.st620{fill:#3D3F54;}
	.st621{fill:#C82026;}
	.st622{fill:#D1E7F7;}
	.st623{fill:#1F1F2F;}
	.st624{fill:#403F56;}
	.st625{fill:#B9B9C1;}
	.st626{fill:#46475B;}
	.st627{fill:#AEB9CA;}
	.st628{fill:#4B4F67;}
	.st629{fill:#575C72;}
	.st630{fill:#6D89C5;}
	.st631{fill:#AB556C;}
	.st632{fill:#F7F8FA;}
	.st633{fill:#E1E3EC;}
	.st634{fill:#85506F;}
	.st635{fill:#EC749E;}
	.st636{fill:#F05878;}
	.st637{fill:#BFCFC7;}
	.st638{fill:#A15E9A;}
	.st639{fill:#8A98CB;}
	.st640{fill:#B8ABCD;}
	.st641{fill:#9779B5;}
	.st642{fill:#404774;}
	.st643{fill:#7A87C3;}
	.st644{clip-path:url(#XMLID_4213_);fill:none;stroke:#404774;stroke-miterlimit:10;}
	.st645{fill:#6977B7;}
	.st646{fill:#6A87C4;}
	.st647{fill:#8EC3EA;}
	.st648{fill:#DDF1FC;}
	.st649{opacity:0.8;}
	.st650{clip-path:url(#XMLID_4214_);fill:#DCDAE6;}
	.st651{clip-path:url(#XMLID_4214_);fill:#C39FBB;}
	.st652{opacity:0.78;fill:#D0E0F3;}
	.st653{fill:#669B41;}
	.st654{fill:#54873D;}
	.st655{fill:#93C83E;}
	.st656{fill:none;stroke:#3052A4;stroke-width:2;stroke-linecap:round;stroke-miterlimit:10;}
	.st657{opacity:0.41;}
	.st658{fill:#4D4A82;}
	.st659{fill:#972766;}
	.st660{fill:#F26F8D;}
	.st661{fill:#D0567B;}
	.st662{fill:#ED1F24;}
	.st663{fill:#3052A4;}
	.st664{fill:#C9C9C8;}
	.st665{fill:#F9FAFB;}
	.st666{fill:#C8D0DF;}
	.st667{fill:#D9E3F2;}
	.st668{clip-path:url(#XMLID_4215_);fill:#CDD6E9;}
	.st669{fill:#ACBCDE;}
	.st670{fill:#F5F8FD;}
	.st671{opacity:0.5;fill:#F5F8FD;}
	.st672{clip-path:url(#XMLID_4216_);fill:#A8B6DA;}
	.st673{clip-path:url(#XMLID_4216_);fill:#FFFFFF;}
	.st674{opacity:0.5;clip-path:url(#XMLID_4216_);fill:#9AACD8;}
	.st675{fill:#C3C8DF;}
	.st676{fill:#E5E5E4;}
	.st677{fill:#EF4881;}
	.st678{fill:#B1A0C2;}
	.st679{fill:#EF72AA;}
	.st680{clip-path:url(#XMLID_4217_);fill:#DCDAE6;}
	.st681{clip-path:url(#XMLID_4217_);fill:#37373D;}
	.st682{clip-path:url(#XMLID_4218_);}
	.st683{clip-path:url(#XMLID_4219_);}
	.st684{clip-path:url(#XMLID_4220_);fill:none;stroke:#404774;stroke-miterlimit:10;}
	.st685{clip-path:url(#XMLID_4221_);fill:#DCDAE6;}
	.st686{clip-path:url(#XMLID_4221_);fill:#C39FBB;}
	.st687{clip-path:url(#XMLID_4222_);fill:#CDD6E9;}
	.st688{clip-path:url(#XMLID_4223_);fill:#A8B6DA;}
	.st689{clip-path:url(#XMLID_4223_);fill:#FFFFFF;}
	.st690{opacity:0.5;clip-path:url(#XMLID_4223_);fill:#9AACD8;}
	.st691{clip-path:url(#XMLID_4224_);fill:#DCDAE6;}
	.st692{clip-path:url(#XMLID_4224_);fill:#37373D;}
	.st693{clip-path:url(#SVGID_52_);enable-background:new    ;}
	.st694{clip-path:url(#SVGID_54_);enable-background:new    ;}
	.st695{clip-path:url(#SVGID_56_);enable-background:new    ;}
	.st696{clip-path:url(#SVGID_58_);enable-background:new    ;}
	.st697{clip-path:url(#SVGID_60_);enable-background:new    ;}
	.st698{clip-path:url(#SVGID_62_);enable-background:new    ;}
	.st699{clip-path:url(#SVGID_64_);enable-background:new    ;}
	.st700{clip-path:url(#SVGID_66_);enable-background:new    ;}
	.st701{clip-path:url(#SVGID_68_);enable-background:new    ;}
	.st702{clip-path:url(#SVGID_70_);enable-background:new    ;}
	.st703{clip-path:url(#SVGID_72_);enable-background:new    ;}
	.st704{fill:#9EC43B;}
	.st705{fill:#94C2E6;}
	.st706{fill:#98DAEF;}
	.st707{fill:url(#SVGID_73_);}
	.st708{fill:url(#SVGID_74_);}
	.st709{fill:url(#SVGID_75_);}
	.st710{fill:url(#SVGID_76_);}
	.st711{fill:url(#SVGID_77_);}
	.st712{fill:url(#SVGID_78_);}
	.st713{fill:url(#SVGID_79_);}
	.st714{fill:url(#SVGID_80_);}
	.st715{fill-rule:evenodd;clip-rule:evenodd;fill:#F9AA85;}
	.st716{fill-rule:evenodd;clip-rule:evenodd;fill:#DEF1EE;}
	.st717{fill-rule:evenodd;clip-rule:evenodd;fill:#03568C;}
	.st718{fill-rule:evenodd;clip-rule:evenodd;fill:#BDDFDA;}
	.st719{fill-rule:evenodd;clip-rule:evenodd;fill:#EDF7F7;}
	.st720{fill-rule:evenodd;clip-rule:evenodd;fill:#A3C9C3;}
	.st721{fill-rule:evenodd;clip-rule:evenodd;fill:#F05260;}
	.st722{fill-rule:evenodd;clip-rule:evenodd;fill:#7FB5AD;}
	.st723{fill-rule:evenodd;clip-rule:evenodd;fill:#FFFFFF;}
	.st724{fill-rule:evenodd;clip-rule:evenodd;fill:#0B3251;}
	.st725{fill-rule:evenodd;clip-rule:evenodd;fill:#ED9971;}
	.st726{fill-rule:evenodd;clip-rule:evenodd;fill:#CE7C57;}
	.st727{fill-rule:evenodd;clip-rule:evenodd;fill:#8AABD0;}
	.st728{fill-rule:evenodd;clip-rule:evenodd;fill:#A7C4E3;}
	.st729{fill-rule:evenodd;clip-rule:evenodd;fill:#20BDBF;}
	.st730{fill-rule:evenodd;clip-rule:evenodd;fill:#128E90;}
	.st731{fill-rule:evenodd;clip-rule:evenodd;fill:#333333;}
	.st732{fill-rule:evenodd;clip-rule:evenodd;fill:#010101;}
	.st733{fill-rule:evenodd;clip-rule:evenodd;fill:#E53342;}
	.st734{fill-rule:evenodd;clip-rule:evenodd;fill:#C4E8F2;}
	.st735{fill-rule:evenodd;clip-rule:evenodd;fill:#EFF9FC;}
	.st736{fill-rule:evenodd;clip-rule:evenodd;fill:#F37E8A;}
	.st737{fill-rule:evenodd;clip-rule:evenodd;fill:#0B7678;}
	.st738{fill-rule:evenodd;clip-rule:evenodd;fill:#FEE99E;}
	.st739{fill-rule:evenodd;clip-rule:evenodd;fill:#FFD232;}
	.st740{fill-rule:evenodd;clip-rule:evenodd;fill:#F2A91E;}
	.st741{fill-rule:evenodd;clip-rule:evenodd;fill:#6B9FD5;}
	.st742{fill-rule:evenodd;clip-rule:evenodd;fill:#132146;}
	.st743{fill-rule:evenodd;clip-rule:evenodd;fill:#F89C3F;}
	.st744{fill-rule:evenodd;clip-rule:evenodd;fill:#FFDB59;}
	.st745{fill-rule:evenodd;clip-rule:evenodd;fill:#723E22;}
	.st746{fill-rule:evenodd;clip-rule:evenodd;fill:url(#SVGID_81_);}
	.st747{fill-rule:evenodd;clip-rule:evenodd;fill:#F9AF88;}
	.st748{fill-rule:evenodd;clip-rule:evenodd;fill:#0B0F17;}
	.st749{fill-rule:evenodd;clip-rule:evenodd;fill:#0C1837;}
	.st750{fill-rule:evenodd;clip-rule:evenodd;fill:#59BDC6;}
	.st751{fill-rule:evenodd;clip-rule:evenodd;fill:#465E9F;}
	.st752{fill-rule:evenodd;clip-rule:evenodd;fill:url(#SVGID_82_);}
	.st753{fill-rule:evenodd;clip-rule:evenodd;fill:#ED2224;}
	.st754{fill-rule:evenodd;clip-rule:evenodd;fill:#2D4583;}
	.st755{fill-rule:evenodd;clip-rule:evenodd;fill:#DDF2FD;}
	.st756{fill-rule:evenodd;clip-rule:evenodd;fill:#0D152E;}
	.st757{fill-rule:evenodd;clip-rule:evenodd;fill:#243E8A;}
	.st758{fill-rule:evenodd;clip-rule:evenodd;fill:#F28D6A;}
	.st759{fill-rule:evenodd;clip-rule:evenodd;fill:#0B7375;}
	.st760{filter:url(#Adobe_OpacityMaskFilter);}
	.st761{filter:url(#Adobe_OpacityMaskFilter_1_);}
	.st762{mask:url(#SVGID_83_);fill:url(#SVGID_84_);}
	.st763{fill:#606161;}
	.st764{fill:#DBDBC6;}
	.st765{fill:#626C7E;}
	.st766{fill:#DFE7EC;}
	.st767{fill:#49505A;}
	.st768{fill:#A8A1B1;}
	.st769{fill:#C6C7C9;}
	.st770{fill:#985241;}
	.st771{fill:#958D9C;}
	.st772{fill:#D4EAF9;}
	.st773{fill:#9CB6CC;}
	.st774{fill:#B2CDDF;}
	.st775{fill:#ABD8F4;}
	.st776{fill:#EEF4FB;}
	.st777{fill:#AEBDDB;}
	.st778{fill:#D0D9E8;}
	.st779{fill:url(#SVGID_85_);}
	.st780{fill:#38AFB1;}
	.st781{fill:#2E5C6B;}
	.st782{fill:#2E8DA5;}
	.st783{fill:#C9C8B6;}
	.st784{fill:#BCD0E2;}
	.st785{fill:#EEEEEF;}
	.st786{fill:#CED6D7;}
	.st787{fill:#B7BEC0;}
	.st788{fill:#FFC516;}
	.st789{fill:#965040;}
	.st790{fill:#96CCEF;}
	.st791{fill:#EFCA48;}
	.st792{fill:#969B9D;}
	.st793{fill:#80C8EF;}
	.st794{fill:#FBD261;}
	.st795{fill:#A69FAF;}
	.st796{fill:#C5C5C7;}
	.st797{fill:#3196B0;}
	.st798{fill:#0B5A7D;}
	.st799{fill:#0F294B;}
	.st800{fill:url(#SVGID_86_);}
	.st801{opacity:0.2;fill:#0B5A7D;}
	.st802{fill:#E2B348;}
	.st803{fill:#CCA243;}
	.st804{fill:#1787B8;}
	.st805{fill:#D8E8ED;}
</style>
<g>
	<path class="st0" d="M1145.83,485.93c0.06,31.96-8.39,63.33-24.42,90.67c0,33.44-15.09,63.74-39.57,85.83
		c-6.13,5.52-12.73,10.46-19.71,14.76c-0.28,0.18-0.57,0.36-0.86,0.53c-0.52,0.32-1.05,0.64-1.58,0.97l-0.5,0.3l0,0
		c-2.23,1.3-4.52,2.56-6.84,3.74c-21.46,10.9-45.06,16.52-68.97,16.42H279.16c-5.61,0-11.17-0.23-16.68-0.7
		c-19.58-1.59-38.83-6.2-57.1-13.66c-3.57-1.46-7.06-3.02-10.49-4.69c-1.63-0.79-3.25-1.61-4.85-2.44c-1-0.52-2-1.06-2.99-1.6
		c-6.01-3.3-11.84-6.96-17.45-10.95c-5.13-3.62-10.06-7.53-14.77-11.71c-31.82-28.2-51.5-67.23-51.5-110.3
		c-17.84-28.37-27.3-61.48-27.23-95.31c0-95.75,74.1-173.38,165.51-173.38c2.81,0,5.61,0.09,8.42,0.24c0.4,0,0.79,0,1.2,0.06
		c15.41-27.13,36.01-52.06,60.78-74c67.55-59.78,166.28-97.47,276.25-97.47c92.41,0,176.87,26.61,241.57,70.57
		c24.52-14.31,52.21-21.82,80.37-21.78c91.4,0,165.51,77.62,165.51,173.38c-0.01,6.06-0.33,12.11-0.94,18.14
		C1119.47,376.24,1145.98,429.36,1145.83,485.93z"/>
	<ellipse class="st0" cx="139.69" cy="220.2" rx="20.23" ry="20.89"/>
	<ellipse class="st0" cx="223.99" cy="104.74" rx="20.23" ry="20.89"/>
	<ellipse class="st0" cx="217.13" cy="184.06" rx="33.9" ry="35.01"/>
</g>
<g>
	<path class="st250" d="M645.88,167.23l7.49-29.76l-15.09-7.42c0.02-4.36-0.25-8.76-0.82-13.18l14.82-7.88l-8.4-29.5l-18.55,1.23
		c-1.94-3.4-4.07-6.65-6.37-9.75l9.75-15.6l-22.03-21.35L590.2,45.04c-3.04-1.8-6.18-3.44-9.4-4.91l0.68-19.42l-29.75-7.48
		l-8.89,18.07c-3.45-0.1-6.92-0.01-10.41,0.27l-9.17-17.26l-29.51,8.4l1.3,19.5c-3.3,1.7-6.47,3.57-9.51,5.61l-15.9-9.94
		l-21.35,22.03l10.12,15.12c-2.28,3.43-4.35,7-6.19,10.68l-17.23-0.6l-7.49,29.75l14.69,7.23c-0.35,4.63-0.37,9.32-0.04,14.04
		l-13.56,7.2l8.4,29.51l14.57-0.97c2.27,4.76,4.89,9.27,7.83,13.5l-7.24,11.58l22.03,21.36l11.1-7.43c4.61,3.1,9.48,5.81,14.54,8.09
		l-0.44,12.64l29.75,7.5l5.71-11.61c5.56,0.3,11.21,0.12,16.87-0.56l5.89,11.09l29.5-8.4l-0.9-13.51c4.83-2.56,9.39-5.5,13.65-8.77
		l11.37,7.1l21.35-22.03l-8.33-12.45c2.55-4.25,4.78-8.68,6.67-13.27L645.88,167.23z M551.62,169.9
		c-22.34,6.37-45.62-6.59-51.98-28.93c-6.36-22.35,6.6-45.62,28.94-51.98c22.34-6.36,45.62,6.59,51.98,28.95
		C586.92,140.27,573.96,163.54,551.62,169.9z"/>
	<path class="st295" d="M522.29,66.9c-34.54,9.83-54.58,45.81-44.75,80.35c9.84,34.55,45.82,54.57,80.36,44.74
		c34.54-9.83,54.57-45.81,44.73-80.35C592.81,77.09,556.83,57.06,522.29,66.9z M554.21,179.01c-27.38,7.8-55.88-8.08-63.68-35.45
		c-7.8-27.37,8.08-55.89,35.45-63.69c27.38-7.79,55.89,8.09,63.68,35.46C597.46,142.71,581.58,171.22,554.21,179.01z"/>
</g>
<g>
	<g>
		<path class="st777" d="M741.69,333.26c0,0,5.35,7.91-4.35,17c-16.53,15.48-37.87,24.02-41.99,25.81
			c-4.12,1.79-16.66,4.73-20.88-0.82c-4.22-5.55,8.7-15.87,8.7-15.87s14.52-7.99,27.59-16.36
			C723.82,334.66,741.69,333.26,741.69,333.26z"/>
		<path class="st777" d="M654.81,317.87c0,0,16.02-8.01,17.36-4.01c5.87,17.6,14.87,36.61,15.83,41c0.96,4.39,1.42,17.26-4.84,20.33
			c-6.26,3.07-13.89-11.6-13.89-11.6s-5.04-15.78-10.73-30.22C652.85,318.94,654.81,317.87,654.81,317.87z"/>
		<g>
			<path class="st121" d="M726.9,332.87c0.39,4.63,2.88,8.65,5.5,8.84c2.48,0,4.97,0,7.45,0c2.62-0.19,5.11-4.2,5.5-8.84
				c0.61-7.64,1.22-15.28,1.83-22.92c0.41-4.58-1.39-13.78-5.35-16.49c-3.62-2.42-7.78-2.42-11.41,0
				c-3.97,2.72-5.76,11.91-5.36,16.49C725.67,317.59,726.29,325.23,726.9,332.87z"/>
			<path class="st121" d="M784.04,409.8l-19.94,32.41c0,0,29.65-14.24,28.12-27.5C790.69,401.45,784.04,409.8,784.04,409.8z"/>
			<path class="st123" d="M737.87,446.59c0,0-11.12,52.69-22.71,80.62c-10.27,24.75-22.25-7.45-22.25-7.45l18.75-95.84l30.91-2.34
				C742.57,421.59,744.69,422.37,737.87,446.59z"/>
			<path class="st123" d="M735.3,421.84l-3.8,41.04l5.36,3.15c0,0,3.1,60.96,4.11,64.04c5.8,17.65,20.79,7.06,22.84,1.18
				c2.05-5.89,5.45-49.41,4.77-81.17c-0.68-31.76-0.68-31.76-0.68-31.76L735.3,421.84z"/>
			<path class="st778" d="M708.37,344.98l19.88-10.14l5.34,2.17l15.35-1.67l23.84,8.17c0,0,4.84,6.31,0.51,28.97
				c-4.31,22.56-4.7,58.93-4.7,58.93l-59.46,3.52C709.15,434.93,701.22,340.01,708.37,344.98z"/>
			<path class="st778" d="M762.57,344.49c0,0,8.09-6.98,17.39,5.89c13.84,19.16,21.98,41.25,23.52,45.67
				c1.54,4.42,3.58,17.68-2.55,21.6c-6.14,3.93-6.14,3.93-6.14,3.93l-13.65-7.97l2.35-4.3l1.59-1.97c0,0-7.16-15.71-14.83-29.95
				C762.57,363.15,762.57,344.49,762.57,344.49z"/>
			<polygon class="st777" points="732.6,336.51 736.43,343.85 748.29,335.17 745.95,331 			"/>
			<polygon class="st777" points="726.24,331.23 731.59,336.51 726.42,342.72 723.47,334.8 			"/>
			<path class="st256" d="M762.72,631.95c0.52,0.71,0.13,2.6,0.13,2.6s-9.18,1.18-12.13,0.42c-0.77-0.2-2.06-0.93-3.28-1.72
				c-0.2-0.13-0.57-0.92-0.76-1.05c-0.37-0.25-0.56,0.17-0.88-0.05c-0.81-0.58-1.39-1.03-1.4-1.08c-0.79-4.72,0.3-6.63,0.3-6.63
				s7.83-2.95,9.28-0.92C757.41,628.28,761.58,630.39,762.72,631.95z"/>
			<path class="st256" d="M697.3,621.53l-1.4,7.68h-7.45c0,0-0.41-1.09-1.04-1.09c-0.54,0-1.22,1.09-1.94,1.09c-1.57,0-3.31,0-4,0
				c-1.4,0-14.95,0-14.95,0s-0.34-1.62,0.07-2.17c0.21-0.28,1.46-0.78,2.29-1.02c3.85-1.14,14.86-4.69,16.78-8.55
				C687.99,612.76,697.3,621.53,697.3,621.53z"/>
			<path class="st123" d="M742.27,514.01c0,0-2.48,11.53-2.12,33.32c0.22,13.82,1.5,50.4,3.89,77.62
				c0.15,1.67,12.95,0.41,12.95,0.41s7.81-88.39,8.49-105.5C765.69,514.71,752.5,501.81,742.27,514.01z"/>
			<path class="st123" d="M698.08,518.32c0,0,4.03-1.59,15.01,1.58c7.15,2.06-14.67,102.88-14.67,102.88l-16.15-5.93l11.11-99.58
				L698.08,518.32z"/>
			<g>
				<path class="st116" d="M735.03,288.05v-5.3h-2.19h-5.77h-3.49c-3.85,0-6.97,3.12-6.97,6.97v5.3h2.19h5.77h3.49
					C731.91,295.03,735.03,291.9,735.03,288.05z"/>
				<path class="st121" d="M745.99,320.22c0,3.42-2.78,6.2-6.2,6.2h-14.07c-3.43,0-6.2-2.77-6.2-6.2v-28.14c0-3.42,2.77-6.2,6.2-6.2
					h14.07c3.42,0,6.2,2.78,6.2,6.2V320.22z"/>
				<path class="st116" d="M735.47,282.75c2.44,0,4.58,1.26,5.83,3.15h2.39c2.98,0,5.4,2.42,5.4,5.4v13.34h-3.8v-5.42
					c0-2.09-1.71-3.8-3.8-3.8h-2.22h-5.77h-3.48c-3.85,0-6.97-3.12-6.97-6.97v-5.7H735.47z"/>
				<path class="st121" d="M744.09,308.12c0-1.82,1.48-3.3,3.31-3.3h0.27c1.83,0,3.31,1.48,3.31,3.3v4.02
					c0,1.82-1.48,3.31-3.31,3.31h-0.27c-1.35,0-2.51-0.81-3.03-1.97L744.09,308.12z"/>
			</g>
		</g>
		<g>
			<g>
				<polygon class="st250" points="671.68,342.6 674.6,334.52 685.63,617.14 682.39,617.14 				"/>
				<polygon class="st250" points="683.72,617.14 682.39,617.14 671.68,342.6 672.87,339.29 				"/>
			</g>
			<polygon class="st250" points="637.44,486.15 685.53,486.15 678.71,311.57 630.62,311.57 			"/>
			<g>
				<polygon class="st778" points="561.85,456.46 557.54,451.46 541.29,626.04 546.07,626.04 				"/>
				<polygon class="st777" points="544.11,626.04 546.07,626.04 561.85,456.46 560.08,454.41 				"/>
			</g>
			<g>
				<polygon class="st778" points="657.42,456.46 653.11,451.46 636.87,626.04 641.64,626.04 				"/>
				<polygon class="st777" points="639.68,626.04 641.64,626.04 657.42,456.46 655.65,454.41 				"/>
			</g>
			<polygon class="st103" points="661.95,486.15 547.32,486.15 563.57,311.57 678.19,311.57 			"/>
		</g>
		<g>
			<path class="st121" d="M671.7,311.16c-1.13,1.66-0.99,1.59-0.99,1.59s-2.42-0.88-4.68,0c-1.12,0.44-4.47,2.32-4.47,2.32
				l-5.01,2.73l-2.22,1.45c0,0-1.2,0.92-1.67,0.89c-1.37-0.06-0.81-1.07-0.81-1.07l8.13-6.37l-9.12,3.86c0,0-1.25,0.3-1.64-0.25
				c-0.35-0.51,0.01-0.7,0.01-0.7l9.28-6.76l-4.93,1.47c0,0-1.23,0.27-1.63-0.25c-0.44-0.57-0.58-0.71-0.58-0.71l9.61-4.35
				C660.98,305.01,672.83,309.51,671.7,311.16z"/>
			<path class="st121" d="M658.71,311.35l-6.58,2.35c0,0-1.41,0.68-2.27,0.6c-0.98-0.1-0.93-0.95-0.93-0.95l9.57-4.5L658.71,311.35z
				"/>
		</g>
	</g>
	<g>
		<g>
			<g>
				<g>
					<polygon class="st286" points="567.89,420.16 564.31,420.16 560.6,455.38 564.19,455.38 					"/>
					<polygon class="st286" points="573.14,420.16 569.56,420.16 565.86,455.38 569.44,455.38 					"/>
					<polygon class="st286" points="578.4,420.16 574.81,420.16 571.11,455.38 574.69,455.38 					"/>
					<polygon class="st286" points="583.65,420.16 580.07,420.16 576.37,455.38 579.95,455.38 					"/>
					<polygon class="st286" points="588.91,420.16 585.32,420.16 581.62,455.38 585.2,455.38 					"/>
					<polygon class="st286" points="594.17,420.16 590.58,420.16 586.88,455.38 590.46,455.38 					"/>
					<polygon class="st286" points="599.42,420.16 595.83,420.16 592.13,455.38 595.72,455.38 					"/>
					<polygon class="st286" points="604.67,420.16 601.09,420.16 597.39,455.38 600.97,455.38 					"/>
					<polygon class="st286" points="609.92,420.16 606.34,420.16 602.64,455.38 606.22,455.38 					"/>
					<polygon class="st286" points="615.19,420.16 611.6,420.16 607.9,455.38 611.48,455.38 					"/>
					<polygon class="st286" points="620.44,420.16 616.86,420.16 613.15,455.38 616.74,455.38 					"/>
					<polygon class="st286" points="625.69,420.16 622.11,420.16 618.41,455.38 621.99,455.38 					"/>
					<polygon class="st286" points="630.95,420.16 627.36,420.16 623.66,455.38 627.25,455.38 					"/>
					<polygon class="st286" points="636.21,420.16 632.62,420.16 628.92,455.38 632.5,455.38 					"/>
					<polygon class="st286" points="641.46,420.16 637.87,420.16 634.17,455.38 637.76,455.38 					"/>
					<polygon class="st286" points="646.71,420.16 643.13,420.16 639.43,455.38 643.01,455.38 					"/>
					<polygon class="st286" points="651.97,420.16 648.39,420.16 644.69,455.38 648.26,455.38 					"/>
					<polygon class="st286" points="657.22,420.16 653.64,420.16 649.94,455.38 653.52,455.38 					"/>
				</g>
				<g>
					<polygon class="st790" points="567.21,426.59 563.63,426.59 560.6,455.38 564.19,455.38 					"/>
					<polygon class="st302" points="572.02,430.85 568.43,430.85 565.86,455.38 569.44,455.38 					"/>
					<polygon class="st288" points="576.14,441.61 572.56,441.61 571.11,455.38 574.69,455.38 					"/>
					<polygon class="st791" points="582.01,435.78 578.43,435.78 576.37,455.38 579.95,455.38 					"/>
					<polygon class="st790" points="585.78,449.87 582.2,449.87 581.62,455.38 585.2,455.38 					"/>
					<polygon class="st302" points="591.91,441.6 588.33,441.6 586.88,455.38 590.46,455.38 					"/>
					<polygon class="st288" points="597.68,436.7 594.09,436.7 592.13,455.38 595.72,455.38 					"/>
					<polygon class="st791" points="602.49,440.98 598.9,440.98 597.39,455.38 600.97,455.38 					"/>
					<polygon class="st790" points="609.25,426.59 605.67,426.59 602.64,455.38 606.22,455.38 					"/>
					<polygon class="st302" points="614.12,430.26 610.54,430.26 607.9,455.38 611.48,455.38 					"/>
					<polygon class="st288" points="620.12,423.22 616.53,423.22 613.15,455.38 616.74,455.38 					"/>
					<polygon class="st791" points="624.15,434.86 620.57,434.86 618.41,455.38 621.99,455.38 					"/>
					<polygon class="st790" points="630.21,427.2 626.63,427.2 623.66,455.38 627.25,455.38 					"/>
					<polygon class="st302" points="634.92,432.41 631.33,432.41 628.92,455.38 632.5,455.38 					"/>
					<polygon class="st288" points="639.24,441.29 635.65,441.29 634.17,455.38 637.76,455.38 					"/>
					<polygon class="st791" points="643.24,453.23 639.65,453.23 639.43,455.38 643.01,455.38 					"/>
					<polygon class="st790" points="650.84,430.88 647.26,430.88 644.69,455.38 648.26,455.38 					"/>
					<polygon class="st302" points="656.61,425.98 653.03,425.98 649.94,455.38 653.52,455.38 					"/>
				</g>
			</g>
		</g>
	</g>
	<g>
		<polygon class="st787" points="664.2,335.59 571.17,335.59 571.36,334.11 664.38,334.11 		"/>
		<polygon class="st787" points="643.58,338.28 570.85,338.28 571.03,336.81 643.76,336.81 		"/>
		<g>
			<polygon class="st792" points="591.26,374.88 572.22,374.88 572.4,373.41 591.44,373.41 			"/>
			<polygon class="st787" points="584.99,377.57 577.83,377.57 578.01,376.1 585.17,376.1 			"/>
		</g>
		<polygon class="st302" points="615.9,331.98 571.47,331.98 571.77,329.59 616.19,329.59 		"/>
		<polygon class="st787" points="627.53,398.54 564.08,398.54 564.2,397.07 627.66,397.07 		"/>
		<polygon class="st787" points="613.47,401.23 563.85,401.23 563.97,399.76 613.59,399.76 		"/>
		<polygon class="st302" points="608.91,394.94 564.48,394.94 564.77,392.54 609.2,392.54 		"/>
		<g>
			<g>
				<polygon class="st787" points="577.71,346.46 576.91,344.19 573.34,344.19 573.36,343.98 577.07,343.98 577.1,344.04 
					577.92,346.37 				"/>
			</g>
			<g>
				<polygon class="st787" points="577.58,343.06 573.48,343.06 573.59,342.17 577.69,342.17 				"/>
			</g>
			<g>
				<polygon class="st787" points="585.04,354.86 586.39,352.59 589.97,352.59 589.99,352.38 586.28,352.38 586.25,352.44 
					584.86,354.77 				"/>
			</g>
			<g>
				<polygon class="st787" points="586,351.45 590.11,351.45 590.22,350.57 586.11,350.57 				"/>
			</g>
			<g>
				<polygon class="st787" points="593.32,351.03 594.67,348.76 598.25,348.76 598.27,348.55 594.56,348.55 594.53,348.61 
					593.13,350.94 				"/>
			</g>
			<g>
				<polygon class="st787" points="594.28,347.62 598.39,347.62 598.5,346.74 594.39,346.74 				"/>
			</g>
			<polygon class="st793" points="578.39,346.51 580.98,358.54 583.58,370.57 575.44,370.57 567.29,370.57 572.84,358.54 			"/>
			<polygon class="st794" points="584.78,355.65 586.39,363.11 588,370.57 582.95,370.57 577.9,370.57 581.34,363.11 			"/>
			<polygon class="st302" points="593.07,351.74 595.1,361.15 597.13,370.57 590.76,370.57 584.38,370.57 588.73,361.15 			"/>
		</g>
		<g>
			<polygon class="st792" points="624.92,374.88 605.88,374.88 606.06,373.41 625.1,373.41 			"/>
			<polygon class="st787" points="618.65,377.57 611.49,377.57 611.67,376.1 618.83,376.1 			"/>
		</g>
		<g>
			<g>
				<g>
					<polygon class="st787" points="618.45,347.64 617.65,345.37 614.07,345.37 614.1,345.16 617.81,345.16 617.83,345.22 
						618.65,347.55 					"/>
				</g>
				<g>
					<polygon class="st787" points="618.32,344.23 614.21,344.23 614.32,343.35 618.43,343.35 					"/>
				</g>
			</g>
			<g>
				<g>
					<polygon class="st787" points="611.41,354.57 610.61,352.3 607.04,352.3 607.06,352.08 610.77,352.08 610.79,352.14 
						611.61,354.47 					"/>
				</g>
				<g>
					<polygon class="st787" points="611.28,351.16 607.17,351.16 607.28,350.27 611.39,350.27 					"/>
				</g>
			</g>
			<g>
				<g>
					<polygon class="st787" points="626.11,350.88 627.47,348.61 631.04,348.61 631.07,348.4 627.36,348.4 627.32,348.46 
						625.93,350.79 					"/>
				</g>
				<g>
					<polygon class="st787" points="627.08,347.48 631.18,347.48 631.29,346.59 627.18,346.59 					"/>
				</g>
			</g>
			<polygon class="st793" points="611.96,355.65 613.57,363.11 615.17,370.57 610.13,370.57 605.08,370.57 608.52,363.11 			"/>
			<polygon class="st794" points="618.74,348.15 621.16,359.36 623.57,370.57 615.99,370.57 608.4,370.57 613.57,359.36 			"/>
			<polygon class="st302" points="625.55,351.74 627.58,361.15 629.61,370.57 623.24,370.57 616.87,370.57 621.21,361.15 			"/>
		</g>
		<g>
			<polygon class="st792" points="657.7,374.88 638.66,374.88 638.84,373.41 657.88,373.41 			"/>
			<polygon class="st787" points="651.43,377.57 644.27,377.57 644.45,376.1 651.61,376.1 			"/>
		</g>
		<g>
			<g>
				<g>
					<polygon class="st787" points="642.33,363.11 641.53,360.84 637.96,360.84 637.98,360.63 641.69,360.63 641.71,360.69 
						642.53,363.02 					"/>
				</g>
				<g>
					<polygon class="st787" points="642.2,359.7 638.1,359.7 638.2,358.82 642.31,358.82 					"/>
				</g>
			</g>
			<g>
				<g>
					<polygon class="st787" points="656.41,354.86 657.77,352.59 661.35,352.59 661.37,352.38 657.66,352.38 657.62,352.44 
						656.23,354.77 					"/>
				</g>
				<g>
					<polygon class="st787" points="657.38,351.45 661.49,351.45 661.6,350.57 657.49,350.57 					"/>
				</g>
			</g>
			<g>
				<g>
					<polygon class="st787" points="652.17,348.67 653.52,346.4 657.1,346.4 657.12,346.19 653.41,346.19 653.38,346.25 
						651.98,348.58 					"/>
				</g>
				<g>
					<polygon class="st787" points="653.13,345.27 657.24,345.27 657.34,344.38 653.24,344.38 					"/>
				</g>
			</g>
			<polygon class="st793" points="642.67,363.81 643.4,367.19 644.13,370.57 641.84,370.57 639.56,370.57 641.11,367.19 			"/>
			<polygon class="st794" points="651.73,349.46 654.01,360.01 656.28,370.57 649.14,370.57 642,370.57 646.86,360.01 			"/>
			<polygon class="st302" points="656.23,355.65 657.84,363.11 659.45,370.57 654.4,370.57 649.35,370.57 652.79,363.11 			"/>
		</g>
	</g>
</g>
<g>
	<path class="st104" d="M393.74,255.52c0,50.54-40.97,91.54-91.54,91.54c-50.56,0-91.52-41-91.52-91.54
		c0-50.53,40.97-91.51,91.52-91.51C352.77,164,393.74,204.99,393.74,255.52z"/>
	<path class="st251" d="M390.94,255.52c0,49-39.73,88.76-88.74,88.76c-49.01,0-88.74-39.76-88.74-88.76
		c0-49.01,39.73-88.72,88.74-88.72C351.22,166.8,390.94,206.51,390.94,255.52z"/>
	<path class="st104" d="M372.08,255.52c0,38.61-31.27,69.87-69.88,69.87c-38.59,0-69.88-31.26-69.88-69.87
		c0-38.58,31.29-69.87,69.88-69.87C340.81,185.65,372.08,216.94,372.08,255.52z"/>
	<g>
		<path class="st251" d="M297.28,296.55c-4.61-0.43-8.86-1.55-12.68-3.44c-3.83-1.85-7.09-4.23-9.89-7.1l3.06-4.71
			c0.28-0.43,0.68-0.78,1.16-1.02c0.5-0.3,1.02-0.43,1.56-0.43c0.72,0,1.54,0.39,2.45,1.09c0.94,0.75,2.07,1.57,3.42,2.51
			c1.34,0.91,2.94,1.86,4.81,2.76c1.86,0.85,4.1,1.46,6.7,1.75l2.13-30.59c-2.66-0.78-5.32-1.69-7.9-2.74
			c-2.61-0.99-4.94-2.33-7-3.95c-2.04-1.63-3.69-3.7-4.93-6.19c-1.24-2.45-1.89-5.58-1.89-9.34c0-2.79,0.57-5.53,1.65-8.22
			c1.11-2.65,2.69-5.05,4.79-7.11c2.07-2.09,4.65-3.8,7.75-5.1c3.05-1.34,6.6-2.03,10.58-2.03l0.57-8.4
			c0.09-0.72,0.37-1.36,0.87-1.94c0.5-0.57,1.17-0.86,2.01-0.86h3.8l-0.78,11.39c4.01,0.5,7.49,1.53,10.4,3.1
			c2.92,1.59,5.54,3.5,7.85,5.71l-2.48,3.78c-0.77,1.19-1.67,1.75-2.66,1.75c-0.54,0-1.18-0.24-1.98-0.73
			c-0.78-0.47-1.73-1.03-2.87-1.66c-1.08-0.63-2.39-1.26-3.83-1.89c-1.46-0.61-3.14-1.1-5.01-1.36l-1.92,27.86
			c2.77,0.85,5.48,1.78,8.19,2.79c2.67,0.97,5.11,2.28,7.24,3.86c2.14,1.59,3.91,3.54,5.21,5.94c1.36,2.36,2.01,5.32,2.01,8.85
			c0,3.47-0.57,6.72-1.72,9.77c-1.17,3.07-2.85,5.73-5.03,8.04c-2.22,2.3-4.93,4.18-8.11,5.63c-3.23,1.45-6.87,2.17-10.98,2.17
			l-0.68,10.29c-0.07,0.74-0.37,1.39-0.92,1.95c-0.52,0.53-1.18,0.83-1.97,0.83h-3.81L297.28,296.55z M287.97,234.2
			c0,1.85,0.34,3.46,0.99,4.81c0.64,1.38,1.53,2.55,2.7,3.59c1.16,1.05,2.48,1.95,4.02,2.72c1.54,0.76,3.22,1.47,4.99,2.08
			l1.76-25.96c-2.5,0.2-4.65,0.71-6.51,1.47c-1.78,0.77-3.32,1.72-4.49,2.87c-1.15,1.15-2.05,2.48-2.61,3.88
			C288.26,231.12,287.97,232.63,287.97,234.2z M319.92,272.43c0-1.9-0.34-3.55-1.06-4.92c-0.74-1.41-1.68-2.61-2.91-3.58
			c-1.24-1-2.65-1.87-4.33-2.6c-1.64-0.72-3.4-1.4-5.28-2.03l-1.96,28.68c2.5-0.2,4.7-0.77,6.64-1.64c1.95-0.84,3.58-1.97,4.89-3.31
			c1.34-1.33,2.33-2.91,3.01-4.7C319.6,276.55,319.92,274.6,319.92,272.43z"/>
	</g>
</g>
<g>
	<path class="st125" d="M344.48,483.33l6.41-25.51l-12.93-6.37c0.02-3.74-0.21-7.51-0.7-11.29l12.7-6.75l-7.2-25.29l-15.9,1.06
		c-1.66-2.91-3.48-5.7-5.46-8.36l8.36-13.37l-18.88-18.3l-14.13,9.45c-2.6-1.55-5.3-2.95-8.05-4.21l0.58-16.64l-25.49-6.41
		l-7.62,15.48c-2.95-0.08-5.93-0.01-8.93,0.23l-7.86-14.79l-25.29,7.2l1.11,16.71c-2.82,1.46-5.54,3.07-8.15,4.81l-13.63-8.52
		l-18.3,18.88l8.68,12.95c-1.96,2.94-3.73,6-5.31,9.16l-14.77-0.52l-6.41,25.5l12.58,6.19c-0.3,3.97-0.31,7.99-0.03,12.03
		l-11.62,6.17l7.2,25.29l12.49-0.82c1.95,4.07,4.19,7.94,6.71,11.57l-6.21,9.92l18.88,18.3l9.51-6.37
		c3.95,2.66,8.13,4.97,12.47,6.93l-0.38,10.83l25.5,6.42l4.9-9.95c4.77,0.26,9.6,0.1,14.46-0.48l5.05,9.51l25.29-7.19l-0.77-11.58
		c4.14-2.2,8.05-4.72,11.71-7.52l9.74,6.09l18.3-18.88l-7.14-10.67c2.19-3.64,4.1-7.44,5.72-11.37L344.48,483.33z M263.69,485.62
		c-19.15,5.46-39.1-5.65-44.55-24.8c-5.45-19.16,5.66-39.1,24.8-44.55c19.15-5.46,39.1,5.65,44.55,24.81
		C293.95,460.22,282.84,480.17,263.69,485.62z"/>
	<path class="st305" d="M238.56,397.34c-29.61,8.43-46.78,39.26-38.35,68.87c8.43,29.61,39.27,46.77,68.87,38.34
		c29.61-8.43,46.77-39.26,38.34-68.87C298.99,406.07,268.16,388.91,238.56,397.34z M265.92,493.43
		c-23.46,6.68-47.9-6.92-54.58-30.39c-6.69-23.46,6.92-47.9,30.38-54.58c23.47-6.68,47.9,6.93,54.58,30.4
		C302.98,462.32,289.37,486.75,265.92,493.43z"/>
</g>
<g>
	<path class="st104" d="M1105.54,535.67l10.01-39.77l-20.16-9.93c0.03-5.84-0.32-11.72-1.09-17.62l19.81-10.53l-11.23-39.45
		l-24.8,1.65c-2.6-4.54-5.44-8.89-8.51-13.04l13.04-20.85l-29.45-28.55l-22.03,14.74c-4.07-2.41-8.27-4.61-12.58-6.57l0.91-25.96
		l-39.77-10.01l-11.89,24.16c-4.61-0.13-9.26-0.01-13.92,0.36l-12.26-23.08l-39.45,11.23l1.73,26.07c-4.41,2.27-8.66,4.78-12.73,7.5
		l-21.25-13.29l-28.55,29.45l13.53,20.21c-3.05,4.59-5.82,9.36-8.28,14.29l-23.03-0.81l-10,39.77l19.63,9.66
		c-0.47,6.2-0.49,12.47-0.05,18.78l-18.13,9.64l11.22,39.44l19.49-1.29c3.04,6.36,6.54,12.39,10.47,18.06l-9.68,15.49l29.45,28.55
		l14.84-9.94c6.16,4.14,12.67,7.76,19.44,10.81l-0.6,16.91l39.77,9.99l7.63-15.5c7.44,0.4,14.99,0.16,22.56-0.75l7.87,14.8
		l39.45-11.22l-1.19-18.04c6.46-3.43,12.57-7.36,18.26-11.73l15.18,9.49l28.55-29.44l-11.14-16.64c3.41-5.68,6.4-11.62,8.92-17.76
		L1105.54,535.67z M982.98,551.44c-36.59,10.42-74.71-10.8-85.13-47.39c-10.42-36.61,10.8-74.72,47.4-85.14
		c36.59-10.42,74.72,10.8,85.14,47.41C1040.81,502.91,1019.58,541.02,982.98,551.44z"/>
	<path class="st251" d="M937.02,389.99c-52.57,14.97-83.06,69.72-68.09,122.29c14.96,52.57,69.72,83.05,122.29,68.08
		c52.56-14.97,83.05-69.71,68.08-122.28C1044.33,405.51,989.59,375.02,937.02,389.99z M985.59,560.6
		c-41.65,11.87-85.04-12.29-96.9-53.94c-11.86-41.67,12.29-85.05,53.95-96.91c41.65-11.87,85.05,12.29,96.91,53.96
		C1051.41,505.36,1027.25,548.74,985.59,560.6z"/>
</g>
<path class="st125" d="M677.04,208.24c24.44-12.96,48.88-14.2,70.65-8.47c21.77,5.72,30.1,11.06,27.01,37.04
	c-3.08,25.98-11.71,40.77-24.04,40.28c-35.2-1.39-44.11-2.19-62.6-0.64l5.9,13.46l-14.89-12.74c-18.51,0.69-21.31-7.79-22.48-14.47
	C656.6,262.69,652.61,221.2,677.04,208.24z"/>
<g>
	<path class="st251" d="M427.83,299.55c23.38,0.6,73.3-0.02,90.3-4.78c17.19-4.88,18.82-65.69,10.71-74.93
		c-8.28-9.13-37.67-11.85-52.44-12.61c-36.82-1.89-70.98,0.58-72.63,28.43C402.05,264.56,402.53,298.89,427.83,299.55z"/>
	<path class="st251" d="M493.95,292.07c0,0-0.92,12.86-18.37,20.21c0,0,9.05-17.87,0.92-26.64
		C471.62,280.38,493.95,292.07,493.95,292.07z"/>
	<rect x="440.14" y="237.3" class="st60" width="59.07" height="4.54"/>
	<rect x="440.14" y="248.66" class="st60" width="59.07" height="4.54"/>
	<rect x="440.14" y="260.02" class="st60" width="59.07" height="4.54"/>
</g>
<g>
	<g>
		<path class="st116" d="M458.33,308.42l-3.01-21.13c-3.86-4.09-8.83-6.28-13.88-5.56c-9.75,1.39-16.15,13.05-14.3,26.06
			c1.85,13,11.25,22.42,21,21.03c6.82-0.97,12-6.98,13.86-14.95C460.05,312.67,458.66,310.74,458.33,308.42z"/>
		<path class="st116" d="M419.61,320.53c-0.38,3.38,3.17,6.54,7.93,7.08l10.85,1.23c4.76,0.53,8.93-1.77,9.3-5.15l3.46-30.78
			c0.38-3.37-3.17-6.54-7.93-7.08l-10.85-1.22c-4.76-0.54-8.92,1.77-9.3,5.14L419.61,320.53z"/>
		<path class="st121" d="M447.88,333.81c6.43,2.8,9.65,1.94,4.73,4c-2.37,2.89-32.58-1.21-34.22-4.96c-0.27-0.63,12-2.4,12.07-2.87
			c0.77-5.44,1.07-10.04-0.43-16.12c0.06-0.47,0.43-0.85,0.81-0.84c2.29,0.07,4.6,0.09,6.9,0.17c0.38,0.02,4.88,1.02,3.88,3.18
			C441.1,322.29,441.08,330.85,447.88,333.81z"/>
		<path class="st121" d="M449.97,315.99c0.1-0.21,0.2-0.44,0.31-0.65c0.03-0.07,0.06-0.13,0.09-0.2c0.12-0.27,0.24-0.55,0.35-0.84
			c0.03-0.08,0.06-0.15,0.09-0.23c0.08-0.22,0.16-0.43,0.24-0.66c0.04-0.12,0.09-0.24,0.13-0.37c0.06-0.19,0.12-0.38,0.18-0.57
			c0.04-0.13,0.08-0.26,0.12-0.39c0.07-0.25,0.14-0.51,0.21-0.76c0.04-0.19,0.1-0.38,0.14-0.58c0.04-0.17,0.09-0.36,0.13-0.53
			c0.04-0.18,0.07-0.36,0.11-0.54c0.03-0.15,0.06-0.31,0.09-0.47c0.03-0.13,0.05-0.25,0.08-0.38c0-0.01,0-0.01,0-0.01
			c0.38-2.19-0.34-12.51-2.07-17.44c-0.21-0.6-0.84-1.06-1.73-0.98c-5.31,0.58-21.49-0.2-17.34,14.55v0.01
			c0.01,0.04,0.24,1.3,0.36,1.89c0.01,0.05,0.02,0.1,0.03,0.15c0.13,0.58,0.27,1.16,0.42,1.72c0.01,0.04,0.02,0.08,0.03,0.11
			c0.16,0.57,0.32,1.13,0.51,1.67c0.01,0.02,0.01,0.04,0.02,0.06c2.3,6.96,6.34,11.55,10.64,11.27c2.51-0.17,4.71-1.97,6.37-4.88
			c0,0,0,0,0,0c0.02-0.03,0.03-0.05,0.04-0.07c0.13-0.22,0.25-0.45,0.37-0.68C449.9,316.12,449.94,316.05,449.97,315.99z"/>
		<path class="st257" d="M509.36,331.36c0,0,1.12,0.54,1.6-0.32c0.77-1.42,1.05-4.64,1.1-5.79c0.06-1.28-0.69-7.37-0.69-7.37
			s-1.25,1.92-0.95,4.36C510.84,325.83,509.36,331.36,509.36,331.36z"/>
		<path class="st257" d="M509.47,330.53c1.02-2.08,0.49-4.7-0.88-7.65c-1.3-2.79-0.36-4.53-0.36-4.53s1.03,1.71,2.59,6.25
			c0.44,1.27,0.84,2.69,0.78,4.02C511.46,332.65,506.83,335.87,509.47,330.53z"/>
		<path class="st121" d="M453.75,632.29c0,0-2.39-1.08-9.01-2.46c-3.88-0.8-6.83-0.83-8.21-2.32c-2.26-2.45-0.65-10.02-1.79-9.78
			c-5.52,1.17-7.81,14.2-4.64,15.86c3.18,1.66,21.31,1.41,22.8,1.32C454.4,634.82,454.22,631.95,453.75,632.29z"/>
		<path class="st257" d="M430.91,449.32c-7.09-1.32-14.02-1.59-20.51-1.05c0.99,8.92,2.41,18.68,4.22,29.18
			c7.27-8.85,22.67-5.23,26.34-1.29c0.85-5.98,1.5-12.18,1.92-18.58c0.12-1.84,0.19-3.67,0.23-5.48
			C439.18,451.03,435.11,450.09,430.91,449.32z"/>
		<path class="st257" d="M388.09,386.23c-10.93,8.92-58.11,21.19-58.11,21.19s-10.17-2.56,49.6-27.54
			C382.56,378.64,390.79,384.03,388.09,386.23z"/>
		<g>
			<path class="st257" d="M327.13,409.77c0,0-3.77,1.41-4.91,3.07c-0.79,1.16-3.61,7.24-3.61,7.24s2.25-1.06,3.39-3.49
				C323.66,413.02,327.13,409.77,327.13,409.77z"/>
			<path class="st257" d="M323.95,413.07c-2.45,0.64-4.23,2.96-5.68,6.19c-1.37,3.06-3.49,3.54-3.49,3.54s0.67-2.07,3.3-6.61
				c0.74-1.27,1.55-2.54,2.37-3.74C323.16,408.48,330.24,411.43,323.95,413.07z"/>
			<path class="st257" d="M330.86,408.21c-0.41,1.72-3.13,3.69-3.05,4.79c0.23,3.2,1.32,4.86,1.28,4.86
				c-3.7-0.44-3.62-5.73-5.03-7.54C322.66,408.53,331.92,403.74,330.86,408.21z"/>
			<path class="st257" d="M349.77,399.43c-6.43,1.65-13.85,3.4-16.93,5.72c-4.39,3.31-5.2,6.95-8.89,7.91
				c-0.4,0.11-0.78,0.3-1.17,0.45c-1.04,0.42-2.27,0.7-2.69,0.93c-0.46,0.26-1.67,1.14-1.33,0.59c3.04-4.85,6.93-9.98,8.15-10.64
				c2.5-1.36,16.68-8.25,22.47-9.73C355.91,393.01,358.46,397.2,349.77,399.43z"/>
			<path class="st257" d="M323.84,412.52c0,0-0.36-1.32-1.41-1.1c-1.71,0.37-4.57,2.44-5.56,3.23c-1.09,0.87-5.59,5.84-5.59,5.84
				s2.47-0.34,4.28-2.33C318.21,415.25,323.84,412.52,323.84,412.52z"/>
			<path class="st257" d="M358.33,390.09c4.23,1.71,16.55-1.61,16.58,0.78c-11.31,6.76-45.64,12.35-45.64,12.35L358.33,390.09z"/>
		</g>
		<path class="st121" d="M466.17,356.02c5.88,4.34,11.08,19.61,15.12,29.29c2.28,5.45,1.44,9.57,1.44,9.57s-1.99,12.78-17.22-22.05
			C461.7,364.1,463.97,354.39,466.17,356.02z"/>
		<path class="st121" d="M477.9,394.3c0.08-12.87,23.11-46.77,23.11-46.77s12.1-10.22-9.99,39.6
			C484.39,402.09,477.87,397.47,477.9,394.3z"/>
		<path class="st121" d="M509.43,327.99l0.99,0.63l0.66,3.94c0,0-1.78,6.97-3.39,9.37c-1.62,2.39-4.06,13.16-4.71,14.36
			c-0.66,1.2-7.02,1.13-7.02,1.13s5.11-10.22,6.79-14.45c1.68-4.22,2-11.07,2.6-12.76c1.02-2.87,1.38-4.38,1.38-4.38
			s1.46,0.76,0.12,5.35c-0.35,1.21,1.19,0.96,1.19,0.96L509.43,327.99z"/>
		<path class="st121" d="M453.75,491.24c-2.54-1.36-7.27,1.8-10.62,8.19c-6.58,12.53-8.87,29.82-10.39,51.22
			c-1.59,22.63-1.93,39.53-1.86,53.49c0.07,13.8-6.08,32.95,4.35,31.31c-0.89-18.99,2.76-47.03,8.59-61.66
			C463.72,523.83,461.56,495.41,453.75,491.24z"/>
		<path class="st257" d="M418.12,641.88c0,0-1.76-1.15-6.97-3.19c-3.05-1.2-5.49-1.69-6.32-2.96c-1.36-2.1-0.52-8.11-1.51-8.12
			c-4.83-0.07-6.58,10.74-5.48,12.47c1.45,2.27,17.76,3.34,19.02,3.51C418.12,643.77,418.58,641.71,418.12,641.88z"/>
		<path class="st257" d="M426.19,532.21c-2.23-0.86,0.27-8.68-4.14-3.53c-7.19,8.39-13.64,27.46-14.97,37.79
			c-2.1,16.37-5.83,42.38-6.81,53.45c-0.89,9.97-5.75,21.79,3.11,20.08c0.01-14.04,5.91-34.35,10.33-45.22
			C428.78,557.68,433.02,534.83,426.19,532.21z"/>
		<path class="st293" d="M418.11,641.84c-2.65,3.06-13.1-1.24-16.06-1.95c-5.19-1.25-4.64-3.08-4.66-3.01
			c-0.54,1.67-1.26,3.99,1.59,5.25c2.6,1.15,5.82,1.4,8.39,2.28c2.71,0.94,17.99,4.69,19.06,2.9
			C427.85,644.93,418.16,641.78,418.11,641.84z"/>
		<path class="st257" d="M438.29,424.29c-3.84-0.98-4.12,1.9-7.43,9.02c-6.48,13.96-11.04,34.78-10.66,57.12
			c0.45,26.17,4.12,49.1,9.47,63.61c5.95-10.19,10.04-16,14.53-38.74C454.14,464.92,450.1,427.32,438.29,424.29z"/>
		<path class="st257" d="M430.99,520.88c-2.02-1.02-6.05,3.39-9.08,7.71c-5.94,8.46-8.48,19.03-11.87,33.62
			c-3.97,17.1-5.58,32.39-4.88,42.36c4.69-7.41,8.66-17.01,14.13-26.93C452.3,517.68,437.22,523.99,430.99,520.88z"/>
		<path class="st121" d="M439.33,421.11c-3.83-0.81-4,1.82-6.99,8.39c-5.88,12.87-9.59,31.95-8.37,52.31
			c1.14,19.04,4.23,36.15,8.4,48.95c1.06,3.23,5.31,3.34,6.15,0.41c2.64-9.24,4.43-19.69,6.05-30.98
			C451.24,453.95,451.11,423.61,439.33,421.11z"/>
		<polygon class="st293" points="455.16,378.05 414.83,377.71 409.89,331.58 457.76,336.12 		"/>
		<path class="st293" d="M405.8,516.76c22.8-3.35,45.6-6.7,68.4-10.04c2.6,0.04-14.66-42.01-18.95-129.18
			c-13.56-0.25-27.11-0.5-40.67-0.75C417.7,393.89,383.49,424.65,405.8,516.76z"/>
		<path class="st293" d="M388.7,385.27l22.76-33.92l5.85-15.28c-0.44-1.27-1.25-2.36-2.38-3.1l-0.77-0.5
			c-2.99-1.92-7.14-0.63-9.28,2.9l-26.07,42.98L388.7,385.27z"/>
		<path class="st293" d="M471.25,389.31l-13.88-29.53l-5.58-20.63c0.72-1.02,1.74-1.86,3.01-2.33l0.86-0.33
			c3.32-1.25,7.02,0.44,8.27,3.76l16.7,40.68L471.25,389.31z"/>
		<path class="st121" d="M435.34,624.2c0.01,0.13,0.12,0.23,0.24,0.22l0.46-0.02c0.13-0.01,0.22-0.12,0.22-0.25l0,0
			c-0.01-0.12-0.12-0.23-0.24-0.22l-0.46,0.02C435.44,623.96,435.34,624.07,435.34,624.2L435.34,624.2z"/>
		<path class="st293" d="M450,631.05c0.95,4.35-12.32,2.37-15.73,1.18c-3.27-1.14-5.36-1.51-5.36-1.51
			c-0.14-0.01-0.27-0.03-0.41-0.03c-0.01,0.11-0.05,0.21-0.06,0.31c-0.04,2.38-1.14,5.52,2.66,5.59l23.84,0.42
			C474.43,637.36,449.98,630.95,450,631.05z"/>
		<path class="st121" d="M509.72,332.98c0,0,1.11-3.51,0.55-5.27c-0.4-1.22-3.19-6.68-3.19-6.68s-0.51,2.22,0.61,4.42
			C509.32,328.66,509.72,332.98,509.72,332.98z"/>
		<path class="st257" d="M508.03,332.14c0,0-1.02,0.24-1.36-0.08c-0.01,0.34,0.07,0.7,0.1,0.96c0.06,0.61-0.27,4.74-0.27,4.74
			s0.81-2.93,1.24-3.73c0.27-0.5,0.55-1.74,0.8-2.77c0.03-0.13-0.02-0.35-0.01-0.59L508.03,332.14z"/>
		<path class="st257" d="M506.83,331.18c0.9-3.09,0.54-4.44,0.2-5c-0.2,0.73-0.56,1.9-1.14,3.52c-0.21,0.58-0.38,1.79-0.59,3.3
			c-0.04,0.29,1.05,0.56,1.47,3.05c0.08,0.45,0.9-2.25,1.04-3.89C507.41,332.17,506.56,332.11,506.83,331.18z"/>
		<path class="st116" d="M440,311.77c-1.95-1.2-3.34-3.13-3.67-5.45l-3.01-21.13c-0.18-0.19-0.38-0.36-0.57-0.55l-0.37-0.04
			c-4.76-0.54-8.92,1.77-9.3,5.14l-3.46,30.79c-0.29,2.6,1.77,5.07,4.91,6.31c0.54-0.01,1.08-0.04,1.63-0.12
			C432.96,325.75,438.13,319.74,440,311.77z"/>
	</g>
</g>
<g>
	<g>
		<path class="st304" d="M340.57,383.06h-7.25v3.72C334.94,384.53,337.58,383.06,340.57,383.06z"/>
		<path class="st304" d="M342.7,383.06v10.24c0,4.95-4.01,8.96-8.96,8.96h-0.42v15.78h31.99v-34.98H342.7z"/>
	</g>
	<g>
		<g>
			<path class="st767" d="M318.15,572.66c-2.43,0-6.27-0.56-9.63-3.48c-4.84-4.2-6.94-11.69-6.23-22.24
				c0.48-7.12,3.28-14.34,6.25-21.96c4.99-12.85,10.66-27.4,7.69-46.65l5.5-0.85c3.18,20.72-3.02,36.68-8.01,49.51
				c-2.93,7.54-5.46,14.05-5.88,20.32c-0.57,8.55,0.91,14.65,4.28,17.63c3.19,2.82,7.19,2.1,7.36,2.07l1.11,5.45
				C320.49,572.47,319.55,572.66,318.15,572.66z"/>
		</g>
		<g>
			<path class="st767" d="M356.64,572.66c-2.43,0-6.26-0.56-9.63-3.48c-4.84-4.2-6.93-11.69-6.23-22.24
				c0.47-7.12,3.28-14.34,6.25-21.96c4.99-12.85,10.66-27.4,7.69-46.65l5.5-0.85c3.19,20.72-3.02,36.68-8,49.51
				c-2.93,7.54-5.46,14.05-5.88,20.32c-0.57,8.55,0.91,14.65,4.28,17.63c3.19,2.82,7.19,2.1,7.36,2.07l1.11,5.45
				C358.98,572.47,358.05,572.66,356.64,572.66z"/>
		</g>
		<g>
			<g>
				<path class="st795" d="M360.81,616.8l5.42,8.26l-45.51,14.58c0,0-3.04-2.91,8.13-8.74C341.85,624.09,360.81,616.8,360.81,616.8z
					"/>
				<path class="st795" d="M368.89,616.8l-5.41,8.26l45.51,14.58c0,0,3.04-2.91-8.13-8.74C387.85,624.09,368.89,616.8,368.89,616.8z
					"/>
			</g>
			<rect x="360.09" y="592.22" class="st795" width="9.51" height="33.86"/>
			<g>
				<path class="st796" d="M360.2,618.54l4.64,7.88l-38.96,13.91c0,0-2.6-2.78,6.96-8.35C343.97,625.5,360.2,618.54,360.2,618.54z"
					/>
				<path class="st796" d="M369.5,618.54l-4.64,7.88l38.96,13.91c0,0,2.6-2.78-6.96-8.35C385.73,625.5,369.5,618.54,369.5,618.54z"
					/>
			</g>
			<path class="st256" d="M330.29,643.47c0,1.82-1.48,3.31-3.3,3.31c-1.82,0-3.3-1.48-3.3-3.31c0-1.82,1.48-3.31,3.3-3.31
				C328.81,640.16,330.29,641.65,330.29,643.47z"/>
			<circle class="st256" cx="402.47" cy="643.47" r="3.3"/>
			<path class="st767" d="M322.29,643.47c0,1.82-1.48,3.31-3.31,3.31c-1.82,0-3.3-1.48-3.3-3.31c0-1.82,1.48-3.31,3.3-3.31
				C320.81,640.16,322.29,641.65,322.29,643.47z"/>
			<path class="st767" d="M413.77,643.47c0,1.82-1.48,3.31-3.3,3.31c-1.82,0-3.31-1.48-3.31-3.31c0-1.82,1.48-3.31,3.31-3.31
				C412.29,640.16,413.77,641.65,413.77,643.47z"/>
		</g>
		<rect x="361.25" y="579.81" class="st767" width="6.96" height="12.17"/>
		<path class="st767" d="M373.42,573.38c0,3.74-3.04,6.78-6.79,6.78h-3.82c-3.75,0-6.79-3.04-6.79-6.78l0,0
			c0-3.75,3.04-6.79,6.79-6.79h3.82C370.38,566.59,373.42,569.63,373.42,573.38L373.42,573.38z"/>
		<path class="st250" d="M416.42,567.18c0.17-0.8,0.27-5.8,0.27-6.67c0-5.47-3.54-9.91-7.91-9.91h-88.11
			c-4.37,0-7.91,4.44-7.91,9.91c0,0.87,0.1,5.87,0.26,6.67H416.42z"/>
		<path class="st767" d="M311.95,569.86c0,1.67,0.98,3.04,2.19,3.04h101.17c1.21,0,2.19-1.36,2.19-3.04l0,0
			c0-1.68-0.98-3.03-2.19-3.03H314.14C312.93,566.83,311.95,568.19,311.95,569.86L311.95,569.86z"/>
		<g>
			<path class="st250" d="M316.88,516.3c2.17,0.17,15.98,0.41,18.37,0.44c15.12,0.18,28.14-2.66,28.86-6.38
				c2.99-15.47,3.12-31.34,0.39-46.82c-0.64-3.72-13.86-6.56-29.3-6.37c-2.43,0.03-16.52,0.27-18.74,0.44
				C321.2,476.89,321.34,497,316.88,516.3z"/>
			<path class="st767" d="M314.81,457.6c-1.69,0.02-2.87,0.82-2.64,1.79c4.21,18.15,4.37,36.97,0.47,55.12
				c-0.21,0.97,0.95,1.78,2.61,1.8l0,0c1.66,0.02,3.19-0.75,3.4-1.73c3.94-18.2,3.82-37.07-0.36-55.26
				C318.06,458.35,316.5,457.58,314.81,457.6L314.81,457.6z"/>
			<path class="st797" d="M315.17,515.93c0.45,0.14,3.44,0.25,3.97,0.26c3.29,0.04,6.68-2.86,7.34-6.53
				c2.74-15.24,2.67-30.87-0.21-46.11c-0.68-3.66-4.16-6.56-7.52-6.52c-0.54,0.01-3.58,0.12-4.04,0.27
				C319.46,476.56,319.61,496.65,315.17,515.93z"/>
		</g>
	</g>
	<g>
		<path class="st778" d="M360.23,405.4c0,0-12.53,4.47-0.5,40.4c12.04,35.92,20.05,31.57,20.05,31.57l9.95-0.96l19.08-22.63
			l-10.27-8.98l-2.08,0.82c0,0-2.65-1.1-2.96-3.57c-0.31-2.47-5.12-12.81-8.76-33.91C383.06,398.41,362.64,404.52,360.23,405.4z"/>
		<path class="st121" d="M406.09,454.21c0,0,24.74,12.64,40.32-11.82c4.63-7.27,2.65,1.1,0.12,9.05
			c-2.53,7.96-17.9,25.97-35.38,27.18c-17.47,1.21-24.14,0.23-27.41-5.81C380.47,466.77,406.09,454.21,406.09,454.21z"/>
		<path class="st777" d="M384.85,448.47l6.27-4.06l2.6-1.48c0.72,1.86,2.74,2.7,2.74,2.7l-5.23,2.15l-5.7,3.67l-5.89,7.08
			L384.85,448.47z"/>
		<path class="st778" d="M383.37,508.6l-46.84-1.01l-19.47-65.2c0,0-8.91-39.28,7.74-39.93c24.19-0.95,55.94-0.51,55.94-0.51
			S397.05,416.1,383.37,508.6z"/>
		<path class="st777" d="M366.55,505.08c1.84,0.27,3.67,0.54,5.51,0.81c3-34.26-0.18-69.02-9.34-102.13c-1.5,0.5-2.99,0.99-4.5,1.49
			C366.91,437.7,369.75,471.67,366.55,505.08z"/>
		<path class="st116" d="M460.49,647.06c0,0-4.55,7.03-6.88,2.72c-6.98-12.92-13.28-53.71-13.67-70.45
			c-0.53-22.32-1.55-35.93-1.55-35.93l22.46-8.14L460.49,647.06z"/>
		<path class="st116" d="M381.71,508.13l79.24,27.13l-20.78,11.6c0,0-81.72,14.33-83.18-16
			C355.76,505.34,381.71,508.13,381.71,508.13z"/>
		<path class="st123" d="M432.33,647.69c0,0-4.11,3.76-6.43-0.55c-6.98-12.92-18.44-47.25-18.83-63.99
			c-0.53-22.32,3.16-37.85,3.16-37.85l22.95-7.97L432.33,647.69z"/>
		<path class="st123" d="M357.14,509l75.55,28.51L412,548.77c0,0-76.68,14.33-78.16-15.99C332.36,502.45,357.14,509,357.14,509z"/>
		<path class="st123" d="M332.5,534.48c-0.19,2.09,1.03,9.07,3.35,11.87c7.15,8.64,24.09,5.74,37.6,5.74
			c0.74,0,4.51-10.54,4.51-10.54l5.64-34.47l-47.37,0.81C336.23,507.89,334.14,517.08,332.5,534.48z"/>
		<path class="st121" d="M409.45,487.01l17.34-3.11c0,0,2.7-0.29,2.82,1.58c0.16,2.46-0.28,10.5-0.28,10.5l-3.11-1.92l-4.47,2.73
			l-5.18-6.86c0,0-2.68,0.51-4.91-0.05C410.92,489.68,409.45,487.01,409.45,487.01z"/>
		<path class="st121" d="M366.9,482.09l45.92,5.1c0,0-24.63,12.58-35.91,12.66c-11.28,0.09-21.85-2.51-21.85-2.51L366.9,482.09z"/>
		<path class="st777" d="M344.25,434.49l22.94,43.41l-1.31,3.52l3.53,0.66l-10.71,17.05l-16.81-3.83l-30.25-59.91
			c0,0-6.37-18.09,8.07-31.9C326.91,396.59,342.22,431.01,344.25,434.49z"/>
		<path class="st778" d="M350.08,492.72c0,0,10.86-8.3,16.38-12.83l-0.57,1.54l3.53,0.65l-3.75,5.87l-6.51,7.57l-3.73-1.36
			l1.41-2.66L350.08,492.72z"/>
		<g>
			<g>
				<path class="st116" d="M364.54,372.15c0,3.13-2.54,5.68-5.68,5.68h-21.44c-3.13,0-5.67-2.54-5.67-5.68l0,0
					c0-3.13,2.54-5.68,5.67-5.68h21.44C362,366.47,364.54,369.01,364.54,372.15L364.54,372.15z"/>
				<path class="st116" d="M360.6,381.99c0,5.79-4.69,10.49-10.49,10.49h-11.19c-5.79,0-10.49-4.7-10.49-10.49l0,0
					c0-5.79,4.7-10.49,10.49-10.49h11.19C355.91,371.5,360.6,376.2,360.6,381.99L360.6,381.99z"/>
				<path class="st121" d="M369.03,398.78v-32.79c0-5.22-4.24,0-9.46,0h-5.04c-5.23,0-9.46,4.24-9.46,9.46v23.34H369.03z"/>
				<path class="st121" d="M349.24,382.77c0,2.3-1.86,4.16-4.15,4.16l0,0c-2.3,0-4.15-1.86-4.15-4.16l0,0
					c0-2.29,1.86-4.15,4.15-4.15l0,0C347.38,378.61,349.24,380.48,349.24,382.77L349.24,382.77z"/>
				<path class="st121" d="M366.29,388.51c0,1.33,1.04,2.41,2.33,2.41h1.94c1.29,0,2.33-1.08,2.33-2.41c0,0-4.25-12.45-5.54-12.45
					c0,0-1.05,1.08-1.05,2.41V388.51z"/>
				<path class="st116" d="M355.78,396.99c-9.46,0-10.44-2.9-10.72-6.22c0,0-2.52,8.3-2.52,10.98v2.98
					c0,5.76,5.93,10.44,13.24,10.44h13.24v-14.71v-3.48H355.78z"/>
				<path class="st116" d="M369.03,390.9h-7.57c-3.48,0-6.3,2.82-6.3,6.3c0,0.55,0.09,1.07,0.22,1.58h13.65V390.9z"/>
				<path class="st121" d="M359.25,397.52v2.1c0,0.58,0.47,1.05,1.05,1.05h6.13c0.58,0,1.05-0.47,1.05-1.05v-2.1H359.25z"/>
				<path class="st116" d="M365.76,360.16h-19.4c-2.09,0-3.78,1.7-3.78,3.79v7.57h23.18V360.16z"/>
				<path class="st116" d="M377.78,365.82c0,3.15-2.56,5.72-5.71,5.72h-13.13c-3.16,0-5.72-2.56-5.72-5.72l0,0
					c0-3.16,2.56-5.71,5.72-5.71h13.13C375.23,360.11,377.78,362.66,377.78,365.82L377.78,365.82z"/>
			</g>
			<rect x="344.84" y="368.79" class="st116" width="5.24" height="13.8"/>
			<rect x="346.47" y="362.85" class="st116" width="15.43" height="16.25"/>
			<path class="st121" d="M350.08,379.31c0-4.31,3.49-7.81,7.81-7.81h4.03c4.31,0,6.62,3.49,6.62,7.81l0,0
				c0,4.31-3.5,7.81-7.81,7.81h-2.84C353.57,387.12,350.08,383.63,350.08,379.31L350.08,379.31z"/>
		</g>
		<g>
			<path class="st121" d="M444.52,450.88c0,0-3.72-8.93-2.39-11.35c1.34-2.41,6.81-10.94,6.81-10.94l1.61-2.05
				c0,0,3.26,0.49-0.49,6.18c-3.75,5.69-0.38,3.9-0.38,3.9l5.37-3.88l6.97-4.26l2.85-2.28c0,0,1.52-1.41,2.16-1.44
				c1.88-0.09,1.25,1.36,1.25,1.36l-10.3,9.77l11.98-6.46c0,0,1.67-0.58,2.27,0.13c0.56,0.66,0.08,0.96,0.08,0.96l-11.82,10.46
				l6.56-2.65c0,0,1.65-0.52,2.27,0.13c0.67,0.72,0.88,0.9,0.88,0.9l-24.1,13.49L444.52,450.88z"/>
			<path class="st121" d="M459.87,437.59l8.69-4.07c0,0,1.84-1.12,3.03-1.11c1.35,0.01,1.39,1.17,1.39,1.17l-12.51,7.4
				L459.87,437.59z"/>
		</g>
		<path class="st123" d="M439.69,654.63c0.4,0.66,0.09,2.42,0.09,2.42s-7.08,1.17-9.34,0.47c-0.59-0.18-1.58-0.86-2.51-1.58
			c-0.16-0.12-0.43-0.86-0.58-0.98c-0.28-0.23-0.43,0.16-0.68-0.04c-0.62-0.53-1.06-0.95-1.07-1c-0.58-4.42,0.26-6.21,0.26-6.21
			s6.05-2.81,7.16-0.92C435.62,651.23,438.82,653.18,439.69,654.63z"/>
		<path class="st116" d="M452.85,649.06l1.01,6.41h5.36c0,0,0.3-0.91,0.75-0.91c0.38,0,0.88,0.91,1.39,0.91c1.13,0,2.38,0,2.88,0
			c1,0,10.75,0,10.75,0s0.24-1.35-0.05-1.81c-0.15-0.24-1.04-0.66-1.65-0.86c-2.77-0.95-11.14-3.02-13.01-5.99
			C458.83,644.5,452.85,649.06,452.85,649.06z"/>
	</g>
	<g>
		<path class="st311" d="M410.11,496.44c-0.01-0.02-0.03-0.05-0.04-0.07l0.04-2.24h93.05v2.24c0,0,0.02,0.05,0,0.07l-0.24,0.42
			c-1.19,1.95-3.34,2.3-5.8,2.3h-80.97c-2.46,0-4.6-0.35-5.8-2.3L410.11,496.44z"/>
		<path class="st312" d="M432.54,496.81c0,0,0.01,0.04,0,0.06l-0.23,0.34c-0.37,0.5-0.83,0.88-1.36,1.15H416.8
			c-2.36,0-4.43-0.28-5.58-1.86l-0.23-0.34c-0.01-0.02-0.03-0.04-0.04-0.06l0.03-1.11h21.56V496.81z"/>
		<g>
			<rect x="445.1" y="494.64" class="st313" width="46.49" height="1.59"/>
		</g>
		<g>
			<path class="st294" d="M433.05,494.03l12.06-45.72c0.32-1.21,1.56-2.18,2.76-2.18h65.28c1.2,0,1.93,0.98,1.61,2.18l-12.07,45.72
				H433.05z"/>
			<path class="st311" d="M469.97,470.08c-0.62,2.33,0.78,4.23,3.11,4.23c2.34,0,4.73-1.9,5.34-4.23c0.61-2.34-0.77-4.23-3.11-4.23
				C472.98,465.85,470.58,467.74,469.97,470.08z"/>
		</g>
	</g>
	<g>
		<polygon class="st796" points="595.79,656.21 605.31,656.21 589.6,504.03 575.79,504.03 		"/>
		<polygon class="st795" points="576.71,511.05 582.77,557.13 589.95,507.47 589.6,504.03 577.53,504.03 		"/>
		<polygon class="st796" points="495.8,656.21 486.28,656.21 501.99,504.03 515.8,504.03 		"/>
		<polygon class="st795" points="514.88,511.05 496.39,558.01 501.63,507.47 501.99,504.03 514.06,504.03 		"/>
		<polygon class="st796" points="387.24,656.21 396.77,656.21 381.05,504.03 367.25,504.03 		"/>
		<polygon class="st795" points="368.17,511.05 374.22,557.13 381.41,507.47 381.05,504.03 368.98,504.03 		"/>
		<polygon class="st796" points="287.25,656.21 277.73,656.21 293.44,504.03 307.25,504.03 		"/>
		<polygon class="st795" points="306.33,511.05 287.85,558.01 293.09,507.47 293.44,504.03 305.51,504.03 		"/>
		<rect x="280.11" y="499.09" class="st790" width="322.34" height="8.89"/>
		<rect x="389.62" y="499.09" class="st250" width="212.83" height="8.89"/>
	</g>
</g>
<g>
	<g>
		<path class="st798" d="M510.54,497.33h1.01c0.33,0,0.61-0.31,0.61-0.68v-4.56c0-0.37-0.27-0.68-0.61-0.68h-1.01v-1.36h77.47
			c1,0,1.82,0.91,1.82,2.03v4.56c0,1.12-0.81,2.03-1.82,2.03h-77.47V497.33z"/>
		<path class="st799" d="M510.54,497.33h1.01c0.33,0,0.61-0.31,0.61-0.68v-4.56c0-0.37-0.27-0.68-0.61-0.68h-1.01v-1.36h46.49v8.62
			h-46.49V497.33z"/>
		<path class="st60" d="M512.16,496.65v-4.56c0-0.37-0.27-0.68-0.61-0.68h76.45c0.33,0,0.6,0.3,0.6,0.68v4.56
			c0,0.37-0.27,0.68-0.6,0.68h-76.45C511.89,497.33,512.16,497.03,512.16,496.65z"/>
		<path class="st784" d="M512.16,496.65v-4.56c0-0.37-0.27-0.68-0.61-0.68h46.7c0.33,0,0.61,0.3,0.61,0.68v4.56
			c0,0.37-0.27,0.68-0.61,0.68h-46.7C511.89,497.33,512.16,497.03,512.16,496.65z"/>
		
			<linearGradient id="SVGID_1_" gradientUnits="userSpaceOnUse" x1="4381.2095" y1="501.6245" x2="4381.2095" y2="494.6236" gradientTransform="matrix(1 0 0 1 -3798.1636 0)">
			<stop  offset="0.863" style="stop-color:#FFDA7D"/>
			<stop  offset="1" style="stop-color:#FBAC24"/>
		</linearGradient>
		<polygon class="st133" points="580.08,501.62 583.04,499.78 586.01,501.62 586.01,494.62 583.04,494.62 580.08,494.62 		"/>
	</g>
	<g>
		<path class="st60" d="M584.52,470.21c-0.33,1.89-0.5-2.42-0.5-0.33c0,2.35,0.23,4.61,0.64,6.71h-49.85v-6.38H584.52z"/>
		<path class="st801" d="M584.52,470.21c-0.07,0.44-0.14,0.88-0.2,1.33h-44.96v-1.33H584.52z"/>
		<path class="st293" d="M532.82,468.22h52.24c0.31,0,0.57,0.25,0.57,0.57v1.42h-23.99v6.38h23.99v1.42c0,0.31-0.26,0.57-0.57,0.57
			h-52.24c-0.31,0-0.57-0.26-0.57-0.57v-9.22C532.25,468.47,532.51,468.22,532.82,468.22z"/>
		<path class="st802" d="M519.93,468.22h40.39c-0.32,0-0.57,0.25-0.57,0.57v9.22c0,0.31,0.25,0.57,0.57,0.57h-40.39
			c-0.31,0-0.57-0.26-0.57-0.57v-9.22C519.36,468.47,519.61,468.22,519.93,468.22z"/>
		<path class="st803" d="M519.93,468.22h40.39c-0.32,0-0.57,0.25-0.57,0.57v1.9h-40.39v-1.9
			C519.36,468.47,519.61,468.22,519.93,468.22z"/>
	</g>
	<g>
		<path class="st798" d="M579.86,488.73h-0.99c-0.33,0-0.59-0.31-0.59-0.69v-7.39c0-0.38,0.26-0.69,0.59-0.69h0.99v-1.38h-62.73
			c-0.98,0-1.77,0.93-1.77,2.08v7.39c0,1.15,0.79,2.08,1.77,2.08h62.73V488.73z"/>
		<path class="st804" d="M579.86,488.73h-0.99c-0.33,0-0.59-0.31-0.59-0.69v-7.39c0-0.38,0.26-0.69,0.59-0.69h0.99v-1.38h-32.55
			v11.54h32.55V488.73z"/>
		<path class="st251" d="M578.29,488.04v-7.39c0-0.38,0.26-0.69,0.59-0.69h-61.75c-0.33,0-0.59,0.31-0.59,0.69v7.39
			c0,0.38,0.26,0.69,0.59,0.69h61.75C578.55,488.73,578.29,488.42,578.29,488.04z"/>
		<path class="st805" d="M578.29,488.04v-7.39c0-0.38,0.26-0.69,0.59-0.69h-32.75c-0.33,0-0.59,0.31-0.59,0.69v7.39
			c0,0.38,0.27,0.69,0.59,0.69h32.75C578.55,488.73,578.29,488.42,578.29,488.04z"/>
	</g>
</g>
<g>
	<path class="st125" d="M860.16,324.51c0.54-19.98-11.05-36.51-32.85-37.1c-21.8-0.59-34.28,15.28-34.82,35.26
		c-0.42,15.59,10.36,21.3,19.28,34.48c1.77,2.61-0.34,12.6-0.34,12.6l27.26,0.74c0,0-1.57-10.09,0.34-12.6
		C848.65,345.21,859.73,340.1,860.16,324.51z"/>
	<path class="st254" d="M822.99,363.39c-12.33-18.21-27.23-26.1-26.65-47.64c0.13-4.63,0.72-9.1,1.76-13.33
		c-3.49,5.72-5.4,12.69-5.61,20.26c-0.42,15.59,10.36,21.3,19.28,34.48c1.77,2.61-0.34,12.6-0.34,12.6l12.5,0.34
		C824.05,367.28,823.86,364.68,822.99,363.39z"/>
	<path class="st252" d="M810.96,369.73l-0.1,3.76c-0.17,6.23,4.74,11.42,10.97,11.59l5.64,0.15c6.23,0.17,11.41-4.75,11.59-10.97
		l0.1-3.76L810.96,369.73z"/>
	<g>
		<polygon class="st255" points="837.28,325.03 833.11,319.28 828.63,324.8 824.46,319.04 819.99,324.56 815.82,318.81 
			812.52,322.9 810.32,321.12 815.94,314.17 820.12,319.93 824.59,314.41 828.76,320.16 833.23,314.64 837.41,320.4 841.89,314.88 
			847.15,322.12 844.87,323.78 841.76,319.51 		"/>
	</g>
	<g>
		<polygon class="st255" points="822.78,369.58 819.96,369.5 820.59,346.08 814.92,327.49 817.62,326.66 823.42,345.69 		"/>
	</g>
	<g>
		<polygon class="st255" points="831.43,369.81 828.61,369.74 829.26,345.85 829.34,345.63 836.09,327.17 838.74,328.14 
			832.07,346.39 		"/>
	</g>
	
		<rect x="825.88" y="364.77" transform="matrix(0.0273 -0.9996 0.9996 0.0273 431.2949 1190.4159)" class="st314" width="2.93" height="17.63"/>
	
		<rect x="823.28" y="372.46" transform="matrix(0.0272 -0.9996 0.9996 0.0272 423.6118 1192.9198)" class="st314" width="2.93" height="12.69"/>
</g>
<g>
	<g>
		
			<rect x="691.41" y="232.72" transform="matrix(0.707 -0.7072 0.7072 0.707 43.3274 574.3228)" class="st60" width="46.77" height="4.3"/>
	</g>
	<g>
		<path class="st60" d="M704.87,233.71c-4.84,0-8.77-3.93-8.77-8.77c0-4.83,3.93-8.77,8.77-8.77c4.83,0,8.76,3.93,8.76,8.77
			C713.64,229.78,709.7,233.71,704.87,233.71z M704.87,220.49c-2.46,0-4.46,2-4.46,4.46c0,2.46,2,4.46,4.46,4.46
			c2.46,0,4.46-2,4.46-4.46C709.33,222.49,707.33,220.49,704.87,220.49z"/>
	</g>
	<g>
		<path class="st60" d="M723.06,253.56c-4.83,0-8.76-3.93-8.76-8.77c0-4.83,3.93-8.77,8.76-8.77c4.83,0,8.77,3.93,8.77,8.77
			C731.83,249.63,727.89,253.56,723.06,253.56z M723.06,240.33c-2.46,0-4.46,2-4.46,4.46c0,2.46,2,4.46,4.46,4.46
			c2.46,0,4.46-2,4.46-4.46C727.52,242.33,725.52,240.33,723.06,240.33z"/>
	</g>
	<g>
		<polygon class="st60" points="733.48,231.56 729.18,231.56 729.18,220.49 718.1,220.49 718.1,216.18 733.48,216.18 		"/>
	</g>
</g>
<g>
	<g>
		<path class="st251" d="M871.52,300.36c-9.14-11.93-13.09-26.7-11.12-41.6c1.8-13.59,8.35-25.84,18.58-34.82l9.88,12.89
			c-14.89,13.88-17.09,37.25-4.49,53.69c12.6,16.44,35.73,20.4,53.01,9.62l9.87,12.89c-11.33,7.53-24.85,10.68-38.45,8.88
			C893.9,319.94,880.66,312.29,871.52,300.36z"/>
		<path class="st123" d="M884.45,219.68c10.37-7.09,22.63-10.47,35.17-9.68l-2.13,16.1c-8.23-0.28-16.27,1.96-23.18,6.46
			L884.45,219.68z"/>
		<path class="st125" d="M942.92,295.98c15.44-13.82,17.87-37.5,5.06-54.21c-5.91-7.71-14.2-12.9-23.6-14.85l2.12-16.06
			c13.69,2.54,25.8,9.94,34.33,21.07c18.24,23.8,14.48,57.65-8.04,76.93L942.92,295.98z"/>
	</g>
</g>
<g>
	<g>
		<g>
			<path class="st767" d="M885.2,589.91c2.43,0,6.27-0.56,9.63-3.48c4.84-4.2,6.93-11.69,6.23-22.24
				c-0.48-7.12-3.28-14.34-6.25-21.96c-4.99-12.84-10.66-27.4-7.69-46.65l-5.5-0.85c-3.18,20.72,3.02,36.68,8.01,49.51
				c2.93,7.54,5.46,14.05,5.88,20.32c0.57,8.55-0.91,14.65-4.28,17.63c-3.19,2.82-7.19,2.1-7.36,2.07l-1.11,5.45
				C882.85,589.73,883.79,589.91,885.2,589.91z"/>
		</g>
		<g>
			<path class="st767" d="M846.7,589.91c2.43,0,6.26-0.56,9.63-3.48c4.84-4.2,6.93-11.69,6.23-22.24
				c-0.47-7.12-3.28-14.34-6.25-21.96c-4.99-12.84-10.66-27.4-7.69-46.65l-5.5-0.85c-3.19,20.72,3.02,36.68,8,49.51
				c2.93,7.54,5.46,14.05,5.88,20.32c0.57,8.55-0.91,14.65-4.28,17.63c-3.19,2.82-7.19,2.1-7.36,2.07l-1.11,5.45
				C844.36,589.73,845.29,589.91,846.7,589.91z"/>
		</g>
		<g>
			<g>
				<path class="st795" d="M842.54,634.06l-5.42,8.26l45.51,14.58c0,0,3.04-2.91-8.13-8.75
					C861.5,641.35,842.54,634.06,842.54,634.06z"/>
				<path class="st795" d="M834.45,634.06l5.41,8.26l-45.51,14.58c0,0-3.04-2.91,8.13-8.75
					C815.49,641.35,834.45,634.06,834.45,634.06z"/>
			</g>
			<rect x="833.74" y="609.48" class="st795" width="9.51" height="33.86"/>
			<g>
				<path class="st796" d="M843.15,635.8l-4.64,7.88l38.96,13.91c0,0,2.6-2.77-6.96-8.35C859.38,642.76,843.15,635.8,843.15,635.8z"
					/>
				<path class="st796" d="M833.85,635.8l4.64,7.88l-38.96,13.91c0,0-2.6-2.77,6.96-8.35C817.61,642.76,833.85,635.8,833.85,635.8z"
					/>
			</g>
			<path class="st256" d="M873.06,660.73c0,1.83,1.48,3.3,3.3,3.3c1.82,0,3.3-1.48,3.3-3.3c0-1.82-1.48-3.31-3.3-3.31
				C874.53,657.42,873.06,658.9,873.06,660.73z"/>
			<path class="st256" d="M797.57,660.73c0,1.83,1.48,3.3,3.31,3.3c1.82,0,3.3-1.48,3.3-3.3c0-1.82-1.48-3.31-3.3-3.31
				C799.05,657.42,797.57,658.9,797.57,660.73z"/>
			<path class="st767" d="M881.05,660.73c0,1.83,1.48,3.3,3.31,3.3c1.82,0,3.3-1.48,3.3-3.3c0-1.82-1.48-3.31-3.3-3.31
				C882.53,657.42,881.05,658.9,881.05,660.73z"/>
			<path class="st767" d="M789.57,660.73c0,1.83,1.48,3.3,3.3,3.3c1.83,0,3.31-1.48,3.31-3.3c0-1.82-1.48-3.31-3.31-3.31
				C791.05,657.42,789.57,658.9,789.57,660.73z"/>
		</g>
		<rect x="835.14" y="597.07" class="st767" width="6.96" height="12.18"/>
		<path class="st767" d="M829.92,590.64c0,3.74,3.04,6.78,6.79,6.78h3.82c3.74,0,6.78-3.04,6.78-6.78l0,0
			c0-3.75-3.04-6.78-6.78-6.78h-3.82C832.96,583.85,829.92,586.89,829.92,590.64L829.92,590.64z"/>
		<path class="st250" d="M786.92,584.44c-0.17-0.8-0.27-5.8-0.27-6.67c0-5.47,3.54-9.91,7.91-9.91h88.11c4.37,0,7.91,4.44,7.91,9.91
			c0,0.87-0.1,5.87-0.27,6.67H786.92z"/>
		<path class="st767" d="M891.4,587.12c0,1.68-0.98,3.04-2.19,3.04H788.03c-1.21,0-2.18-1.36-2.18-3.04l0,0
			c0-1.68,0.98-3.03,2.18-3.03H889.2C890.41,584.09,891.4,585.44,891.4,587.12L891.4,587.12z"/>
		<g>
			<path class="st250" d="M886.46,533.55c-2.17,0.17-15.98,0.4-18.37,0.44c-15.11,0.18-28.14-2.65-28.86-6.38
				c-2.99-15.47-3.12-31.34-0.39-46.82c0.64-3.73,13.86-6.56,29.3-6.37c2.43,0.03,16.52,0.27,18.74,0.44
				C882.14,494.15,882.01,514.26,886.46,533.55z"/>
			<path class="st767" d="M888.54,474.86c1.69,0.02,2.87,0.82,2.64,1.8c-4.21,18.15-4.37,36.97-0.47,55.12
				c0.21,0.98-0.96,1.78-2.61,1.8l0,0c-1.66,0.02-3.19-0.75-3.4-1.73c-3.94-18.2-3.82-37.07,0.36-55.26
				C885.28,475.61,886.84,474.84,888.54,474.86L888.54,474.86z"/>
			<path class="st797" d="M888.17,533.19c-0.45,0.14-3.44,0.25-3.97,0.26c-3.29,0.04-6.68-2.86-7.34-6.52
				c-2.74-15.24-2.67-30.87,0.21-46.12c0.68-3.65,4.17-6.56,7.52-6.52c0.54,0.01,3.58,0.12,4.04,0.27
				C883.89,493.82,883.73,513.91,888.17,533.19z"/>
		</g>
	</g>
	<g>
		<g>
			<g>
				<path class="st287" d="M806.9,476.09c5.4,8.7,16.98,11.28,25.87,5.76c8.88-5.52,11.7-17.04,6.3-25.74
					c-5.4-8.7-16.98-11.28-25.87-5.76C804.31,455.87,801.5,467.39,806.9,476.09z"/>
				<path class="st287" d="M799.85,500.58c6.82,10.98,21.44,14.24,32.66,7.27c11.22-6.96,14.78-21.52,7.96-32.5
					c-6.82-10.98-21.44-14.24-32.66-7.27C796.6,475.05,793.04,489.6,799.85,500.58z"/>
				<g>
					<g>
						<g>
							<path class="st257" d="M822.29,524.1c0,0,1.01,3.01-13.47,8.32c-14.48,5.3-37.06,9.5-37.06,9.5l32.27-15.36
								C804.03,526.56,816.64,521.28,822.29,524.1z"/>
							<path class="st257" d="M783.54,538.81c-6.81,2.74-8.36,7.32-10.63,9.46c-2.27,2.14-4.34,4.85-4.33,4.81
								c0.35-3.52,2.51-4.49,3.23-5.87c0.72-1.38,0.63-0.8-1.87,0c-1.42,0.45-2.87,3.85-4.07,5.9c-1.04,1.77-1.95,2.24-1.95,2.24
								s0.77-3.16,2.23-6.04c1.76-3.48,4.31-6.82,4.97-7.45c1.23-1.15,5.72-3.14,9.13-4.01
								C784.11,536.87,788.45,536.84,783.54,538.81z"/>
							<path class="st257" d="M771.55,541.84c0,0-4.68,3.42-5.32,4.47c-0.45,0.73-1.98,4.6-1.98,4.6s1.82-1.1,2.52-2.6
								C767.47,546.8,771.55,541.84,771.55,541.84z"/>
						</g>
						<path class="st293" d="M813.52,520.42c0,0,13.5-4.5,15.75,3.68c1.28,4.64-1.1,7.4-5.2,8.69c-7.63,2.39-16.44,4.7-16.44,4.7
							l-8.65-10.62L813.52,520.42z"/>
					</g>
					<path class="st293" d="M812.03,513.64L812,475.48c0,0-1.29-9.85,2.29-10.01c5.16-0.23,7.02,8.19,7.78,11.21
						c1.55,6.15,3.11,8.46,4.63,24.18c0.93,9.69,2.75,20.56,2.81,27.16c0.04,4.55-4.86-0.01-9.47,0.04
						C811.43,528.13,812.03,513.64,812.03,513.64z"/>
				</g>
				<polygon class="st121" points="740.03,627.93 730.22,656.58 712.77,658.76 703.75,657.88 722.31,651.41 729.88,624.97 				"/>
				<path class="st256" d="M728.74,661.1l-2.38-0.31l-1.59-2.7l-14.04,2.07l-11.58-0.94c0,0,0.13-0.89,0.64-1.23
					c1.9-1.28,10.67-2.71,10.67-2.71s-0.67,2.55,0.38,2.96c1.05,0.41,11.88-1.38,14.45-2.01c4.43-1.1,6.64-2.47,6.5-1.85
					C731.58,655.27,728.74,661.1,728.74,661.1z"/>
				<path class="st116" d="M804.16,565.15l-41.35,3.14l-23.81,70.41l-13.24-3.72l21.66-84c0,0,1.85-5.37,14.3-6.65
					c12.11-1.25,60.9-7.61,66.62-6.63C841.9,540.01,800.74,554.2,804.16,565.15z"/>
				<path class="st287" d="M822.01,450.33c5.4,8.7,16.98,11.28,25.87,5.76c8.88-5.52,11.71-17.04,6.3-25.74
					c-5.4-8.7-16.99-11.28-25.87-5.76C819.43,430.11,816.6,441.63,822.01,450.33z"/>
				<path class="st287" d="M802.16,446.38c4.15,6.68,12.93,8.73,19.61,4.58l-0.54-7.62c6.68-4.15,8.73-12.93,4.58-19.61l-2.82-4.53
					c-4.15-6.68-12.93-8.74-19.61-4.59l-3.02,1.88c-6.68,4.15-8.73,12.93-4.58,19.6L802.16,446.38z"/>
				<path class="st121" d="M795.95,425.59c0.71,1.1,1.5,2.19,2.41,3.23c6.05,7.01,14.43,9.97,20.05,7.49
					c2.34,3.42,5.01,6.14,7.53,8.31c2.87,2.46,8.46,3.47,8.46,3.47c4.24,4.88,3.7,20.24-9.38,23.16c-7.86,1.76-7.09-6.8-4.85-12.32
					c1.05-2.59,2.01-5.54,1.59-6.89c-1.5-4.73-3.34-5.21-6.34-6.56c-4.99-1.6-9.15,1.04-9.15,1.04c-0.4,0.25-0.87,0.3-1.3,0.19
					c-0.74-0.65-1.4-1.41-1.95-2.29l-6.19-9.98C795.11,431.68,794.89,428.42,795.95,425.59z"/>
				<path class="st259" d="M850.39,546.94c0,0-5.91,1.87-7.53,2.67c-2.15,1.07-8.83,0.68-8.83,0.68s-4.17-32.31-6.91-43.46
					c-2.74-11.15-5.99-13.91-6.33-17.45c-0.55-5.65-0.22-7.02,0.33-11.51c0.55-4.49-2.97-10.01-1.86-9.01
					c1.78,1.64,8.06,3.81,13.01-2.95C833.11,464.74,850.39,546.94,850.39,546.94z"/>
				<path class="st255" d="M819.33,455.57c0,0-7.37,9.13-6.76,11.82c0.61,2.69,0.95,14.21,4.09,26.2
					c3.14,11.98,4.96,14.85,6.19,23.71c1.22,8.85-0.63,11.05,1.24,21.89c1.46,8.49,3.57,15.89,3.57,15.89s4,0.69,6.6-2.79
					c2.6-3.48-1.51-33.09-3.34-40.3c-1.83-7.21-8.11-25.96-8.37-31.09c-0.27-5.12,0.13-17.47,0.87-19.16
					C825.26,457.5,820.03,455.92,819.33,455.57z"/>
				<path class="st293" d="M819.22,454.81c0,0,0.51,0.66,1.13,1c1.15,0.63,2.64,1.94,2.64,1.94s-1.72-0.62-2.21,0.86
					c-0.59,1.82-0.66,5.81-0.66,5.81s-3.56-4.71-3-6.38C818.13,455.03,819.22,454.81,819.22,454.81z"/>
				<path class="st287" d="M832.52,473.38c4.21,9.84,15.75,14.33,25.8,10.04c10.04-4.29,14.78-15.74,10.58-25.58
					c-4.2-9.83-15.75-14.33-25.79-10.04C833.06,452.1,828.32,463.55,832.52,473.38z"/>
				<polygon class="st121" points="781.32,629.72 782.67,648.94 779.24,653.93 769.46,661 761.6,660.4 774.15,648.87 773.08,628.67 
									"/>
				<path class="st256" d="M782.5,653.2l-3.23,2.86l-1.16-0.73l-10.93,7.54c0,0-5.8,3.71-7.7,1.88c-0.61-0.59-0.15-2.75,1.66-4.41
					c1.43-1.31,2.33-1.86,2.33-1.86s0.55,1.45,4.08,1.67c1.13,0.07,7.54-5.19,9.78-6.61c4.03-2.55,5.41-5.7,5.65-5.44
					C783.63,648.78,782.5,653.2,782.5,653.2z"/>
				<path class="st123" d="M852.57,520.33l-3.77,12.27l-8.44,1.92l-68.56,11.49c0,0-6.37-1.27-9.3,8.89
					c-4.17,14.46,10.29,83.22,10.29,83.22l10.2-1.2l-1.22-66.11c0,0,67.52,4.79,86.02-3.04c7.1-3.01,11.37-16.53,8.98-29.5
					c-1.87-10.16-9.68-18.89-9.68-18.89L852.57,520.33z"/>
				<path class="st255" d="M845.72,545.98c0,0-6.17-28.6-9.4-42.11c-3.22-13.51-5.18-36.52-5.94-39.78
					c-0.75-3.25-2.97-7.82-2.97-7.82s2.56-7.81,6.94-8.02c3.85-0.18,16.35,2.63,22.45,4.41c4.21,1.23,6.83,47.56,7.44,49.95
					c2.21,8.62,7.54,18.22,11.04,24.86c2.78,5.29,5.35,13.34,5.35,13.34S858.27,540.49,845.72,545.98z"/>
				<path class="st293" d="M833.3,446.08l-2.87,4c0,0-3.89,6.74-2.51,5.7c1.75-1.31,4.58,5.01,4.58,5.01l4.76-13L833.3,446.08z"/>
				<g>
					<path class="st121" d="M866.98,513.66c0,0,5.42,3.06-13.46,6.99c-18.87,3.92-47.48,5.43-47.48,5.43l42.78-12.75
						C848.83,513.33,860.61,509.66,866.98,513.66z"/>
					<path class="st121" d="M821.16,524.26c-8.92,2.12-11.76,7.08-14.99,9.18c-3.23,2.1-6.31,4.86-6.29,4.82
						c1.14-3.93,4-4.72,5.17-6.18c1.17-1.46,0.93-0.81-2.3-0.28c-1.84,0.31-4.31,3.95-6.2,6.09c-1.64,1.86-2.86,2.26-2.86,2.26
						s1.59-3.47,3.97-6.52c2.87-3.68,6.68-7.1,7.62-7.72c1.74-1.13,7.66-2.73,12.04-3.23C822.26,522.14,827.59,522.73,821.16,524.26
						z"/>
					<path class="st121" d="M805.8,525.96c0,0-6.44,3.19-7.44,4.3c-0.7,0.77-3.37,4.92-3.37,4.92s2.46-0.99,3.63-2.59
						C799.78,530.98,805.8,525.96,805.8,525.96z"/>
				</g>
				<path class="st293" d="M855.14,509.41l-10.52-41.38c0,0,0.65-8.81,3.03-12.05c2.82-3.84,9-3.42,9-3.42s7.7,5.09,11.62,38.31
					c2.69,22.73,5.74,31.88-3.97,33.88c-9.06,1.86-19.45,3.51-19.45,3.51l-8.36-13.03L855.14,509.41z"/>
			</g>
			<g>
				<polygon class="st786" points="805.82,538.7 745.61,544.88 745.48,543.64 805.69,537.46 				"/>
				<path class="st786" d="M779.11,540.12c0.1,0.96-0.51,1.81-1.34,1.9l-30.88,3.17c-0.84,0.09-2.04-0.41-3.32-2.74l-18.12-26.31
					c-0.12-1.21,0.74-2.03,1.6-1.92l31.78-2.3c0.86,0.11,1.61,0.68,2.21,1.91L779.11,540.12z"/>
				<path class="st787" d="M775.51,541.81l0.31-0.03l30.14-3.1c-1.02,0.69-2.79,1.25-4.83,1.46l-25.21,2.59l-0.31,0.03l-25.22,2.59
					c-2.04,0.21-3.89,0.02-5.02-0.44L775.51,541.81z"/>
			</g>
		</g>
	</g>
</g>
</svg>
