<?xml version="1.0" encoding="utf-8"?>
<!-- Generator: Adobe Illustrator 23.0.3, SVG Export Plug-In . SVG Version: 6.00 Build 0)  -->
<svg version="1.1" id="Layer_1" xmlns="http://www.w3.org/2000/svg" xmlns:xlink="http://www.w3.org/1999/xlink" x="0px" y="0px"
	 viewBox="0 0 1190.55 720.01" style="enable-background:new 0 0 1190.55 720.01;" xml:space="preserve">
<style type="text/css">
	.st0{opacity:0.1;fill:#3772B9;enable-background:new    ;}
	.st1{fill:#302E41;}
	.st2{opacity:0.2;fill:#010101;enable-background:new    ;}
	.st3{fill:#3772B9;}
	.st4{fill:#666578;}
	.st5{fill:#F9BEBF;}
	.st6{opacity:0.1;fill:#010101;enable-background:new    ;}
	.st7{opacity:0.2;}
	.st8{fill:#403E56;}
	.st9{fill:#444276;}
	.st10{opacity:0.1;}
	.st11{fill:#010101;}
	.st12{fill:url(#XMLID_4107_);}
	.st13{fill:#3D5286;fill-opacity:0;}
	.st14{opacity:0.0244;fill:#3D5286;enable-background:new    ;}
	.st15{opacity:0.0488;fill:#3D5286;enable-background:new    ;}
	.st16{opacity:0.0732;fill:#3D5286;enable-background:new    ;}
	.st17{opacity:0.0976;fill:#3D5286;enable-background:new    ;}
	.st18{opacity:0.122;fill:#3D5286;enable-background:new    ;}
	.st19{opacity:0.1463;fill:#3D5286;enable-background:new    ;}
	.st20{opacity:0.1707;fill:#3D5286;enable-background:new    ;}
	.st21{opacity:0.1951;fill:#3D5286;enable-background:new    ;}
	.st22{opacity:0.2195;fill:#3D5286;enable-background:new    ;}
	.st23{opacity:0.2439;fill:#3D5286;enable-background:new    ;}
	.st24{opacity:0.2683;fill:#3D5286;enable-background:new    ;}
	.st25{opacity:0.2927;fill:#3D5286;enable-background:new    ;}
	.st26{opacity:0.3171;fill:#3D5286;enable-background:new    ;}
	.st27{opacity:0.3415;fill:#3D5286;enable-background:new    ;}
	.st28{opacity:0.3659;fill:#3D5286;enable-background:new    ;}
	.st29{opacity:0.3902;fill:#3D5286;enable-background:new    ;}
	.st30{opacity:0.4146;fill:#3D5286;enable-background:new    ;}
	.st31{opacity:0.439;fill:#3D5286;enable-background:new    ;}
	.st32{opacity:0.4634;fill:#3D5286;enable-background:new    ;}
	.st33{opacity:0.4878;fill:#3D5286;enable-background:new    ;}
	.st34{opacity:0.5122;fill:#3D5286;enable-background:new    ;}
	.st35{opacity:0.5366;fill:#3D5286;enable-background:new    ;}
	.st36{opacity:0.561;fill:#3D5286;enable-background:new    ;}
	.st37{opacity:0.5854;fill:#3D5286;enable-background:new    ;}
	.st38{opacity:0.6098;fill:#3D5286;enable-background:new    ;}
	.st39{opacity:0.6341;fill:#3D5286;enable-background:new    ;}
	.st40{opacity:0.6585;fill:#3D5286;enable-background:new    ;}
	.st41{opacity:0.6829;fill:#3D5286;enable-background:new    ;}
	.st42{opacity:0.7073;fill:#3D5286;enable-background:new    ;}
	.st43{opacity:0.7317;fill:#3D5286;enable-background:new    ;}
	.st44{opacity:0.7561;fill:#3D5286;enable-background:new    ;}
	.st45{opacity:0.7805;fill:#3D5286;enable-background:new    ;}
	.st46{opacity:0.8049;fill:#3D5286;enable-background:new    ;}
	.st47{opacity:0.8293;fill:#3D5286;enable-background:new    ;}
	.st48{opacity:0.8537;fill:#3D5286;enable-background:new    ;}
	.st49{opacity:0.878;fill:#3D5286;enable-background:new    ;}
	.st50{opacity:0.9024;fill:#3D5286;enable-background:new    ;}
	.st51{opacity:0.9268;fill:#3D5286;enable-background:new    ;}
	.st52{opacity:0.9512;fill:#3D5286;enable-background:new    ;}
	.st53{opacity:0.9756;fill:#3D5286;enable-background:new    ;}
	.st54{fill:#3D5286;}
	.st55{fill:#D2E1F1;}
	.st56{fill:url(#XMLID_4108_);}
	.st57{fill:#4A65A4;}
	.st58{fill:url(#XMLID_4109_);}
	.st59{fill:url(#XMLID_4110_);}
	.st60{fill:#FFFFFF;}
	.st61{fill:#DBE9F7;}
	.st62{fill:url(#XMLID_4111_);}
	.st63{fill:url(#XMLID_4112_);}
	.st64{opacity:0.3;fill:#4A65A4;enable-background:new    ;}
	.st65{fill:#F2B2B5;}
	.st66{fill:url(#XMLID_4124_);}
	.st67{fill:url(#XMLID_4125_);}
	.st68{fill:#A7CBEB;}
	.st69{fill:url(#XMLID_4126_);}
	.st70{fill:url(#XMLID_4127_);}
	.st71{fill:#EDF3FB;}
	.st72{fill:#EF9EA4;}
	.st73{fill:url(#XMLID_4128_);}
	.st74{fill:url(#XMLID_4129_);}
	.st75{fill:url(#XMLID_4130_);}
	.st76{fill:#FDC113;}
	.st77{fill:url(#XMLID_4163_);}
	.st78{fill:url(#XMLID_4164_);}
	.st79{fill:#FFDB6C;}
	.st80{fill:url(#XMLID_4165_);}
	.st81{fill:url(#XMLID_4166_);}
	.st82{fill:url(#XMLID_4167_);}
	.st83{fill:#FFCE3A;}
	.st84{fill:url(#XMLID_4168_);}
	.st85{fill:url(#XMLID_4169_);}
	.st86{fill:url(#XMLID_4170_);}
	.st87{fill:url(#XMLID_4171_);}
	.st88{fill:url(#XMLID_4172_);}
	.st89{fill:url(#XMLID_4173_);}
	.st90{fill:url(#XMLID_4174_);}
	.st91{fill:url(#XMLID_4175_);}
	.st92{fill:url(#XMLID_4176_);}
	.st93{fill:url(#XMLID_4177_);}
	.st94{opacity:0.6;fill:url(#XMLID_4178_);enable-background:new    ;}
	.st95{fill:url(#XMLID_4179_);}
	.st96{fill:#5E7EBF;}
	.st97{fill:#F8F6F9;}
	.st98{fill:url(#XMLID_4180_);}
	.st99{fill:url(#XMLID_4181_);}
	.st100{fill:url(#XMLID_4182_);}
	.st101{opacity:0.3;fill:#231F20;enable-background:new    ;}
	.st102{fill:url(#XMLID_4183_);}
	.st103{fill:#E5EEF9;}
	.st104{fill:#D2DCEA;}
	.st105{fill:#EAF7FE;}
	.st106{fill:none;stroke:#D2DCEA;stroke-width:2.5457;stroke-miterlimit:10;}
	.st107{fill:none;stroke:#D2DCEA;stroke-width:2.1192;stroke-miterlimit:10;}
	.st108{fill:#9EC1E1;}
	.st109{fill:none;stroke:#9EC1E1;stroke-width:1.3723;stroke-miterlimit:10;}
	.st110{fill:#1D1B50;}
	.st111{fill:#E2EDF9;}
	.st112{fill:#D9E5ED;}
	.st113{fill:#215CAA;}
	.st114{fill:#2E65B0;}
	.st115{fill:#E9AC86;}
	.st116{fill:#16405A;}
	.st117{fill:#EFBF96;}
	.st118{fill:#B5D1DE;}
	.st119{fill:#A1BAC6;}
	.st120{fill:#8EA2AC;}
	.st121{fill:#EAD7B9;}
	.st122{fill:#6591CC;}
	.st123{fill:#194967;}
	.st124{fill:#4C7ABD;}
	.st125{fill:#FDC12F;}
	.st126{fill:#B0D3F0;}
	.st127{fill:#FEBF13;}
	.st128{fill:#C2E0F5;}
	.st129{fill:#F2AA1E;}
	.st130{fill:#FFCF42;}
	.st131{fill:none;stroke:#B0D3F0;stroke-width:5.837;stroke-miterlimit:10;}
	.st132{fill:none;stroke:#B5D1DE;stroke-width:2.5823;}
	.st133{fill:url(#SVGID_1_);}
	.st134{fill:url(#SVGID_2_);}
	.st135{fill:#FBBF19;}
	.st136{opacity:0.5;fill:#8D8BC3;}
	.st137{opacity:0.5;fill:#F2A528;}
	.st138{fill:#E6E7E8;}
	.st139{fill:#818FA3;}
	.st140{fill:#DEE4F3;}
	.st141{fill:#F1F2F2;}
	.st142{fill:none;stroke:#E6E7E8;stroke-miterlimit:10;}
	.st143{fill:#D1D3D4;}
	.st144{fill:#FAA71A;}
	.st145{opacity:0.2;fill:#DEE4F3;}
	.st146{fill:none;stroke:#FEC14E;stroke-width:15;stroke-miterlimit:10;}
	.st147{fill:none;stroke:#D1D3D4;stroke-width:3;stroke-miterlimit:10;}
	.st148{fill:none;stroke:#818FA3;stroke-width:0.5;stroke-miterlimit:10;}
	.st149{fill:#0E1338;}
	.st150{opacity:0.5;fill:#D1D3D4;}
	.st151{fill:#BE1E2D;}
	.st152{fill:#8D8BC3;}
	.st153{fill:url(#SVGID_3_);}
	.st154{fill:url(#SVGID_4_);}
	.st155{fill:url(#SVGID_5_);}
	.st156{fill:url(#SVGID_6_);}
	.st157{fill:url(#SVGID_7_);}
	.st158{fill:url(#SVGID_8_);}
	.st159{fill:none;}
	.st160{fill:#6465AD;}
	.st161{fill:#D082B6;}
	.st162{fill:#4B51A0;}
	.st163{opacity:0.5;fill:#4B51A0;}
	.st164{fill:#722876;}
	.st165{fill:#F7941D;}
	.st166{opacity:0.3;fill:#F15A29;}
	.st167{fill:url(#SVGID_9_);}
	.st168{fill:url(#SVGID_10_);}
	.st169{opacity:0.5;fill:#FFE1B6;}
	.st170{fill:none;stroke:#9FB1CC;stroke-miterlimit:10;}
	.st171{fill:#FEC14E;}
	.st172{opacity:0.7;}
	.st173{opacity:0;fill:#3C5185;}
	.st174{opacity:0.0244;fill:#3C5185;}
	.st175{opacity:0.0488;fill:#3C5185;}
	.st176{opacity:0.0732;fill:#3C5185;}
	.st177{opacity:0.0976;fill:#3C5185;}
	.st178{opacity:0.122;fill:#3C5185;}
	.st179{opacity:0.1463;fill:#3C5185;}
	.st180{opacity:0.1707;fill:#3C5185;}
	.st181{opacity:0.1951;fill:#3C5185;}
	.st182{opacity:0.2195;fill:#3C5185;}
	.st183{opacity:0.2439;fill:#3C5185;}
	.st184{opacity:0.2683;fill:#3C5185;}
	.st185{opacity:0.2927;fill:#3C5185;}
	.st186{opacity:0.3171;fill:#3C5185;}
	.st187{opacity:0.3415;fill:#3C5185;}
	.st188{opacity:0.3659;fill:#3C5185;}
	.st189{opacity:0.3902;fill:#3C5185;}
	.st190{opacity:0.4146;fill:#3C5185;}
	.st191{opacity:0.439;fill:#3C5185;}
	.st192{opacity:0.4634;fill:#3C5185;}
	.st193{opacity:0.4878;fill:#3C5185;}
	.st194{opacity:0.5122;fill:#3C5185;}
	.st195{opacity:0.5366;fill:#3C5185;}
	.st196{opacity:0.561;fill:#3C5185;}
	.st197{opacity:0.5854;fill:#3C5185;}
	.st198{opacity:0.6098;fill:#3C5185;}
	.st199{opacity:0.6341;fill:#3C5185;}
	.st200{opacity:0.6585;fill:#3C5185;}
	.st201{opacity:0.6829;fill:#3C5185;}
	.st202{opacity:0.7073;fill:#3C5185;}
	.st203{opacity:0.7317;fill:#3C5185;}
	.st204{opacity:0.7561;fill:#3C5185;}
	.st205{opacity:0.7805;fill:#3C5185;}
	.st206{opacity:0.8049;fill:#3C5185;}
	.st207{opacity:0.8293;fill:#3C5185;}
	.st208{opacity:0.8537;fill:#3C5185;}
	.st209{opacity:0.878;fill:#3C5185;}
	.st210{opacity:0.9024;fill:#3C5185;}
	.st211{opacity:0.9268;fill:#3C5185;}
	.st212{opacity:0.9512;fill:#3C5185;}
	.st213{opacity:0.9756;fill:#3C5185;}
	.st214{fill:#3C5185;}
	.st215{fill:url(#XMLID_4184_);}
	.st216{fill:#EAF1F9;}
	.st217{fill:url(#XMLID_4185_);}
	.st218{fill:#D1E1F2;}
	.st219{fill:#49486B;}
	.st220{fill:url(#XMLID_4186_);}
	.st221{fill:url(#XMLID_4187_);}
	.st222{opacity:0.3;fill:#49486B;}
	.st223{fill:url(#XMLID_4188_);}
	.st224{fill:#F2B0B3;}
	.st225{fill:url(#XMLID_4189_);}
	.st226{opacity:0.3;fill:#3C5185;}
	.st227{fill:url(#SVGID_11_);}
	.st228{fill:url(#SVGID_12_);}
	.st229{opacity:0.3;fill:#2E3E64;}
	.st230{fill:#EF9EA3;}
	.st231{fill:url(#XMLID_4190_);}
	.st232{fill:url(#SVGID_13_);}
	.st233{fill:#FFCB4F;}
	.st234{fill:url(#XMLID_4191_);}
	.st235{fill:url(#XMLID_4192_);}
	.st236{fill:url(#XMLID_4193_);}
	.st237{fill:#2D469D;}
	.st238{opacity:0.83;fill:url(#XMLID_4194_);}
	.st239{opacity:0.49;fill:#6B7AB1;}
	.st240{fill:url(#SVGID_14_);}
	.st241{fill:url(#SVGID_15_);}
	.st242{fill:url(#SVGID_16_);}
	.st243{fill:#7FA6D7;}
	.st244{fill:url(#XMLID_4195_);}
	.st245{fill:url(#XMLID_4196_);}
	.st246{fill:#5F6896;}
	.st247{fill:#F2F2F2;}
	.st248{fill:#E2EBF6;}
	.st249{fill:#D9E6F4;}
	.st250{fill:#3BB6D5;}
	.st251{fill:#B0BFDD;}
	.st252{fill:#3E7BA8;}
	.st253{enable-background:new    ;}
	.st254{fill:#FBAA19;}
	.st255{fill:#F4DA80;}
	.st256{fill:#181914;}
	.st257{fill:#E2C59C;}
	.st258{fill:#864738;}
	.st259{fill:#AE5D4A;}
	.st260{fill:#0A1932;}
	.st261{fill:#B5B6B6;}
	.st262{fill:#A4ACAF;}
	.st263{clip-path:url(#SVGID_18_);enable-background:new    ;}
	.st264{fill:#9EA3A6;}
	.st265{clip-path:url(#SVGID_20_);enable-background:new    ;}
	.st266{fill:#959B9D;}
	.st267{fill:#98A0A2;}
	.st268{fill:#A2A9AD;}
	.st269{fill:#A6AFB2;}
	.st270{fill:#AAB4B7;}
	.st271{clip-path:url(#SVGID_22_);enable-background:new    ;}
	.st272{clip-path:url(#SVGID_24_);enable-background:new    ;}
	.st273{clip-path:url(#SVGID_26_);enable-background:new    ;}
	.st274{clip-path:url(#SVGID_28_);enable-background:new    ;}
	.st275{clip-path:url(#SVGID_30_);enable-background:new    ;}
	.st276{fill:#AAB2B5;}
	.st277{clip-path:url(#SVGID_32_);enable-background:new    ;}
	.st278{clip-path:url(#SVGID_34_);enable-background:new    ;}
	.st279{clip-path:url(#SVGID_36_);enable-background:new    ;}
	.st280{clip-path:url(#SVGID_38_);enable-background:new    ;}
	.st281{fill:#EFF9FE;}
	.st282{fill:#37A3BF;}
	.st283{fill:#DEC9A9;}
	.st284{fill:#EBB61F;}
	.st285{fill:#C5D2E2;}
	.st286{fill:#E4EDF2;}
	.st287{fill:#282724;}
	.st288{fill:#B6C2C9;}
	.st289{fill:#879BA6;}
	.st290{fill:#D9E1E4;}
	.st291{fill:#333B31;}
	.st292{fill:#3D473C;}
	.st293{fill:#F7C450;}
	.st294{fill:#D7DFE2;}
	.st295{fill:#359DB6;}
	.st296{fill:#974633;}
	.st297{fill:#7ECBD0;}
	.st298{fill:#387082;}
	.st299{fill:#89BDDA;}
	.st300{fill:#ADD5F1;}
	.st301{fill:#0E2145;}
	.st302{fill:#47C2C6;}
	.st303{fill:#36A8B5;}
	.st304{fill:#DCE5EA;}
	.st305{fill:#FBAF4F;}
	.st306{fill:#326192;}
	.st307{fill:#171311;}
	.st308{fill:#D1DEE6;}
	.st309{fill:#87BBD8;}
	.st310{fill:url(#SVGID_39_);}
	.st311{fill:#B4C0C7;}
	.st312{fill:#D7E3EB;}
	.st313{fill:#8599A4;}
	.st314{fill:#376890;}
	.st315{fill:url(#SVGID_40_);}
	.st316{fill:#FED815;}
	.st317{fill:#C1C4C7;}
	.st318{fill:#F6F6F6;}
	.st319{fill:#5380A2;}
	.st320{fill:#5899B0;}
	.st321{fill:#253551;}
	.st322{fill:#93A6C6;}
	.st323{fill:#047888;}
	.st324{fill:#12B4B4;}
	.st325{fill:#C4C4C4;}
	.st326{fill:#233450;}
	.st327{fill:#F48485;}
	.st328{fill:#C7E2ED;}
	.st329{fill:#E1E6EE;}
	.st330{fill:#121733;}
	.st331{fill:#FEBF52;}
	.st332{fill:#ED9B9C;}
	.st333{fill:#F4B7A9;}
	.st334{fill:#FBD1D9;}
	.st335{fill:#CCC9E1;}
	.st336{fill:#C56E79;}
	.st337{fill:#768BC5;}
	.st338{fill:#636FB1;}
	.st339{fill:#EFEFF8;}
	.st340{fill:#724E56;}
	.st341{fill:#383846;}
	.st342{fill:none;stroke:#1D1D1B;stroke-width:0;stroke-linecap:round;stroke-linejoin:round;}
	.st343{fill:#1D1D1B;}
	.st344{fill:#535566;}
	.st345{fill:#F8AFB1;}
	.st346{fill:#393941;}
	.st347{fill:#E2E4E8;}
	.st348{fill:#F6989A;}
	.st349{fill:#685856;}
	.st350{fill:#4A485C;}
	.st351{fill:#F5F6F7;}
	.st352{fill:#B9BAC0;}
	.st353{fill:#C27771;}
	.st354{fill:#54537C;}
	.st355{fill:#F8B2B0;}
	.st356{fill:#E99E9C;}
	.st357{fill:#4D413F;}
	.st358{fill:#B96760;}
	.st359{fill:#F6894F;}
	.st360{fill:#FCB54B;}
	.st361{fill:#FCE483;}
	.st362{fill:#796060;}
	.st363{fill:#6EA3D7;}
	.st364{fill:#4E8AC8;}
	.st365{fill:#BB664B;}
	.st366{fill:#F48471;}
	.st367{fill:#E7E8EB;}
	.st368{fill:#FFD766;}
	.st369{fill:#555387;}
	.st370{fill:#DBDADA;}
	.st371{fill:#9C9C9B;}
	.st372{fill:#878787;}
	.st373{fill:#C7C6C5;}
	.st374{fill:#EDEDEE;}
	.st375{fill:#FEEC87;}
	.st376{fill:#4A425F;}
	.st377{fill:#605570;}
	.st378{fill:#DD817F;}
	.st379{fill:#E0E3EF;}
	.st380{fill:#C3775E;}
	.st381{fill:#D3907A;}
	.st382{fill:#E5B182;}
	.st383{fill:#F5F6F6;}
	.st384{fill:#462C26;}
	.st385{fill:#A06F57;}
	.st386{fill:#3C3F54;}
	.st387{fill:#194043;}
	.st388{fill:#FAC2BE;}
	.st389{fill:#D8D7DF;}
	.st390{fill:#F9B5B2;}
	.st391{fill:#4A4A4A;}
	.st392{fill:#AFA0CE;}
	.st393{fill:#047091;}
	.st394{fill:#19243A;}
	.st395{clip-path:url(#SVGID_42_);}
	.st396{fill:#F8BFD2;}
	.st397{fill:#F27797;}
	.st398{fill:#96D4EC;}
	.st399{fill:#39A9E0;}
	.st400{fill:#BFD577;}
	.st401{fill:#95C13D;}
	.st402{fill:#F8B232;}
	.st403{fill:#F29220;}
	.st404{fill:#F2C65B;}
	.st405{fill:#F6E881;}
	.st406{fill:#F9E5BC;}
	.st407{fill:#FBC6AD;}
	.st408{fill:#1F2C41;}
	.st409{fill:#6BB5CF;}
	.st410{fill:#5771B6;}
	.st411{fill:#F29D42;}
	.st412{fill:#7D91AF;}
	.st413{fill:#F0C2C2;}
	.st414{fill:#A2B2CC;}
	.st415{fill:#585767;}
	.st416{fill:#875E5D;}
	.st417{fill:#484D6A;}
	.st418{fill:#E5807F;}
	.st419{fill:#F6999C;}
	.st420{fill:#FCD9D9;}
	.st421{fill:#121B2A;}
	.st422{fill:#1F2E45;}
	.st423{clip-path:url(#SVGID_44_);enable-background:new    ;}
	.st424{fill:#B3B3B3;}
	.st425{fill:#555A77;}
	.st426{fill:#92A3BF;}
	.st427{fill:#D78B8C;}
	.st428{fill:#8A4A49;}
	.st429{fill:#9B6162;}
	.st430{fill:#C48484;}
	.st431{fill:#F5D067;}
	.st432{fill:#CD7878;}
	.st433{fill:#BFC9D9;}
	.st434{fill:#B0BCD0;}
	.st435{fill:#616074;}
	.st436{fill:#362728;}
	.st437{fill:#D9B4A3;}
	.st438{fill:#F7B2AF;}
	.st439{fill:#7D428D;}
	.st440{fill:#E2C7B6;}
	.st441{fill:#FAC1BE;}
	.st442{fill:#F8C2DA;}
	.st443{fill:#FACEE1;}
	.st444{fill:#121210;}
	.st445{fill:#A48A7B;}
	.st446{fill:#4E4A82;}
	.st447{fill:#3C3A64;}
	.st448{fill:#F16E8D;}
	.st449{fill:#A95B5B;}
	.st450{fill:#F5A1A2;}
	.st451{fill:#F4BFBE;}
	.st452{fill:#FED46A;}
	.st453{fill:#FAC7D2;}
	.st454{fill:#342E4F;}
	.st455{fill:#837EBC;}
	.st456{fill:#9B96C9;}
	.st457{fill:#B47D81;}
	.st458{fill:#8F5A60;}
	.st459{fill:#A8A6C5;}
	.st460{fill:#A54C62;}
	.st461{fill:#902D42;}
	.st462{fill:#171021;}
	.st463{fill:#F1C131;}
	.st464{fill:#F9BEC7;}
	.st465{fill:#3F3F56;}
	.st466{fill:#77516D;}
	.st467{fill:#30303F;}
	.st468{fill:#24190F;}
	.st469{fill:#EFAA88;}
	.st470{fill:#DDDBE7;}
	.st471{fill:#5D7C92;}
	.st472{fill:#E79E7A;}
	.st473{fill:#D7D5DD;}
	.st474{fill:#6B6AB1;}
	.st475{fill:#466C83;}
	.st476{fill:#EEF8FA;}
	.st477{fill:#78787A;}
	.st478{fill:#85ACDB;}
	.st479{fill:#0F0F1E;}
	.st480{fill:#A46569;}
	.st481{fill:#454154;}
	.st482{fill:#E9A5A8;}
	.st483{fill:#9093AC;}
	.st484{fill:#EFB7B9;}
	.st485{fill:#5A5369;}
	.st486{fill:#69657F;}
	.st487{fill:#C5C8D6;}
	.st488{fill:#292F42;}
	.st489{fill:#456BB3;}
	.st490{fill:#698CC8;}
	.st491{fill:#F48270;}
	.st492{fill:#D6E1EE;}
	.st493{fill:#F47A66;}
	.st494{fill:#DEE3EE;}
	.st495{clip-path:url(#SVGID_46_);}
	.st496{fill:#917DBA;}
	.st497{fill:#82666B;}
	.st498{fill:#46425B;}
	.st499{fill:#CECFDB;}
	.st500{fill:#BABDD1;}
	.st501{fill:#F3746A;}
	.st502{fill:#F8A9A1;}
	.st503{fill:#F6A5B7;}
	.st504{fill:#2B2A6A;}
	.st505{fill:#D4EFFC;}
	.st506{fill:#E2E5EA;}
	.st507{fill:#F9C0CD;}
	.st508{fill:#B36B85;}
	.st509{fill:#FEC13C;}
	.st510{fill:#F6871F;}
	.st511{fill:#F5887C;}
	.st512{fill:#DC9BA3;}
	.st513{fill:#B69CCA;}
	.st514{fill:#534965;}
	.st515{fill:#B96976;}
	.st516{fill:#27193F;}
	.st517{fill:#C97883;}
	.st518{fill:#E4EBF2;}
	.st519{clip-path:url(#SVGID_48_);enable-background:new    ;}
	.st520{fill:#758BC6;}
	.st521{fill:#C1C1CC;}
	.st522{fill:#7D5426;}
	.st523{fill:#659B41;}
	.st524{fill:#56873D;}
	.st525{fill:#486C32;}
	.st526{fill:#496B32;}
	.st527{fill:#55873D;}
	.st528{fill:#94C93D;}
	.st529{fill:#72B844;}
	.st530{fill:#669A41;}
	.st531{fill:#476B32;}
	.st532{fill:#56863C;}
	.st533{fill:#71B744;}
	.st534{fill:#649B41;}
	.st535{fill:#FFFCF9;}
	.st536{fill:#BBC2D2;}
	.st537{fill:#F6CDB2;}
	.st538{fill:#EE9C86;}
	.st539{fill:#95C93D;}
	.st540{fill:#6FB544;}
	.st541{fill:#659940;}
	.st542{fill:#55853C;}
	.st543{fill:#C6C9D6;}
	.st544{fill:#A0A4B4;}
	.st545{fill:#454278;}
	.st546{fill:#964A75;}
	.st547{fill:#D1567C;}
	.st548{fill:#D2D1DF;}
	.st549{fill:#361D3E;}
	.st550{fill:#DADDDB;}
	.st551{fill:#717070;}
	.st552{fill:#585856;}
	.st553{fill:#B7B7B8;}
	.st554{fill:#454646;}
	.st555{fill:#727473;}
	.st556{fill:#838585;}
	.st557{fill:#607672;}
	.st558{fill:#DCDBDB;}
	.st559{fill:#566A66;}
	.st560{fill:#8DADA7;}
	.st561{fill:#D2DBEE;}
	.st562{fill:#2C100F;}
	.st563{fill:#9A3C63;}
	.st564{fill:#F9C0C7;}
	.st565{fill:#E39BA5;}
	.st566{fill:#C36987;}
	.st567{fill:#3A1518;}
	.st568{clip-path:url(#SVGID_50_);enable-background:new    ;}
	.st569{fill:#F2B9B8;}
	.st570{fill:#EEA04B;}
	.st571{fill:#3D3E51;}
	.st572{fill:#454A64;}
	.st573{fill:#3C364B;}
	.st574{fill:#C1C3C6;}
	.st575{fill:#D0E0F3;}
	.st576{fill:#14132B;}
	.st577{fill:#B8B9B8;}
	.st578{fill:#D6E1ED;}
	.st579{fill:#37475D;}
	.st580{fill:#E46047;}
	.st581{fill:#E290AC;}
	.st582{fill:#749DD2;}
	.st583{fill:#272043;}
	.st584{fill:#726797;}
	.st585{fill:#597DBE;}
	.st586{fill:#4161AD;}
	.st587{clip-path:url(#XMLID_4197_);}
	.st588{fill:#ACC5E7;}
	.st589{fill:#412312;}
	.st590{fill:#303E52;}
	.st591{opacity:0.5;fill:#5771B6;}
	.st592{fill:#F9E700;}
	.st593{fill:#101138;}
	.st594{fill:#A6B8DF;}
	.st595{fill:#E3ECF8;}
	.st596{fill:#BFC5DF;}
	.st597{fill:#7D90AA;}
	.st598{fill:#1E2656;}
	.st599{fill:#CECECF;}
	.st600{fill:#A7A7A8;}
	.st601{fill:#242164;}
	.st602{fill:#D3D4D5;}
	.st603{fill-rule:evenodd;clip-rule:evenodd;fill:#36475D;}
	.st604{fill:#474E5A;}
	.st605{fill:#23272C;}
	.st606{fill:#D9DADB;}
	.st607{fill:#5D6574;}
	.st608{fill:#7A8599;}
	.st609{fill:#BEBEBF;}
	.st610{fill:#676F80;}
	.st611{fill:none;stroke:#010101;stroke-width:0.1068;stroke-linecap:round;stroke-linejoin:round;stroke-miterlimit:10;}
	.st612{fill:#70777D;}
	.st613{fill:#231F20;}
	.st614{fill:#56A5A9;}
	.st615{fill:#6ECCDB;}
	.st616{fill:#4273B9;}
	.st617{fill:#69BD45;}
	.st618{fill:#EE3224;}
	.st619{clip-path:url(#XMLID_4212_);}
	.st620{fill:#3D3F54;}
	.st621{fill:#C82026;}
	.st622{fill:#D1E7F7;}
	.st623{fill:#1F1F2F;}
	.st624{fill:#403F56;}
	.st625{fill:#B9B9C1;}
	.st626{fill:#46475B;}
	.st627{fill:#AEB9CA;}
	.st628{fill:#4B4F67;}
	.st629{fill:#575C72;}
	.st630{fill:#6D89C5;}
	.st631{fill:#AB556C;}
	.st632{fill:#F7F8FA;}
	.st633{fill:#E1E3EC;}
	.st634{fill:#85506F;}
	.st635{fill:#EC749E;}
	.st636{fill:#F05878;}
	.st637{fill:#BFCFC7;}
	.st638{fill:#A15E9A;}
	.st639{fill:#8A98CB;}
	.st640{fill:#B8ABCD;}
	.st641{fill:#9779B5;}
	.st642{fill:#404774;}
	.st643{fill:#7A87C3;}
	.st644{clip-path:url(#XMLID_4213_);fill:none;stroke:#404774;stroke-miterlimit:10;}
	.st645{fill:#6977B7;}
	.st646{fill:#6A87C4;}
	.st647{fill:#8EC3EA;}
	.st648{fill:#DDF1FC;}
	.st649{opacity:0.8;}
	.st650{clip-path:url(#XMLID_4214_);fill:#DCDAE6;}
	.st651{clip-path:url(#XMLID_4214_);fill:#C39FBB;}
	.st652{opacity:0.78;fill:#D0E0F3;}
	.st653{fill:#669B41;}
	.st654{fill:#54873D;}
	.st655{fill:#93C83E;}
	.st656{fill:none;stroke:#3052A4;stroke-width:2;stroke-linecap:round;stroke-miterlimit:10;}
	.st657{opacity:0.41;}
	.st658{fill:#4D4A82;}
	.st659{fill:#972766;}
	.st660{fill:#F26F8D;}
	.st661{fill:#D0567B;}
	.st662{fill:#ED1F24;}
	.st663{fill:#3052A4;}
	.st664{fill:#C9C9C8;}
	.st665{fill:#F9FAFB;}
	.st666{fill:#C8D0DF;}
	.st667{fill:#D9E3F2;}
	.st668{clip-path:url(#XMLID_4215_);fill:#CDD6E9;}
	.st669{fill:#ACBCDE;}
	.st670{fill:#F5F8FD;}
	.st671{opacity:0.5;fill:#F5F8FD;}
	.st672{clip-path:url(#XMLID_4216_);fill:#A8B6DA;}
	.st673{clip-path:url(#XMLID_4216_);fill:#FFFFFF;}
	.st674{opacity:0.5;clip-path:url(#XMLID_4216_);fill:#9AACD8;}
	.st675{fill:#C3C8DF;}
	.st676{fill:#E5E5E4;}
	.st677{fill:#EF4881;}
	.st678{fill:#B1A0C2;}
	.st679{fill:#EF72AA;}
	.st680{clip-path:url(#XMLID_4217_);fill:#DCDAE6;}
	.st681{clip-path:url(#XMLID_4217_);fill:#37373D;}
	.st682{clip-path:url(#XMLID_4218_);}
	.st683{clip-path:url(#XMLID_4219_);}
	.st684{clip-path:url(#XMLID_4220_);fill:none;stroke:#404774;stroke-miterlimit:10;}
	.st685{clip-path:url(#XMLID_4221_);fill:#DCDAE6;}
	.st686{clip-path:url(#XMLID_4221_);fill:#C39FBB;}
	.st687{clip-path:url(#XMLID_4222_);fill:#CDD6E9;}
	.st688{clip-path:url(#XMLID_4223_);fill:#A8B6DA;}
	.st689{clip-path:url(#XMLID_4223_);fill:#FFFFFF;}
	.st690{opacity:0.5;clip-path:url(#XMLID_4223_);fill:#9AACD8;}
	.st691{clip-path:url(#XMLID_4224_);fill:#DCDAE6;}
	.st692{clip-path:url(#XMLID_4224_);fill:#37373D;}
	.st693{clip-path:url(#SVGID_52_);enable-background:new    ;}
	.st694{clip-path:url(#SVGID_54_);enable-background:new    ;}
	.st695{clip-path:url(#SVGID_56_);enable-background:new    ;}
	.st696{clip-path:url(#SVGID_58_);enable-background:new    ;}
	.st697{clip-path:url(#SVGID_60_);enable-background:new    ;}
	.st698{clip-path:url(#SVGID_62_);enable-background:new    ;}
	.st699{clip-path:url(#SVGID_64_);enable-background:new    ;}
	.st700{clip-path:url(#SVGID_66_);enable-background:new    ;}
	.st701{clip-path:url(#SVGID_68_);enable-background:new    ;}
	.st702{clip-path:url(#SVGID_70_);enable-background:new    ;}
	.st703{clip-path:url(#SVGID_72_);enable-background:new    ;}
</style>
<g>
	<path class="st0" d="M1145.83,485.93c0.06,31.96-8.39,63.33-24.42,90.67c0,33.44-15.09,63.74-39.57,85.83
		c-6.13,5.52-12.73,10.46-19.71,14.76c-0.28,0.18-0.57,0.36-0.86,0.53c-0.52,0.32-1.05,0.64-1.58,0.97l-0.5,0.3l0,0
		c-2.23,1.3-4.52,2.56-6.84,3.74c-21.46,10.9-45.06,16.52-68.97,16.42H279.16c-5.61,0-11.17-0.23-16.68-0.7
		c-19.58-1.59-38.83-6.2-57.1-13.66c-3.57-1.46-7.06-3.02-10.49-4.69c-1.63-0.79-3.25-1.61-4.85-2.44c-1-0.52-2-1.06-2.99-1.6
		c-6.01-3.3-11.84-6.96-17.45-10.95c-5.13-3.62-10.06-7.53-14.77-11.71c-31.82-28.2-51.5-67.23-51.5-110.3
		c-17.84-28.37-27.3-61.48-27.23-95.31c0-95.75,74.1-173.38,165.51-173.38c2.81,0,5.61,0.09,8.42,0.24c0.4,0,0.79,0,1.2,0.06
		c15.41-27.13,36.01-52.06,60.78-74c67.55-59.78,166.28-97.47,276.25-97.47c92.41,0,176.87,26.61,241.57,70.57
		c24.52-14.31,52.21-21.82,80.37-21.78c91.4,0,165.51,77.62,165.51,173.38c-0.01,6.06-0.33,12.11-0.94,18.14
		C1119.47,376.24,1145.98,429.36,1145.83,485.93z"/>
	<ellipse class="st0" cx="139.69" cy="220.2" rx="20.23" ry="20.89"/>
	<ellipse class="st0" cx="223.99" cy="104.74" rx="20.23" ry="20.89"/>
	<ellipse class="st0" cx="217.13" cy="184.06" rx="33.9" ry="35.01"/>
</g>
<g>
	<path class="st103" d="M146.65,567.15c-6.49-9.32,0.95-17.66,30.23-22.89c31.95-5.71,62.72-3.49,88.13,1.53
		c-60.41-26.95-131.07-65.24-67.88-71.93c19.7-2.08,50.38,6.52,84.63,20.39c-38.65-29.48-60.18-54.03-37.5-59.43
		c21.06-5.02,65.07,18.56,112.11,50.21c-27.09-26.91-43.03-50.65-31.62-62.44c9.32-9.63,30.15,0.43,54.36,19.5
		c-1.6-17.4,5.39-28.15,22.17-26.57c15.78,1.49,29.16,21.26,39.02,45.18c13.89-38.02,53.01-62.24,93.56-52.11
		c47.63,11.89,12.55,103.09-7.21,146.55L146.65,567.15z"/>
	<g>
		<path class="st103" d="M472.97,394.92c14.51,41.03,6.59,84.61-17.37,117.63c-39.4-10.62-72.95-39.53-87.46-80.57
			c-14.51-41.03-6.59-84.61,17.37-117.63C424.91,324.96,458.46,353.88,472.97,394.92z"/>
		<g>
			<g>
				
					<rect x="421.58" y="324.44" transform="matrix(0.9428 -0.3333 0.3333 0.9428 -114.9194 164.7279)" class="st60" width="2.06" height="185.69"/>
			</g>
			<g>
				
					<rect x="388.52" y="344.42" transform="matrix(0.3654 -0.9309 0.9309 0.3654 -88.0524 591.1992)" class="st60" width="2.06" height="31.51"/>
			</g>
			<g>
				
					<rect x="395.67" y="369.27" transform="matrix(0.3654 -0.9309 0.9309 0.3654 -110.0555 615.9506)" class="st60" width="2.06" height="38.84"/>
			</g>
			<g>
				
					<rect x="394.08" y="381.31" transform="matrix(0.3646 -0.9312 0.9312 0.3646 -134.2409 630.822)" class="st60" width="2.06" height="64.93"/>
			</g>
			<g>
				
					<rect x="405.45" y="412.36" transform="matrix(0.365 -0.931 0.931 0.365 -155.2053 660.3436)" class="st60" width="2.06" height="63.17"/>
			</g>
			<g>
				
					<rect x="429.04" y="461.32" transform="matrix(0.3654 -0.9309 0.9309 0.3654 -172.8601 704.2714)" class="st60" width="2.06" height="35.18"/>
			</g>
			<g>
				
					<rect x="395.51" y="347.42" transform="matrix(0.4945 -0.8692 0.8692 0.4945 -94.974 533.5964)" class="st60" width="31.51" height="2.06"/>
			</g>
			<g>
				
					<rect x="401.61" y="369.61" transform="matrix(0.4946 -0.8691 0.8691 0.4946 -106.7442 557.723)" class="st60" width="49.13" height="2.06"/>
			</g>
			<g>
				
					<rect x="409.03" y="394.09" transform="matrix(0.4945 -0.8692 0.8692 0.4945 -121.1174 581.9818)" class="st60" width="61.5" height="2.06"/>
			</g>
			<g>
				
					<rect x="419.17" y="423.21" transform="matrix(0.4946 -0.8691 0.8691 0.4946 -140.8995 606.187)" class="st60" width="63.17" height="2.06"/>
			</g>
			<g>
				
					<rect x="431.97" y="456.93" transform="matrix(0.4945 -0.8692 0.8692 0.4945 -165.9704 630.5439)" class="st60" width="54.27" height="2.06"/>
			</g>
		</g>
	</g>
	<g>
		<path class="st104" d="M374.37,463.11c38.53,12.54,66.23,43.1,77.04,79.52c-30.18,23.08-70.55,31.47-109.09,18.92
			c-38.53-12.54-66.23-43.1-77.04-79.52C295.46,458.95,335.84,450.57,374.37,463.11z"/>
		<g>
			<g>
				
					<rect x="361.38" y="426.54" transform="matrix(0.3095 -0.9509 0.9509 0.3095 -237.593 698.7836)" class="st60" width="1.92" height="172.88"/>
			</g>
			<g>
				
					<rect x="286.76" y="504.07" transform="matrix(0.8565 -0.5161 0.5161 0.8565 -217.4115 228.0444)" class="st60" width="29.34" height="1.92"/>
			</g>
			<g>
				
					<rect x="308.45" y="514.96" transform="matrix(0.8565 -0.5162 0.5162 0.8565 -219.443 242.596)" class="st60" width="36.16" height="1.92"/>
			</g>
			<g>
				
					<rect x="313.93" y="530.35" transform="matrix(0.8565 -0.5162 0.5162 0.8565 -224.8526 253.8896)" class="st60" width="60.46" height="1.92"/>
			</g>
			<g>
				
					<rect x="343.49" y="539.06" transform="matrix(0.8564 -0.5163 0.5163 0.8564 -225.2523 270.0374)" class="st60" width="58.82" height="1.92"/>
			</g>
			<g>
				
					<rect x="395.71" y="541.46" transform="matrix(0.8565 -0.5162 0.5162 0.8565 -220.8531 290.5872)" class="st60" width="32.75" height="1.92"/>
			</g>
			<g>
				
					<rect x="304.11" y="467.68" transform="matrix(0.9214 -0.3887 0.3887 0.9214 -163.4979 156.5071)" class="st60" width="1.92" height="29.34"/>
			</g>
			<g>
				
					<rect x="328.95" y="461.05" transform="matrix(0.9214 -0.3887 0.3887 0.9214 -162.1541 166.287)" class="st60" width="1.92" height="45.74"/>
			</g>
			<g>
				
					<rect x="354.75" y="459.11" transform="matrix(0.9214 -0.3887 0.3887 0.9214 -161.6098 176.6137)" class="st60" width="1.92" height="57.26"/>
			</g>
			<g>
				
					<rect x="382.47" y="466.74" transform="matrix(0.9214 -0.3887 0.3887 0.9214 -162.698 188.0514)" class="st60" width="1.92" height="58.81"/>
			</g>
			<g>
				
					<rect x="412.12" y="483.83" transform="matrix(0.9214 -0.3887 0.3887 0.9214 -165.3988 200.5911)" class="st60" width="1.92" height="50.53"/>
			</g>
		</g>
	</g>
	<g>
		<g>
			<path class="st123" d="M370.93,372.87c0,0-8.55-2.02-13.5-8.68c-1.8-2.41-2.86-8.08-0.35-9.95c2.51-1.86,6.81-0.3,9.42,3.2
				C371.46,364.1,370.93,372.87,370.93,372.87z"/>
			<path class="st123" d="M379.99,383.36c0,0-3.77-6.69-2.34-13.71c0.52-2.54,3.62-6.48,6.34-5.93c2.72,0.56,4.27,4.24,3.52,7.93
				C386.08,378.68,379.99,383.36,379.99,383.36z"/>
			<path class="st123" d="M387.98,397.42c0,0-0.71-7.65,3.46-13.47c1.51-2.11,5.95-4.44,8.21-2.82c2.26,1.62,2.17,5.62-0.03,8.68
				C395.45,395.63,387.98,397.42,387.98,397.42z"/>
			<path class="st123" d="M380.05,383.8c0,0-5.75,4.2-12.9,4.29c-2.59,0.04-7.1-1.74-7.13-4.01c-0.03-2.27,3.24-4.16,7.01-4.22
				C374.18,379.76,380.05,383.8,380.05,383.8z"/>
			<path class="st123" d="M388.86,396.89c0,0-5.74,4.44-12.9,4.54c-2.59,0.04-7.1-1.85-7.14-4.26c-0.03-2.4,3.24-4.4,7.01-4.45
				C383,392.62,388.86,396.89,388.86,396.89z"/>
			<path class="st123" d="M397.53,416.85c0,0-4.37,4.42-9.83,4.5c-1.98,0.03-5.43-1.87-5.46-4.28c-0.03-2.41,2.46-4.39,5.33-4.43
				C393.04,412.56,397.53,416.85,397.53,416.85z"/>
			<path class="st123" d="M398.28,416.42c0,0-1.06-5.84,1.58-11.01c0.96-1.88,4.05-4.38,5.83-3.47c1.77,0.91,2,4.03,0.6,6.75
				C403.64,413.87,398.28,416.42,398.28,416.42z"/>
		</g>
		<g>
			<path class="st123" d="M449.19,487.94c1.77-0.47,2.73-1.27,2.8-1.33l-0.95-1.11l0.47,0.55l-0.47-0.56
				c-0.11,0.09-2.66,2.16-7.44,0.93c-5.36-1.39-11.19-6.25-17.34-14.44c-8.43-11.25-17.19-28.53-26.04-51.38
				c-10.27-26.53-20.35-38.31-27.01-46.1c-1.71-2-3.19-3.72-4.29-5.3l-1.19,0.84c1.15,1.62,2.65,3.37,4.38,5.4
				c6.6,7.72,16.58,19.38,26.76,45.68c19.68,50.84,35.04,64.35,44.45,66.72C445.78,488.48,447.75,488.32,449.19,487.94z"/>
		</g>
	</g>
	<g>
		<path class="st250" d="M448.73,463.43c31.35,28.63,46.51,67.62,44.05,103.81c-35.81,5.73-76.02-5.84-107.37-34.47
			c-31.35-28.63-46.51-67.63-44.05-103.81C377.17,423.23,417.38,434.8,448.73,463.43z"/>
		<g>
			<g>
				
					<rect x="419.74" y="409.96" transform="matrix(0.6744 -0.7384 0.7384 0.6744 -232.6339 473.4829)" class="st110" width="1.61" height="181.1"/>
			</g>
			<g>
				
					<rect x="352.7" y="464.62" transform="matrix(0.999 -0.0453 0.0453 0.999 -20.7035 17.0964)" class="st110" width="28.46" height="1.61"/>
			</g>
			<g>
				
					<rect x="368.89" y="485.59" transform="matrix(0.999 -0.0453 0.0453 0.999 -21.6566 18.0212)" class="st110" width="35.07" height="1.61"/>
			</g>
			<g>
				
					<rect x="368.14" y="506.95" transform="matrix(0.999 -0.0454 0.0454 0.999 -22.6188 18.548)" class="st110" width="58.63" height="1.61"/>
			</g>
			<g>
				
					<rect x="392.54" y="527.74" transform="matrix(0.999 -0.0453 0.0453 0.999 -23.5246 19.6285)" class="st110" width="57.03" height="1.61"/>
			</g>
			<g>
				
					<rect x="440.61" y="547.99" transform="matrix(0.999 -0.0452 0.0452 0.999 -24.3494 21.2035)" class="st110" width="31.76" height="1.61"/>
			</g>
			<g>
				
					<rect x="377.25" y="433.49" transform="matrix(0.999 -0.0457 0.0457 0.999 -20.0663 17.7459)" class="st110" width="1.61" height="28.45"/>
			</g>
			<g>
				
					<rect x="399.69" y="438.41" transform="matrix(0.999 -0.0457 0.0457 0.999 -20.6315 18.7849)" class="st110" width="1.61" height="44.36"/>
			</g>
			<g>
				
					<rect x="422.24" y="448.07" transform="matrix(0.999 -0.0457 0.0457 0.999 -21.3047 19.8314)" class="st110" width="1.61" height="55.53"/>
			</g>
			<g>
				
					<rect x="445.01" y="467.38" transform="matrix(0.999 -0.0457 0.0457 0.999 -22.1993 20.8943)" class="st110" width="1.61" height="57.04"/>
			</g>
			<g>
				
					<rect x="467.99" y="496.24" transform="matrix(0.999 -0.0458 0.0458 0.999 -23.3384 21.9981)" class="st110" width="1.61" height="49"/>
			</g>
		</g>
	</g>
	<g>
		<path class="st110" d="M341.44,588.5l-5.84,16.07c-13.77-0.02-26.92-1.47-38.94-4.2c0.5-12.02,2.5-24.19,6.13-36.08
			c17.88-58.55,113.25-75,160.16-9.75c-16.32,20.62-47.21,38.05-85.91,45.87c-10.04,2.02-20.03,3.28-29.78,3.83L341.44,588.5z"/>
		<g>
			<g>
				<path class="st250" d="M297.54,601.01c0.16-0.22,16.29-21.64,44.6-37.85c16.59-9.5,34.07-15.38,51.94-17.48
					c22.34-2.62,45.38,0.7,68.48,9.87l0.8-2.02c-53.14-21.09-95.88-7.41-122.37,7.79c-28.68,16.44-45.03,38.18-45.19,38.4
					L297.54,601.01z"/>
			</g>
			<g>
				
					<rect x="309.33" y="564.75" transform="matrix(0.2018 -0.9794 0.9794 0.2018 -315.3489 762.9157)" class="st250" width="2.17" height="20.37"/>
			</g>
			<g>
				
					<rect x="322.03" y="542.28" transform="matrix(0.2975 -0.9547 0.9547 0.2975 -306.5261 701.0798)" class="st250" width="2.17" height="33.07"/>
			</g>
			<g>
				
					<rect x="338.18" y="523.87" transform="matrix(0.3724 -0.9281 0.9281 0.3724 -293.2769 657.1652)" class="st250" width="2.17" height="43.12"/>
			</g>
			<g>
				
					<rect x="358.24" y="511.24" transform="matrix(0.5154 -0.8569 0.8569 0.5154 -284.2904 567.1503)" class="st250" width="2.17" height="47.4"/>
			</g>
			<g>
				
					<rect x="377.91" y="506.1" transform="matrix(0.6143 -0.7891 0.7891 0.6143 -271.713 503.319)" class="st250" width="2.17" height="46.99"/>
			</g>
			<g>
				
					<rect x="403.37" y="505.43" transform="matrix(0.6816 -0.7317 0.7317 0.6816 -257.9989 464.2194)" class="st250" width="2.17" height="46.32"/>
			</g>
			<g>
				
					<rect x="428.32" y="512.48" transform="matrix(0.7239 -0.6899 0.6899 0.7239 -249.3501 443.5161)" class="st250" width="2.17" height="41.58"/>
			</g>
			<g>
				
					<rect x="305.54" y="589.23" transform="matrix(0.0623 -0.9981 0.9981 0.0623 -290.2253 871.7307)" class="st250" width="26.52" height="2.17"/>
			</g>
			<g>
				
					<rect x="315.69" y="583.07" transform="matrix(0.1277 -0.9918 0.9918 0.1277 -286.0297 843.092)" class="st250" width="41.17" height="2.17"/>
			</g>
			<g>
				
					<rect x="332.89" y="577.29" transform="matrix(0.0568 -0.9984 0.9984 0.0568 -239.8964 902.8315)" class="st250" width="49.93" height="2.17"/>
			</g>
			<g>
				
					<rect x="353.15" y="572.49" transform="matrix(2.823119e-03 -1 1 2.823119e-03 -195.0822 951.5201)" class="st250" width="52.83" height="2.17"/>
			</g>
			<g>
				
					<rect x="397.25" y="544.02" transform="matrix(0.9995 -0.0314 0.0314 0.9995 -17.6612 12.7737)" class="st250" width="2.17" height="50.64"/>
			</g>
			<g>
				
					<rect x="400.51" y="564.1" transform="matrix(4.070145e-03 -1 1 4.070145e-03 -145.5744 984.2005)" class="st250" width="41.62" height="2.17"/>
			</g>
			<g>
				
					<rect x="429.52" y="560.14" transform="matrix(0.0983 -0.9952 0.9952 0.0983 -159.511 946.4003)" class="st250" width="25.93" height="2.17"/>
			</g>
		</g>
	</g>
	<g>
		<g class="st253">
			<g>
				<polygon class="st125" points="416.21,299.64 418.27,592.22 604.75,612.44 602.69,319.86 				"/>
			</g>
			<g>
				<polygon class="st254" points="604.75,612.44 659.52,570.66 657.46,278.08 602.69,319.86 				"/>
			</g>
			<g>
				<polygon class="st255" points="602.69,319.86 657.46,278.08 470.98,257.85 416.21,299.64 				"/>
			</g>
		</g>
	</g>
	<g>
		<path class="st250" d="M507.54,618.93c-4.14-5.95,0.61-11.27,19.29-14.61c20.39-3.65,40.03-2.23,56.24,0.98
			c-38.56-17.2-83.65-41.64-43.32-45.91c12.58-1.33,32.15,4.16,54.01,13.01c-24.67-18.81-38.41-34.48-23.93-37.93
			c13.44-3.2,41.53,11.84,71.55,32.04c-17.29-17.18-27.46-32.32-20.18-39.85c5.95-6.14,19.25,0.27,34.69,12.44
			c-1.02-11.1,3.44-17.97,14.15-16.96c10.07,0.95,18.61,13.57,24.9,28.83c8.87-24.26,33.83-39.72,59.71-33.26
			c30.4,7.59,8.01,65.79-4.6,93.53L507.54,618.93z"/>
		<g>
			<g>
				<path class="st250" d="M655.79,594.87l1.32-0.57c-24.56-56.88-51.54-94.09-69.83-115.29c-19.85-23-34.11-32.67-34.25-32.76
					l-0.8,1.19C552.79,447.82,608.95,486.41,655.79,594.87z"/>
			</g>
			<g>
				<path class="st250" d="M661.55,581.39l1.4-0.28c-13.5-67.12-54.56-121.35-54.97-121.89l-1.14,0.87
					C607.25,460.63,648.11,514.6,661.55,581.39z"/>
			</g>
			<g>
				<path class="st250" d="M636.73,590.79l1.4-0.29c-6.62-32.24-22.85-51.25-35.3-61.51c-13.51-11.14-25.65-14.69-25.77-14.72
					l-0.39,1.38c0.12,0.03,12.02,3.53,25.3,14.5C614.23,540.25,630.21,558.99,636.73,590.79z"/>
			</g>
			<path class="st250" d="M545.22,438.58c-8.56,7.67-12.97,16.69-9.86,20.16c3.1,3.47,12.55,0.06,21.11-7.61
				c8.56-7.67,12.97-16.69,9.86-20.16C563.22,427.5,553.77,430.91,545.22,438.58z"/>
			<path class="st110" d="M549.06,442.86c-2.72,2.43-4.12,5.3-3.13,6.4c0.99,1.1,3.99,0.02,6.7-2.41c2.72-2.44,4.12-5.3,3.13-6.4
				C554.77,439.34,551.77,440.43,549.06,442.86z"/>
			<path class="st250" d="M604.33,456.21c-3.56,3.19-5.4,6.95-4.11,8.39c1.29,1.44,5.23,0.02,8.79-3.17
				c3.56-3.19,5.4-6.95,4.11-8.39C611.82,451.6,607.89,453.02,604.33,456.21z"/>
			<path class="st110" d="M605.93,458c-1.13,1.01-1.71,2.21-1.31,2.66c0.41,0.46,1.66,0.01,2.79-1.01c1.13-1.01,1.71-2.21,1.3-2.67
				C608.3,456.53,607.06,456.98,605.93,458z"/>
			<path class="st250" d="M573.08,512.49c-3.36,5.17-4.38,10.47-2.29,11.83c2.09,1.36,6.52-1.73,9.88-6.9
				c3.36-5.17,4.38-10.47,2.29-11.83C580.86,504.23,576.44,507.32,573.08,512.49z"/>
			<path class="st110" d="M575.67,514.17c-1.06,1.64-1.39,3.33-0.72,3.76c0.66,0.43,2.07-0.55,3.14-2.19
				c1.06-1.64,1.39-3.32,0.73-3.75C578.14,511.55,576.74,512.53,575.67,514.17z"/>
		</g>
		<path class="st60" d="M621.16,579.07c-0.75,1.01-2.94,0.66-4.88-0.79c-0.07-0.05-0.14-0.11-0.22-0.17
			c-0.01,0.2-0.02,0.4-0.05,0.61c-0.29,2.4-1.53,4.23-2.79,4.07c-1.26-0.15-2.04-2.21-1.75-4.62c0.01-0.09,0.02-0.18,0.03-0.28
			c-0.17,0.1-0.36,0.18-0.55,0.27c-2.22,0.95-4.43,0.78-4.92-0.38c-0.5-1.16,0.9-2.87,3.12-3.83c0.08-0.03,0.17-0.07,0.25-0.1
			c-0.17-0.11-0.34-0.22-0.5-0.35c-1.94-1.45-2.9-3.45-2.14-4.46c0.76-1.01,2.94-0.66,4.88,0.79c0.07,0.06,0.14,0.12,0.21,0.17
			c0.01-0.2,0.02-0.4,0.05-0.61c0.29-2.4,1.53-4.23,2.79-4.08c1.26,0.15,2.04,2.22,1.75,4.62c-0.01,0.09-0.03,0.18-0.04,0.27
			c0.17-0.09,0.36-0.19,0.54-0.26c2.22-0.95,4.43-0.78,4.93,0.38c0.5,1.17-0.9,2.87-3.12,3.83c-0.08,0.04-0.17,0.07-0.25,0.1
			c0.17,0.11,0.33,0.23,0.5,0.35C620.96,576.06,621.92,578.05,621.16,579.07z M616.32,574.34c0.15-1.3-0.78-2.48-2.07-2.64
			c-1.3-0.15-2.48,0.77-2.63,2.07c-0.15,1.3,0.78,2.47,2.07,2.63C614.98,576.57,616.16,575.64,616.32,574.34z"/>
	</g>
	<g>
		<g class="st253">
			<g>
				<polygon class="st125" points="674.73,441.99 675.21,628.65 861.69,648.87 861.21,462.21 				"/>
			</g>
			<g>
				<polygon class="st254" points="861.69,648.87 916.46,607.08 915.98,420.42 861.21,462.21 				"/>
			</g>
			<g>
				<polygon class="st255" points="861.21,462.21 915.98,420.42 729.5,400.2 674.73,441.99 				"/>
			</g>
		</g>
	</g>
	<g>
		<g>
			<g>
				<path class="st104" d="M840.82,217.71c0,0,8.43,3.51-1.89,28.87c-10.31,25.36-15.62,22.04-15.62,22.04l-6.84-0.94l-11.96-16.64
					l7.61-6.16l1.39,0.64c0,0,1.9-0.71,2.25-2.47c0.35-1.76,4.25-9.02,7.94-24C825.41,212.15,839.2,217.03,840.82,217.71z"/>
				<path class="st257" d="M806.37,251.43c0,0-14.38,7.86-23.12,8.83c-5.86,0.65,6.24,7.18,18.27,8.48
					c12.03,1.3,16.7,0.77,19.3-3.47C823.42,261.04,806.37,251.43,806.37,251.43z"/>
				<path class="st251" d="M821.4,247.86l-4.12-3.06l-1.72-1.12c-0.6,1.31-2.05,1.86-2.05,1.86l3.5,1.67l3.75,2.76l3.69,5.21
					L821.4,247.86z"/>
				<path class="st104" d="M827.08,278.99l31.9-0.69l13.26-44.41c0,0,8.6-26.86-7.89-27.2c-16.49-0.34-35.49-0.34-35.49-0.34
					S817.76,215.98,827.08,278.99z"/>
				<path class="st121" d="M831.58,177.38c0,0-2.25,22.8,2.89,25.48c0.22,0.11,3.89,0.27,5.8,1.99c1.8,1.63,1.88,3.46,2.52,4.18
					c0.21,0.23,0.95,1.77,1.42,2.18c1.94,1.7,3.52-0.47,4.61-0.97c2.67-1.22,3.37,2.01,3.78,0.88c0.28-0.78,2.78-1.95,2.15-2.94
					c-1.33-2.1-4.65-10.66-4.51-12.36c0.41-5,5.8-14.23-2.92-19.84C844.78,174.32,832.19,175.91,831.58,177.38z"/>
				<path class="st116" d="M844.8,212.58c0,0-14.45,24.92-10.35,52.5c0.32,2.17,2.91,3.73,2.91,3.73l3.56-3.11
					C840.92,265.7,840.63,234.48,844.8,212.58z"/>
				<polygon class="st251" points="845.32,211.91 846.1,217.42 856.24,209 855.06,206.95 				"/>
				<polygon class="st251" points="842.35,208.36 840.78,209.69 840.69,215.52 844.69,212.04 				"/>
				<path class="st257" d="M834.42,202.51c0,0,0.71-0.39,1.99-1.24c0.42-0.28,1.67-1.09,2.37-1.31c3.09-0.95,3.01-0.65,4.77-1.6
					c2.01-1.07,5.78-4.19,5.78-4.19s-1.23,2.33-1.7,3.27c-0.89,1.76-2.24,2.61-3.45,3.12c-5.27,2.21-4.92,2.6-5.64,2.63
					C838.49,203.18,838.1,202.98,834.42,202.51z"/>
				<path class="st121" d="M831.86,186.71c0.02,0.42-1.45,4.07-1.73,4.74c-0.27,0.68-0.65,1.53-0.53,1.77
					c0.13,0.24,0.82,0.93,1.13,1.18c0.31,0.25,1.49,1.29,1.69-0.45C832.63,192.21,831.86,186.71,831.86,186.71z"/>
				<path class="st116" d="M847.7,174.99c-4.23-3.31-12.74-2.41-18.54,3.14c0,0,0.24,1.36,2.25,2.45c0,0,3.38-4.36,8.87-3.75
					c5.77,0.65,1.81,3.45,3.15,4.85c1.13,1.18,2.19,2.18,2.19,2.18l0.88,3.21l1.51,0.17c0,0,0.81-3.45,1.57-2.44
					c0.93,1.24,0.52,3.82,0.5,4.19c-0.02,0.37-0.07,0.98,0.1,1.08c0.14,0.08-0.27,2.06,0.17,5.42c0.71,0.01,1.59-0.97,2.01-3.1
					C853.33,187.61,852.87,179.03,847.7,174.99z"/>
				<path class="st121" d="M849.28,184.6c1.3-0.06,2.39,0.94,2.45,2.24c0.06,1.3-0.94,2.39-2.24,2.46L849.28,184.6z"/>
				<path class="st257" d="M833.78,193.15c0,0-2.74-0.67-3.02-0.59c-0.28,0.07-0.98,0.16-1,0.44c-0.02,0.28,0.41,0.98,1.77,1.74
					C831.87,194.92,831.67,194.23,833.78,193.15z"/>
				<rect x="827.91" y="416.1" class="st252" width="8.22" height="12.52"/>
				<rect x="887.79" y="416.1" class="st252" width="6.65" height="12.52"/>
				<path class="st260" d="M835.74,432.27h-6v-1.82l-2.61,1.82H812c0,0,0.26-2.48,10.44-2.87c2.61-0.1,4.44-3.65,4.44-3.65
					s1.3-1.17,3.26,1.56c0.51,0.71,6-0.65,6-0.65S836.65,430.32,835.74,432.27z"/>
				<path class="st116" d="M828.16,277.95l-0.72,67.83l14.34,7.92c0,0,8.61-16.18,9.68-36.84
					C852.54,296.2,828.16,277.95,828.16,277.95z"/>
				<path class="st123" d="M828.16,277.95l31.55,74.37l5.73,7.92l22.01,65.27l8.19-3.07c0,0,2.78-36.72-5.83-51.19
					c-8.6-14.46-12.9-22.38-12.9-22.38l-19-72.99L828.16,277.95z"/>
				<path class="st116" d="M837.06,424.75c2.6-13.3,8.11-38.05,8.31-46.6c0.36-15.84-2.15-26.86-2.15-26.86l-15.77-5.51l0.13,78.97
					H837.06z"/>
				<path class="st260" d="M886.9,434.56h4.06l1.28-1.28l0.55-3.13l1.29,1.29l4.25-4.24c-0.74-2.03-3.69-4.24-3.69-4.24
					s-2.92,4.85-3.78,4.7c-3.32-0.55-3.42,1.2-3.42,1.2S888.66,432.63,886.9,434.56z"/>
				<path class="st260" d="M891.12,429.96c-0.78,0.87-1.86,1.74-3.13,1.79c-10.17,0.39-10.43,2.87-10.43,2.87h13.57V429.96z"/>
				<g>
					<g class="st253">
						<g>
							<polygon class="st261" points="855.61,238.99 854.8,240.43 851.31,259.03 852.12,257.59 							"/>
						</g>
						<g>
							<polygon class="st262" points="855.61,238.99 854.8,240.43 851.31,259.03 852.12,257.59 							"/>
						</g>
						<g>
							<polygon class="st262" points="852.12,257.59 851.31,259.03 849,271.32 849.82,269.88 							"/>
						</g>
						<g class="st253">
							<defs>
								<path id="SVGID_51_" class="st253" d="M851.22,259.22c0.27-0.48,0.54-0.95,0.81-1.44c0.04-0.06,0.06-0.12,0.09-0.19
									l-0.81,1.44C851.28,259.1,851.25,259.16,851.22,259.22z"/>
							</defs>
							<clipPath id="SVGID_1_">
								<use xlink:href="#SVGID_51_"  style="overflow:visible;"/>
							</clipPath>
							<g style="clip-path:url(#SVGID_1_);enable-background:new    ;">
								<path class="st264" d="M852.12,257.59l-0.81,1.44c-0.02,0.07-0.06,0.13-0.09,0.19l0.81-1.44
									C852.06,257.73,852.09,257.66,852.12,257.59L852.12,257.59z"/>
							</g>
						</g>
						<g class="st253">
							<defs>
								<path id="SVGID_53_" class="st253" d="M872.21,285.44c-0.27,0.48-0.54,0.96-0.81,1.44c1.81-3.2,6.86-4.14,12.3-2.02
									c2.72,1.06,5.08,2.71,6.83,4.61c2.29,2.49,3.51,5.41,3.03,7.95c-0.11,0.6-0.31,1.15-0.59,1.64l0.81-1.44
									c0.28-0.49,0.48-1.04,0.59-1.64c0.48-2.55-0.74-5.46-3.03-7.95c-1.75-1.9-4.11-3.55-6.83-4.61
									C879.08,281.3,874.02,282.24,872.21,285.44z"/>
							</defs>
							<clipPath id="SVGID_2_">
								<use xlink:href="#SVGID_53_"  style="overflow:visible;"/>
							</clipPath>
							<g style="clip-path:url(#SVGID_2_);enable-background:new    ;">
								<path class="st266" d="M872.21,285.44l-0.81,1.44c1.46-2.58,5.03-3.69,9.21-2.92l0.81-1.44
									C877.24,281.75,873.67,282.87,872.21,285.44L872.21,285.44z"/>
								<path class="st267" d="M881.42,282.53l-0.81,1.44c0.76,0.14,1.55,0.35,2.34,0.62l0.81-1.44
									C882.96,282.88,882.18,282.67,881.42,282.53L881.42,282.53z"/>
								<path class="st264" d="M883.76,283.15l-0.81,1.44c0.25,0.08,0.5,0.17,0.75,0.27c0.45,0.18,0.89,0.37,1.32,0.57l0.81-1.44
									c-0.43-0.21-0.86-0.39-1.31-0.57C884.26,283.33,884.01,283.23,883.76,283.15L883.76,283.15z"/>
								<path class="st268" d="M885.83,283.99l-0.81,1.44c0.69,0.33,1.35,0.71,1.99,1.11l0.81-1.44
									C887.18,284.7,886.52,284.33,885.83,283.99L885.83,283.99z"/>
								<path class="st269" d="M887.81,285.1l-0.81,1.44c0.8,0.51,1.54,1.07,2.22,1.66l0.81-1.44
									C889.36,286.17,888.61,285.61,887.81,285.1L887.81,285.1z"/>
								<path class="st270" d="M890.04,286.76l-0.81,1.44c0.46,0.41,0.9,0.83,1.3,1.27c1.37,1.49,2.36,3.13,2.82,4.75l0.81-1.44
									c-0.47-1.62-1.45-3.26-2.82-4.75C890.94,287.6,890.5,287.17,890.04,286.76L890.04,286.76z"/>
								<path class="st269" d="M894.16,292.78l-0.81,1.44c0.2,0.69,0.31,1.37,0.31,2.03l0.81-1.44
									C894.47,294.15,894.36,293.47,894.16,292.78L894.16,292.78z"/>
								<path class="st268" d="M894.47,294.81l-0.81,1.44c0,0.4-0.03,0.79-0.1,1.17c-0.02,0.13-0.05,0.26-0.08,0.39l0.81-1.44
									c0.03-0.12,0.06-0.25,0.09-0.38C894.44,295.6,894.47,295.21,894.47,294.81L894.47,294.81z"/>
								<path class="st264" d="M894.28,296.37l-0.81,1.44c-0.12,0.45-0.29,0.87-0.51,1.26l0.81-1.44
									C893.99,297.24,894.17,296.82,894.28,296.37L894.28,296.37z"/>
							</g>
						</g>
						<g class="st253">
							<defs>
								<path id="SVGID_55_" class="st253" d="M825.22,251.79c-0.22,0.38-0.43,0.77-0.65,1.15c-0.06,0.1-0.11,0.19-0.16,0.29
									c-0.28,0.5-0.48,1.05-0.59,1.65c-0.48,2.55,0.74,5.46,3.04,7.95c1.74,1.9,4.11,3.55,6.82,4.61c3.67,1.43,7.15,1.45,9.6,0.35
									c0.72-0.31,1.73-0.31,2.79,0.1c0.8,0.31,1.5,0.8,2.01,1.36c0.59,0.64,0.94,1.37,0.93,2.05l0.81-1.44
									c0-0.68-0.35-1.41-0.93-2.05c-0.52-0.56-1.21-1.05-2.02-1.36c-1.06-0.42-2.07-0.42-2.79-0.11c-2.45,1.1-5.93,1.08-9.6-0.36
									c-2.71-1.06-5.08-2.71-6.82-4.61c-2.29-2.5-3.51-5.41-3.04-7.95C824.73,252.84,824.94,252.29,825.22,251.79z"/>
							</defs>
							<clipPath id="SVGID_3_">
								<use xlink:href="#SVGID_55_"  style="overflow:visible;"/>
							</clipPath>
							<g style="clip-path:url(#SVGID_3_);enable-background:new    ;">
								<path class="st264" d="M825.22,251.79l-0.81,1.44c-0.22,0.39-0.39,0.81-0.51,1.27l0.81-1.44
									C824.82,252.6,825,252.18,825.22,251.79L825.22,251.79z"/>
								<path class="st268" d="M824.71,253.06l-0.81,1.44c-0.04,0.13-0.06,0.26-0.09,0.38c-0.07,0.38-0.1,0.77-0.1,1.16l0.81-1.44
									c0-0.39,0.03-0.78,0.1-1.16C824.64,253.32,824.68,253.18,824.71,253.06L824.71,253.06z"/>
								<path class="st269" d="M824.52,254.61l-0.81,1.44c0,0.66,0.11,1.35,0.31,2.03l0.81-1.44
									C824.63,255.96,824.53,255.27,824.52,254.61L824.52,254.61z"/>
								<path class="st270" d="M824.83,256.64l-0.81,1.44c0.47,1.63,1.46,3.26,2.83,4.76c0.4,0.44,0.84,0.86,1.3,1.27l0.81-1.44
									c-0.46-0.41-0.9-0.83-1.3-1.27C826.29,259.91,825.3,258.27,824.83,256.64L824.83,256.64z"/>
								<path class="st269" d="M828.96,262.67l-0.81,1.44c0.68,0.6,1.43,1.16,2.23,1.67l0.81-1.44
									C830.39,263.83,829.65,263.26,828.96,262.67L828.96,262.67z"/>
								<path class="st268" d="M831.19,264.33l-0.81,1.44c0.63,0.4,1.29,0.77,1.99,1.11l0.81-1.44
									C832.48,265.1,831.82,264.74,831.19,264.33L831.19,264.33z"/>
								<path class="st264" d="M833.17,265.44l-0.81,1.44c0.42,0.2,0.86,0.4,1.3,0.57c0.25,0.1,0.51,0.19,0.75,0.27l0.81-1.44
									c-0.25-0.08-0.5-0.17-0.75-0.28C834.03,265.83,833.6,265.64,833.17,265.44L833.17,265.44z"/>
								<path class="st267" d="M835.23,266.28l-0.81,1.44c0.79,0.27,1.57,0.47,2.32,0.62l0.81-1.44
									C836.79,266.75,836.02,266.55,835.23,266.28L835.23,266.28z"/>
								<path class="st266" d="M837.55,266.89l-0.81,1.44c2.5,0.47,4.78,0.25,6.53-0.53c0.51-0.22,1.18-0.29,1.91-0.15l0.81-1.44
									c-0.72-0.14-1.39-0.07-1.9,0.15C842.32,267.15,840.05,267.37,837.55,266.89L837.55,266.89z"/>
								<path class="st267" d="M845.98,266.21l-0.81,1.44c0.22,0.04,0.44,0.1,0.66,0.18l0.82-1.44
									C846.42,266.31,846.2,266.25,845.98,266.21L845.98,266.21z"/>
								<path class="st264" d="M846.65,266.39l-0.82,1.44c0.08,0.02,0.15,0.05,0.22,0.08c0.13,0.05,0.26,0.11,0.39,0.17l0.81-1.44
									c-0.13-0.06-0.26-0.12-0.39-0.17C846.8,266.44,846.72,266.41,846.65,266.39L846.65,266.39z"/>
								<path class="st268" d="M847.26,266.64l-0.81,1.44c0.2,0.1,0.4,0.21,0.59,0.32l0.81-1.44
									C847.66,266.84,847.46,266.73,847.26,266.64L847.26,266.64z"/>
								<path class="st269" d="M847.84,266.96l-0.81,1.44c0.23,0.15,0.45,0.32,0.66,0.49l0.81-1.44
									C848.29,267.28,848.08,267.11,847.84,266.96L847.84,266.96z"/>
								<path class="st270" d="M848.5,267.45l-0.81,1.44c0.14,0.12,0.26,0.25,0.38,0.38c0.41,0.44,0.7,0.93,0.84,1.42l0.81-1.44
									c-0.14-0.48-0.43-0.97-0.84-1.42C848.76,267.7,848.63,267.58,848.5,267.45L848.5,267.45z"/>
								<path class="st269" d="M849.72,269.24l-0.81,1.44c0.06,0.2,0.09,0.41,0.09,0.61l0.81-1.44
									C849.81,269.65,849.78,269.45,849.72,269.24L849.72,269.24z"/>
								<path class="st268" d="M849.82,269.86l-0.81,1.44c0,0.01,0,0.01,0,0.02l0.81-1.44
									C849.82,269.87,849.82,269.86,849.82,269.86L849.82,269.86z"/>
							</g>
						</g>
						<g class="st253">
							<defs>
								<path id="SVGID_57_" class="st253" d="M887.28,301.57l-0.81,1.44c-0.08,0.15-0.14,0.3-0.17,0.48
									c-0.02,0.15-0.02,0.3-0.02,0.44l0.81-1.44c0-0.15,0-0.29,0.02-0.44C887.14,301.87,887.19,301.71,887.28,301.57z"/>
							</defs>
							<clipPath id="SVGID_4_">
								<use xlink:href="#SVGID_57_"  style="overflow:visible;"/>
							</clipPath>
							<g style="clip-path:url(#SVGID_4_);enable-background:new    ;">
								<path class="st264" d="M887.28,301.57l-0.81,1.44c-0.06,0.11-0.11,0.23-0.14,0.36l0.81-1.44
									C887.16,301.8,887.21,301.68,887.28,301.57L887.28,301.57z"/>
								<path class="st268" d="M887.13,301.94l-0.81,1.44c-0.01,0.04-0.02,0.07-0.03,0.11c-0.02,0.12-0.02,0.25-0.02,0.37l0.81-1.44
									c0-0.12,0-0.25,0.02-0.37C887.11,302.01,887.12,301.97,887.13,301.94L887.13,301.94z"/>
								<path class="st269" d="M887.08,302.41l-0.81,1.44c0,0.02,0,0.05,0,0.07l0.81-1.44
									C887.08,302.46,887.08,302.44,887.08,302.41L887.08,302.41z"/>
							</g>
						</g>
						<g class="st253">
							<defs>
								<path id="SVGID_59_" class="st253" d="M887.08,302.48l-0.81,1.44c0.03,0.25,0.06,0.36,0.08,0.45l0.81-1.44
									C887.14,302.84,887.11,302.74,887.08,302.48z"/>
							</defs>
							<clipPath id="SVGID_5_">
								<use xlink:href="#SVGID_59_"  style="overflow:visible;"/>
							</clipPath>
							<g style="clip-path:url(#SVGID_5_);enable-background:new    ;">
								<path class="st269" d="M887.08,302.48l-0.81,1.44c0.03,0.25,0.06,0.36,0.08,0.45l0.81-1.44
									C887.14,302.84,887.11,302.74,887.08,302.48L887.08,302.48z"/>
							</g>
						</g>
						<g class="st253">
							<defs>
								<path id="SVGID_61_" class="st253" d="M887.15,302.94l-0.81,1.44c0.48,1,0.64,1.21,0.82,1.42l0.82-1.44
									C887.79,304.15,887.64,303.94,887.15,302.94z"/>
							</defs>
							<clipPath id="SVGID_6_">
								<use xlink:href="#SVGID_61_"  style="overflow:visible;"/>
							</clipPath>
							<g style="clip-path:url(#SVGID_6_);enable-background:new    ;">
								<path class="st270" d="M887.15,302.94l-0.81,1.44c0.48,1,0.64,1.21,0.82,1.42l0.82-1.44
									C887.79,304.15,887.64,303.94,887.15,302.94L887.15,302.94z"/>
							</g>
						</g>
						<g class="st253">
							<defs>
								<path id="SVGID_63_" class="st253" d="M887.98,304.36l-0.82,1.44c0.16,0.17,0.26,0.26,0.37,0.36l0.81-1.44
									C888.23,304.62,888.14,304.53,887.98,304.36z"/>
							</defs>
							<clipPath id="SVGID_7_">
								<use xlink:href="#SVGID_63_"  style="overflow:visible;"/>
							</clipPath>
							<g style="clip-path:url(#SVGID_7_);enable-background:new    ;">
								<path class="st270" d="M887.98,304.36l-0.82,1.44c0.16,0.17,0.26,0.26,0.37,0.36l0.81-1.44
									C888.23,304.62,888.14,304.53,887.98,304.36L887.98,304.36z"/>
							</g>
						</g>
						<g>
							<polygon class="st276" points="888.77,305.07 887.96,306.51 914.91,317.04 915.72,315.6 							"/>
						</g>
						<g class="st253">
							<defs>
								<path id="SVGID_65_" class="st253" d="M888.34,304.72l-0.81,1.44c0.17,0.15,0.29,0.25,0.43,0.35l0.81-1.44
									C888.63,304.97,888.51,304.87,888.34,304.72z"/>
							</defs>
							<clipPath id="SVGID_8_">
								<use xlink:href="#SVGID_65_"  style="overflow:visible;"/>
							</clipPath>
							<g style="clip-path:url(#SVGID_8_);enable-background:new    ;">
								<path class="st270" d="M888.34,304.72l-0.81,1.44c0.01,0.01,0.03,0.03,0.05,0.04l0.81-1.44
									C888.37,304.75,888.36,304.73,888.34,304.72L888.34,304.72z"/>
								<path class="st269" d="M888.39,304.76l-0.81,1.44c0.15,0.12,0.26,0.22,0.39,0.31l0.81-1.44
									C888.65,304.98,888.53,304.89,888.39,304.76L888.39,304.76z"/>
							</g>
						</g>
						<g class="st253">
							<defs>
								<path id="SVGID_67_" class="st253" d="M874.85,298.77l-0.81,1.44c0.63-0.49,0.68-0.55,0.73-0.63l0.81-1.44
									C875.53,298.21,875.47,298.28,874.85,298.77z"/>
							</defs>
							<clipPath id="SVGID_9_">
								<use xlink:href="#SVGID_67_"  style="overflow:visible;"/>
							</clipPath>
							<g style="clip-path:url(#SVGID_9_);enable-background:new    ;">
								<path class="st266" d="M874.85,298.77l-0.81,1.44c0.63-0.49,0.68-0.55,0.73-0.63l0.81-1.44
									C875.53,298.21,875.47,298.28,874.85,298.77L874.85,298.77z"/>
							</g>
						</g>
						<g class="st253">
							<defs>
								<path id="SVGID_69_" class="st253" d="M873.72,299.03l-0.81,1.44c0.2-0.01,0.34-0.02,0.46-0.05
									c0.26-0.05,0.48-0.12,0.67-0.21l0.81-1.44c-0.19,0.09-0.4,0.16-0.67,0.21C874.05,299.01,873.92,299.02,873.72,299.03z"/>
							</defs>
							<clipPath id="SVGID_10_">
								<use xlink:href="#SVGID_69_"  style="overflow:visible;"/>
							</clipPath>
							<g style="clip-path:url(#SVGID_10_);enable-background:new    ;">
								<path class="st266" d="M873.72,299.03l-0.81,1.44c0.2-0.01,0.34-0.02,0.46-0.05c0.26-0.05,0.48-0.12,0.67-0.21l0.81-1.44
									c-0.19,0.09-0.4,0.16-0.67,0.21C874.05,299.01,873.92,299.02,873.72,299.03L873.72,299.03z"/>
							</g>
						</g>
						<g class="st253">
							<defs>
								<path id="SVGID_71_" class="st253" d="M873.28,299.01l-0.81,1.44c0.15,0.01,0.3,0.02,0.44,0.02l0.81-1.44
									C873.58,299.03,873.43,299.03,873.28,299.01z"/>
							</defs>
							<clipPath id="SVGID_11_">
								<use xlink:href="#SVGID_71_"  style="overflow:visible;"/>
							</clipPath>
							<g style="clip-path:url(#SVGID_11_);enable-background:new    ;">
								<path class="st266" d="M873.28,299.01l-0.81,1.44c0.15,0.01,0.3,0.02,0.44,0.02l0.81-1.44
									C873.58,299.03,873.43,299.03,873.28,299.01L873.28,299.01z"/>
							</g>
						</g>
						<g>
							<polygon class="st276" points="846.33,288.49 845.52,289.92 872.47,300.45 873.28,299.01 							"/>
						</g>
						<g>
							<polygon class="st262" points="849.82,269.88 849,271.32 845.52,289.92 846.33,288.49 							"/>
						</g>
						<path class="st281" d="M824.62,253.45c0.84-4.48,6.62-6.12,12.9-3.67c2.71,1.06,5.07,2.71,6.81,4.61
							c0.61,0.67,1.15,1.36,1.6,2.07c0.13,0.2,0.28,0.4,0.45,0.59c0.51,0.56,1.2,1.04,2,1.36c1.72,0.67,3.29,0.3,3.73-0.8l3.49-18.6
							L925,266.1l-9.28,49.5l-26.95-10.53c-0.14-0.1-0.27-0.21-0.43-0.35c-0.11-0.1-0.21-0.19-0.36-0.36
							c-0.19-0.21-0.34-0.42-0.82-1.42c-0.02-0.1-0.05-0.2-0.08-0.45c0-0.15,0-0.29,0.02-0.44c0.14-0.77,0.78-1.24,1.63-1.38
							c2.97-0.43,5.15-2.07,5.64-4.68c0.48-2.55-0.74-5.46-3.03-7.95c-1.75-1.9-4.11-3.55-6.83-4.61
							c-6.28-2.45-12.06-0.81-12.9,3.67c-0.48,2.54,0.74,5.45,3.25,8.17c0.68,0.74,1.06,1.6,0.92,2.35
							c-0.03,0.15-0.08,0.27-0.21,0.52c-0.05,0.07-0.1,0.14-0.73,0.63c-0.19,0.09-0.4,0.16-0.67,0.21
							c-0.13,0.02-0.26,0.03-0.46,0.04c-0.14,0-0.29,0-0.44-0.02l-26.95-10.53l3.49-18.61c0-0.68-0.35-1.41-0.93-2.05
							c-0.52-0.56-1.21-1.05-2.02-1.36c-1.06-0.42-2.07-0.42-2.79-0.11c-2.45,1.1-5.93,1.08-9.6-0.36
							c-2.71-1.06-5.08-2.71-6.82-4.61C825.37,258.9,824.15,255.99,824.62,253.45z"/>
					</g>
				</g>
				<path class="st121" d="M881.58,301.47c-0.87,1.61-6.4,3.19-6.4,3.19l-3.94-4.43h2.51l1.79-4.03l5.38,2.07
					C880.91,298.27,882.11,300.49,881.58,301.47z"/>
				<path class="st104" d="M870.1,232.5l18.64,28.58l2.51,0.35l-0.72,2.41l13.5-1.04l2.99-11.71l-26.17-38.56
					c0,0-8.15-7.41-21.51-5.51C849.67,208.4,868.67,230.09,870.1,232.5z"/>
				<path class="st121" d="M891.25,262.8l-13.84,38.47c0,0,3.01,0.92,4.76-0.64c4.74-4.22,13.01-15.7,15.89-21.99
					c3.94-8.61,6.09-17.9,6.09-17.9L891.25,262.8z"/>
				<path class="st251" d="M902.93,255.34c0,0-8.35,4.01-12.77,5.94l1.09,0.15l-0.72,2.41l4.66-0.4l6.54-1.54l0.36-2.77h-2.03
					L902.93,255.34z"/>
			</g>
			<path class="st257" d="M784.87,261.23l-9.63-5.59l-6.21,0.71c0,0-0.7,1.45,1.42,2.52c2.12,1.06,4.79,1.39,4.79,1.39l4.13,6.15
				c0,0-4.03,2.39-5.1,1.86c-1.07-0.53-5.26-2.51-5.26-2.51s2.43,5.18,5.02,5.18c2.59,0,5.34,0,7.29-0.32
				c1.94-0.32,2.59-5.83,4.53-6.8C787.78,262.85,784.87,261.23,784.87,261.23z"/>
		</g>
		<g>
			<polygon class="st121" points="778.66,267.61 775.79,268.62 764,264.73 768.61,256.45 770.16,258.89 774.28,258.72 
				779.45,265.96 			"/>
			<g>
				<path class="st121" d="M765.66,225.64l23.94-21.9c0,0,1.59,1.93,0.99,3.68c-1.64,4.76-7.52,14.32-11.25,18.36
					c-5.1,5.51-11.25,9.93-11.25,9.93L765.66,225.64z"/>
				<g>
					<g>
						<path class="st121" d="M789.64,209.65l3.02-2.57c0,0,1.49-1.15,2.74-3.07c1.25-1.92,0.53-3.79-1.08-5.33
							c-1.62-1.53-2.83-1.71-2.83-1.71s-2.6,1.16-2.27,3.48c0.34,2.32-2.01,7.47-1.13,7.84
							C788.99,208.66,789.64,209.65,789.64,209.65z"/>
						<polygon class="st121" points="790.38,197.43 793.39,194.19 796.32,191.3 796.7,192.14 794.9,194.48 793.94,199.38 
							792.75,198.72 						"/>
						<polygon class="st121" points="795.94,195.68 799.17,193.99 799.76,194.71 796.87,196.95 794.77,200.24 792.75,198.72 						
							"/>
						<polygon class="st121" points="800.37,196.17 797.71,197.35 795.83,197.9 794.54,199.62 795.74,201.33 797.08,199.43 
							800.32,197.28 						"/>
						<polygon class="st121" points="800.96,199.03 795.87,200.33 795.03,201.62 795.79,202.84 797.86,201.41 800.59,199.87 						
							"/>
					</g>
					<path class="st121" d="M786.59,209.58c1.65-1.67,1.29-4.16,1.29-4.16s-0.75-6.22,0.16-7.24c0.91-1.02,1.48-3.68,1.48-3.68
						s0.78-0.99,1.11,1.52c0.21,1.64-0.1,3.12-0.1,3.12s1.68,3.39,1.55,4.49c-0.26,2.27-4.34,6.25-4.34,6.25
						S786.38,209.8,786.59,209.58z"/>
				</g>
				<path class="st282" d="M737.01,219.4l26.62,4.92l1.02,1.73l1.55-1.27l3.37,10.21l-7.66,5.76l-36.24-7.38
					c0,0-7.92-3.71-10.6-14.07C713.11,211.8,734.81,219.09,737.01,219.4z"/>
				<path class="st250" d="M763.76,236.47c0,0,0.38-7.34,0.45-11.17l0.44,0.76l1.55-1.27l1.14,3.54l0.87,5.26l-1.92,1.11l-0.62-1.49
					L763.76,236.47z"/>
			</g>
			<g>
				<path class="st257" d="M724.34,211.45c0.36,3.37-0.87,6.59-2.72,7.09c-1.78,0.34-3.55,0.68-5.34,1.03
					c-1.9,0.22-4.24-2.31-5.16-5.57c-1.49-5.39-2.98-10.77-4.47-16.16c-0.92-3.22-0.9-10.05,1.56-12.55
					c2.26-2.23,5.24-2.8,8.17-1.57c3.21,1.4,5.76,7.74,6.11,11.07C723.11,200.34,723.73,205.9,724.34,211.45z"/>
				<path class="st121" d="M739.38,261.7l30.01,0.89c0,0-22.24,13.39-30.31,6.64C730.99,262.47,739.38,261.7,739.38,261.7z"/>
				<path class="st256" d="M725.46,440.63l-0.06,3.05l-16.94-0.36l-0.22-8.2l10.22-0.12C718.45,435,723.86,440.16,725.46,440.63z"/>
				<path class="st116" d="M712.96,296.7c0,0,7.71,50.39,16.38,72.61c7.69,19.69,17.68-5.5,17.68-5.5l-13-84.54l-24.34-2.37
					C709.68,276.9,707.99,277.48,712.96,296.7z"/>
				<path class="st123" d="M728.92,281.33l2.31,32.43l-4.28,2.4c0,0-3.47,48.03-4.32,50.44c-4.86,13.82-16.52,5.22-18.03,0.54
					c-1.51-4.67-3.47-39.06-2.4-64.1c1.07-25.04,1.07-25.04,1.07-25.04L728.92,281.33z"/>
				<path class="st123" d="M721.88,353.67c0,0,1.77,8.61,1.15,24.8c-0.4,10.26-1.98,37.41-4.29,57.61
					c-0.14,1.24-10.23,0.08-10.23,0.08s-4.76-65.8-5.03-78.52C703.4,353.8,714,344.44,721.88,353.67z"/>
				<path class="st250" d="M725.14,214.34l-15.85-3.55l-8.13,9.15c0,0-6.03,8.08-6.16,26.25c-0.13,18.2,6.03,51.92,6.03,51.92
					l36.28-11.66C737.31,286.45,735.62,222.55,725.14,214.34z"/>
				<path class="st282" d="M705.61,219.26c0,0-7.01,3.61-3.64,14.01c5.72,17.74,17.68,32.36,19.93,35.29
					c2.25,2.93,10.11,10.01,15.36,7.67c5.24-2.34,5.24-2.34,5.24-2.34l0.36-11.83l-3.48-0.35l-2.06-0.39c0,0-7.27-11.53-13.33-22.75
					C717.91,227.34,705.61,219.26,705.61,219.26z"/>
				<polygon class="st282" points="723.13,214.87 720.88,221.42 706.6,213.95 708.09,209.71 				"/>
				<polygon class="st282" points="724.33,211.86 724.01,213.57 727.21,218.23 727.12,214.41 				"/>
				<path class="st116" d="M742.96,362.59c0,0-2.85,0.87-11.86,0.99c-8.98,0.13,10.02,72.76,10.02,72.76l12.84-4.41l-7.63-72.86
					L742.96,362.59z"/>
				<path class="st256" d="M742.13,435.56l1.08,6.35l6.45,0.14c0,0,4.84,0.1,6.05,0.13c1.21,0.02,8.47,0.18,8.47,0.18l0.05-2.32
					c0,0-10.01-3.7-11.94-7.62C750.35,428.5,742.13,435.56,742.13,435.56z"/>
				<g>
					<path class="st116" d="M712.35,180.48l-0.73-3.8l1.56-0.3l4.13-0.8l2.5-0.48c2.75-0.53,5.42,1.27,5.95,4.03l0.73,3.79
						l-1.57,0.3l-4.13,0.8l-2.5,0.48C715.54,185.04,712.88,183.24,712.35,180.48z"/>
					<path class="st121" d="M708.93,205.03c0.47,2.45,2.84,4.05,5.29,3.58l10.07-1.94c2.45-0.47,4.06-2.84,3.59-5.29l-3.88-20.15
						c-0.47-2.45-2.84-4.06-5.29-3.58l-10.07,1.94c-2.45,0.47-4.06,2.84-3.58,5.3L708.93,205.03z"/>
					<path class="st116" d="M711.3,176.75c-1.74,0.34-3.11,1.54-3.74,3.06l-1.71,0.33c-2.13,0.41-3.53,2.48-3.12,4.61l1.84,9.56
						l2.72-0.52l-0.75-3.89c-0.29-1.5,0.7-2.95,2.2-3.24l1.59-0.31l4.13-0.79l2.5-0.48c2.76-0.53,4.56-3.2,4.03-5.96l-0.79-4.08
						L711.3,176.75z"/>
					<path class="st121" d="M708.62,196.1c-0.25-1.3-1.52-2.16-2.83-1.91l-0.2,0.04c-1.31,0.25-2.17,1.52-1.91,2.82l0.55,2.88
						c0.25,1.31,1.52,2.17,2.82,1.92l0.2-0.04c0.97-0.19,1.69-0.93,1.9-1.83L708.62,196.1z"/>
				</g>
			</g>
		</g>
	</g>
	<g>
		<g>
			<path class="st121" d="M778.11,471.54c0,0,3,0.41,1.33,16.51c-1.67,16.11-7.76,39.38-7.76,39.38l0.71-37.48
				C772.39,489.94,773.29,475.62,778.11,471.54z"/>
			<path class="st121" d="M774.08,514.87c-0.58,7.68,2.66,11.21,3.52,14.34c0.86,3.12,2.29,6.29,2.26,6.27
				c-2.86-1.92-2.75-4.41-3.63-5.71c-0.87-1.31-0.41-0.95-0.8,1.76c-0.23,1.55,2.06,4.45,3.29,6.52c1.07,1.79,1.08,2.86,1.08,2.86
				s-2.37-2.16-4.21-4.84c-2.21-3.23-3.98-7.15-4.23-8.07c-0.46-1.68-0.23-6.82,0.49-10.45
				C772.66,513.45,774.5,509.33,774.08,514.87z"/>
		</g>
		<polygon class="st121" points="779.48,664.66 778.54,685.75 765.27,686.8 759.38,686.08 771.08,682.39 772.39,664.85 		"/>
		<path class="st293" d="M777.52,688.46l-2.89,0.37l-0.5-0.81l-10.98,0.15l-5.31-1.39c0,0-0.22-0.93,0.28-1.22
			c1.5-0.85,7.18-1.31,7.18-1.31s-0.75,1.06-0.15,1.52c0.59,0.47,7.91,0.2,9.71-0.09c3.12-0.52,4.11-1.45,4.21-1.19
			C779.31,685.17,777.52,688.46,777.52,688.46z"/>
		<path class="st123" d="M775.44,511.65l-1.79,79.79l-5.43,78.3l11.96,0.94c0,0,11.17-78.89,12.5-85.72
			c1.32-6.82,15.49-61.57,8.88-75.54C794.96,495.46,775.44,511.65,775.44,511.65z"/>
		<path class="st121" d="M822.26,467.26c6.68,8.06,10.06,41.23,10.06,41.23s-2.2,12.7-14.48-29.89
			C814.14,465.81,820.61,465.27,822.26,467.26z"/>
		<path class="st121" d="M829.49,537.12l2.79-3.07l1.52-3.03l0.42-5.47c0,0-0.27-5.85-1.17-8.02c-0.9-2.17-0.7-10.84-1.02-11.91
			c-0.33-1.06-5.78-2.36-5.78-2.36s2.4,8.98,3.05,12.62c0.65,3.64-0.22,9.15-0.02,10.59c0.35,2.46,1.28,4.38,1.28,4.38
			s0.15-3.89,0.07-4.91c-0.08-1.02,1.1-0.57,1.1-0.57s0.36,5.36-0.14,6.79c-0.49,1.42-1.43,2.53-1.43,2.53L829.49,537.12z"/>
		<path class="st251" d="M786.62,448.71l-4.29,44.96v2.62l-12.87-0.75c0,0,3.73-34.71,4.29-36.38c0.56-1.68,1.87-16.23,1.68-18.85
			c-0.19-2.62,0.37-15.67,8.96-14.37C792.96,427.25,786.62,448.71,786.62,448.71z"/>
		<path class="st251" d="M814.44,448.71l4.29,44.96v2.62l12.88-0.75c-5.8-26.31-7.11-31.54-7.28-36.38
			c-0.06-1.77-0.37-16.23-0.18-18.85c0.18-2.62,0.36-9.7-7.47-14.37C809.22,421.49,814.44,448.71,814.44,448.71z"/>
		<path class="st121" d="M800.56,662.23l0.19,27.06l11.2-3.92c0,0,4.73-3.43,0.65-2.98c-5.97,0.65-4.76-1.87-4.94-6.72
			c-0.19-4.85,0.74-14.18,0.74-14.18L800.56,662.23z"/>
		<path class="st293" d="M813.44,682.39c0,0-1.27,1.19-2.61,2.05c-1.31,0.84-5.07,2.7-6.53,2.99c-1.87,0.37-3.64,0.19-3.64,0.19
			s-0.84,2.79,1.02,2.61c1.86-0.19,11.2-4.3,12.5-5.23C815.49,684.07,815.68,682.57,813.44,682.39z"/>
		<path class="st123" d="M803.05,513.14l-1.42,73.18l-1.32,77.59l9.45-0.5c0,0,9.54-78.1,10.34-85.01
			c0.8-6.9,12.24-52.84,4.59-66.26C817.05,498.72,803.05,513.14,803.05,513.14z"/>
		<path class="st104" d="M801.19,422.45c0,0-14.68,0.99-18.16,2.48c-3.49,1.5-2.73,18.66-0.5,31.35
			c2.24,12.68,1.24,26.87-1.99,34.83c-3.24,7.96-5.72,23.14-5.72,23.14l51.5-0.74c0,0-11.69-31.6-11.69-43.79s3.23-40.06,2.98-42.79
			C817.36,424.2,804.42,422.45,801.19,422.45z"/>
		<path class="st259" d="M779.12,417.51c-0.02-0.02-0.03-0.05-0.05-0.07c3.21-3.85,5.04-8.19,5.04-14.53c0-2.69-0.23-3.66-0.33-7.67
			c0.01,0,0.01-0.01,0.02-0.01c-0.03-0.38-0.09-0.75-0.09-1.14v-4.84c0-7.12,5.78-12.9,12.9-12.9h3.23c7.12,0,12.9,5.77,12.9,12.9
			v9.53c0.02,0.01,0.03,0.01,0.04,0.01c-0.01,0.3-0.03,0.6-0.04,0.9v0.52c0.1,7.61,3.9,14.32,9.71,18.54
			c4.1,1.97,6.93,6.15,6.93,10.99c0,6.12-4.51,11.17-10.4,12.05c-2.42,6.87-9.08,11.82-16.92,11.82c-6.78,0-12.68-3.69-15.72-9.13
			c-6.47-2.64-11.03-8.89-11.03-16.19C775.31,424.23,776.74,420.49,779.12,417.51z"/>
	</g>
	<g>
		<path class="st116" d="M473.98,298.42c0.39,0.52,0.1,1.91,0.1,1.91s-6.93,0.87-9.16,0.3c-0.58-0.15-1.56-0.69-2.48-1.27
			c-0.16-0.1-0.43-0.68-0.58-0.78c-0.28-0.18-0.43,0.12-0.66-0.04c-0.62-0.42-1.05-0.75-1.06-0.8c-0.6-3.48,0.22-4.89,0.22-4.89
			s5.91-2.17,7.01-0.68C469.96,295.71,473.12,297.27,473.98,298.42z"/>
		<path class="st116" d="M510.49,293.89l1.03,5.64h2.7c0,0,0.3-0.8,0.77-0.8c0.39,0,0.89,0.8,1.43,0.8c1.15,0,2.43,0,2.94,0
			c1.03,0,10.99,0,10.99,0s0.25-1.19-0.05-1.6c-0.15-0.21-1.07-0.58-1.68-0.75c-2.83-0.84-10.93-3.44-12.34-6.28
			C514.56,287.45,510.49,293.89,510.49,293.89z"/>
		<g>
			<polygon class="st121" points="472.77,169.76 466.99,166.55 466.31,165.84 467.11,164.55 468.38,164.71 468.16,160.94 
				474.21,159.87 477.31,158.42 474.44,168.62 			"/>
			<path class="st104" d="M499.55,78.01c0,0-6.47,7.13,13.46,25.96c19.93,18.83,23.57,13.32,23.57,13.32l6.02-4.01l4.47-20.95
				l-9.62-2.23l-1.04,1.24c0,0-2.07,0.2-3.11-1.27c-1.04-1.47-7.64-6.43-17.16-18.66C511.73,65.76,500.78,76.63,499.55,78.01z"/>
			<path class="st121" d="M545.46,93.52c0,0,20.1-0.37,21.71-21.29c0.48-6.22,2.07-0.2,3.17,5.74c1.1,5.94-2.58,22.69-13.32,29.41
				c-10.74,6.73-15.33,8.38-19.48,5.64C533.39,110.27,545.46,93.52,545.46,93.52z"/>
			<path class="st116" d="M515.81,293.92c0,0-3.12,4.52-5.41,0.29c-5.29-9.75-13.16-33.85-13.42-44.81
				c-0.38-15.72,2.29-26.66,2.29-26.66l16.76-5.47L515.81,293.92z"/>
			<path class="st116" d="M515.26,145.21l0.76,72.06l-15.23,8.41c0,0-9.14-17.19-10.28-39.14c-0.48-9.32-0.72-30.21,4.49-37.32
				C502.05,139.59,515.26,145.21,515.26,145.21z"/>
			<path class="st123" d="M509.7,145.21l-2.49,24.95l-6.77,27.05l-7.21,25.29l-25.73,70.19l-7.49,0.61c0,0,0.94-52.69,10.08-68.05
				c4.84-8.13,4.83-26.17,7.07-45.6c0.4-3.5-1.58-11.4-1.26-14.6c1.26-12.59,7.74-22.02,7.74-22.02L509.7,145.21z"/>
			<path class="st104" d="M515.51,146.31l-33-0.73l-14.09-47.19c0,0-9.14-28.53,8.38-28.89c17.52-0.37,37.7-0.37,37.7-0.37
				S528.97,95.74,515.51,146.31z"/>
			<path class="st121" d="M456.29,132.53l20.9,25.43c0,0-0.75,3.71-2.43,1.74c-0.2-0.24,0.81-0.98-0.46-1.68
				c-5.13-2.8-17.19-7.12-21.66-11.43c-5.87-5.67-10.05-12.34-10.05-12.34L456.29,132.53z"/>
			<path class="st250" d="M497.58,75.76c0,0,15.35,26.48,10.99,55.78c-0.34,2.31-3.09,3.96-3.09,3.96l-3.78-3.3
				C501.7,132.19,502,99.03,497.58,75.76z"/>
			<polygon class="st251" points="497.03,75.06 496.19,80.91 486.16,71.4 486.16,69.94 			"/>
			<polygon class="st251" points="500.19,71.28 501.94,78.89 497.49,75.06 			"/>
			<path class="st251" d="M529.95,97.1l2.62-4.73l1.16-1.83c1.09,0.94,2.67,0.79,2.67,0.79l-2.61,3.16l-2.39,4.28l-1.35,6.53
				L529.95,97.1z"/>
			<path class="st104" d="M470.01,97.56l-11.48,33.05l-2.49,0.99l1.38,2.19l-14.15,2.46l-6.22-10.8l16.53-44.86
				c0,0,6.39-9.43,20.63-10.99C484.53,68.47,470.83,94.81,470.01,97.56z"/>
			<path class="st251" d="M442.41,128.59c0,0,9.65,1.81,14.72,2.58l-1.08,0.43l1.38,2.19l-4.9,0.81l-7.14,0.16l-1.11-2.64l2.09-0.52
				L442.41,128.59z"/>
			<path class="st121" d="M484.92,62.87c0.38,1.81,1.04,4.62,1.78,6.26c1.14,2.56,11.04,5.85,12.57,6.22
				c1.52,0.36-0.38-7.68-0.38-9.51c0-1.4-0.9-0.96,0.18-2.97H484.92z"/>
		</g>
		<g>
			<path class="st121" d="M501.84,58.8c0.25,1.57-0.82,3.04-2.38,3.29l-12.77,2.05c-1.57,0.25-3.04-0.81-3.29-2.38l-3.03-18.91
				c-0.25-1.57,0.81-3.04,2.38-3.29l12.77-2.05c1.57-0.25,3.04,0.81,3.29,2.38L501.84,58.8z"/>
			<path class="st116" d="M499.45,43.78c0,0,1.42-2.11,1.56-3.28c0.07-0.59-0.83-2.66-2.38-3.26c-1.55-0.6-2.49,1.13-2.49,1.13
				s2.47,0.9,2.66,1.35C498.99,40.17,499.45,43.78,499.45,43.78z"/>
			<path class="st123" d="M480.42,51.56c0,0-3.1-6.96-3.08-9.14c0.01-2.19,0.01-3.7,2.57-4.36c3.84-0.98,4.02-0.16,5.72-1.65
				c1.7-1.49,4.65-4.88,5.77-5.35c1.88-0.78,5.03-0.62,5.74,3.02c0.52,2.69,2.33,3.08,2.3,3.19c-0.1,0.36-0.76,0.78-1.9,1.6
				c-3.26,2.34-5.33,3.04-8.17,2.76c-2.83-0.27-8.14-1-8.41,1.11c-0.27,2.11,0.95,8.21,0.8,8.73
				C481.6,51.98,480.95,51.84,480.42,51.56z"/>
			<path class="st121" d="M485.36,56.59c0.08,0.52-0.27,1.02-0.8,1.1l-2.76,0.44c-0.52,0.08-1.01-0.27-1.1-0.79l-0.81-5.05
				c-0.08-0.52,0.27-1.01,0.79-1.1l2.76-0.44c0.52-0.09,1.01,0.27,1.1,0.79L485.36,56.59z"/>
			<path class="st121" d="M501.81,53.95c0.08,0.52-0.27,1.01-0.79,1.1l-2.76,0.44c-0.52,0.08-1.01-0.27-1.1-0.8l-0.81-5.04
				c-0.08-0.52,0.27-1.01,0.79-1.1l2.76-0.44c0.52-0.08,1.01,0.27,1.1,0.79L501.81,53.95z"/>
			<path class="st123" d="M481.91,53.02c0,0,1.2,7.45,1.59,9.93c0.36,2.24,2.04,7.03,14.73,4.99c7.51-1.21,6.35-6.68,6.06-8.49
				c-0.22-1.38-2.45-5.26-3.37-5.93c-0.03-0.02,0.49,3.07,0.49,3.07s-2.04-2.74-5.61-2.17c-5.76,0.92-6.52,4.5-9.07,4.85
				C484.78,59.55,482.8,56.6,481.91,53.02z"/>
			<path class="st121" d="M494.22,59.7l3.94-0.63c0.52-0.08,0.88-0.58,0.79-1.1l-0.09-0.55l-5.83,0.94l0.09,0.55
				C493.21,59.42,493.7,59.78,494.22,59.7z"/>
		</g>
		<g>
			<path class="st121" d="M566.87,75.75c0,0-1.9-6.43-0.92-8.04c0.98-1.6,4.94-7.22,4.94-7.22l1.14-1.33c0,0,2.06,0.53-0.64,4.28
				c-2.7,3.75-0.46,2.69-0.46,2.69l3.64-2.39l4.68-2.55l1.94-1.42c0,0,1.05-0.89,1.46-0.88c1.2,0.05,0.72,1.02,0.72,1.02l-7.11,6.2
				l8.01-3.8c0,0,1.1-0.3,1.44,0.22c0.32,0.49,0,0.67,0,0.67l-8.12,6.59l4.33-1.46c0,0,1.09-0.27,1.45,0.23
				c0.39,0.54,0.51,0.67,0.51,0.67l-15.98,8.11L566.87,75.75z"/>
			<path class="st121" d="M577.39,67.4l5.78-2.32c0,0,1.24-0.67,2-0.6c0.87,0.09,0.83,0.9,0.83,0.9l-8.4,4.42L577.39,67.4z"/>
		</g>
	</g>
	<g>
		<path class="st123" d="M593.24,308.48c0,0-34.91,0.07-48.39,0.28c-9.32,0.14-10.17-13.15-6.49-15.15c11.16-6.08,46-9.2,46-9.2
			l23.7,21.76C608.06,306.16,606.73,306.13,593.24,308.48z"/>
		<path class="st258" d="M560.32,237.24c0,0-8.97-2.51-12.88,9.21c-6,17.99-5.47,34.48-4.63,38c0.39,1.62,1.54,7.21,11.57,7.42
			c4.06,0.08,2.44-8.63,2.44-8.63s2.61-7.4,5.38-19.92C564.98,250.79,560.32,237.24,560.32,237.24z"/>
		<path class="st259" d="M553.22,238.25l23.02-7.44l17.43-1.17l19.09,5.78c0,0,6.25,4.3,0.45,18.15
			c-5.8,13.84-3.57,35.53-3.57,35.53l-49.25,1.58c0,0-0.93-20.05-4.2-40.1C555.46,246.08,555.37,240.82,553.22,238.25z"/>
		<path class="st258" d="M587.01,289.69h-2.51c-2.62-19.36-2.5-39.33,0.39-58.62c0.76,0.45,1.52,0.9,2.27,1.36
			C586.53,252.15,587.61,271.88,587.01,289.69z"/>
		<g>
			<path class="st257" d="M577.23,236.23c0.34,2.66,2.51,4.97,4.8,5.08c2.17,0,4.34,0,6.51,0c2.29-0.11,4.46-2.42,4.8-5.08
				c0.53-4.39,1.07-8.78,1.6-13.17c0.36-2.63-1.21-7.92-4.67-9.48c-3.17-1.39-6.8-1.39-9.97,0c-3.46,1.56-5.03,6.85-4.67,9.48
				C576.16,227.45,576.69,231.84,577.23,236.23z"/>
		</g>
		<polygon class="st258" points="585.54,241.63 589.67,248.41 597.24,238.94 596.05,233.96 593.59,231.94 593.56,235.7 		"/>
		<polygon class="st258" points="585.04,241.63 580.91,248.41 573.86,239.59 575.02,234.18 576.78,231.91 577.5,236.33 		"/>
		<g>
			<path class="st116" d="M586.26,205.22c1.82,0,3.42,0.94,4.36,2.36h1.79c2.23,0,4.03,1.81,4.03,4.04v9.97h-2.84v-4.05
				c0-1.57-1.28-2.84-2.84-2.84h-1.66h2.63H590c-2.88,0-5.21-2.33-5.21-5.21v-4.26H586.26z"/>
			<path class="st257" d="M591.3,225.29c0,1.37,1.1,2.47,2.47,2.47h0.21c1.36,0,2.47-1.1,2.47-2.47v-3c0-1.36-1.11-2.47-2.47-2.47
				h-0.21c-1.01,0-1.88,0.61-2.26,1.47L591.3,225.29z"/>
			<path class="st116" d="M588.47,209.19v-3.96h-1.63h-4.31h-2.6c-2.88,0-5.21,2.33-5.21,5.21v3.96h1.64h4.31h2.6
				C586.14,214.39,588.47,212.06,588.47,209.19z"/>
			<path class="st121" d="M575.45,229.08c0.01,2.07,1.59,5.58,4.21,6.69c3.56,1.47,7.78,1.47,11.34,0c2.63-1.11,4.2-4.61,4.21-6.68
				c0-5.87,0-11.75,0-17.62c0.02-2.08-2.06-3.83-4.63-3.89c-3.5,0-7.01,0-10.51,0c-2.56,0.05-4.65,1.8-4.63,3.89
				C575.45,217.33,575.45,223.2,575.45,229.08z"/>
			<path class="st116" d="M583.31,205.22c-1.82,0-3.43,0.94-4.36,2.36h-1.79c-2.23,0-4.03,1.81-4.03,4.04v9.97h2.84v-4.05
				c0-1.57,1.27-2.84,2.84-2.84h0.03h-1h4.6c2.88,0,5.21-2.33,5.21-5.21v-4.26H583.31z"/>
			<path class="st121" d="M578.24,222.29c0-1.36-1.11-2.47-2.47-2.47h-0.21c-1.37,0-2.47,1.1-2.47,2.47v3
				c0,1.36,1.11,2.47,2.47,2.47h0.21c1.01,0,1.88-0.6,2.26-1.47L578.24,222.29z"/>
			<path class="st116" d="M587.65,210.21c-0.07-0.33-0.1-0.67-0.1-1.02v-3.96h1.64h2.05c2.88,0,5.21,2.33,5.21,5.21v3.96h-1.08
				h-0.55h-2.05c-0.37,0-0.72-0.04-1.07-0.11C591.28,212.24,589.68,210.63,587.65,210.21z"/>
		</g>
		<path class="st256" d="M633.36,375.23c0.54,0.65,0.15,2.37,0.15,2.37s-9.4,1.05-12.42,0.33c-0.79-0.18-2.11-0.86-3.36-1.58
			c-0.21-0.12-0.58-0.84-0.79-0.96c-0.38-0.23-0.57,0.15-0.9-0.05c-0.84-0.53-1.43-0.94-1.43-0.99c-0.83-4.31,0.27-6.05,0.27-6.05
			s8-2.66,9.5-0.81C627.9,371.86,632.18,373.8,633.36,375.23z"/>
		<path class="st256" d="M545.53,370.54l-0.65,7.1l-7.11,0.7c0,0-0.49-0.95-1.09-0.89c-0.51,0.05-1.07,1.1-1.75,1.17
			c-1.5,0.15-3.16,0.31-3.82,0.37c-1.33,0.13-14.26,1.4-14.26,1.4s-0.46-1.43-0.12-1.98c0.18-0.28,1.32-0.85,2.09-1.15
			c3.57-1.39,13.76-5.64,15.25-9.33C535.86,363.45,545.53,370.54,545.53,370.54z"/>
		<g>
			<path class="st121" d="M556.27,280.67l24.03,9.82c0,0-17.05,2.43-27.71,0.26C545.39,289.27,555.95,280.35,556.27,280.67z"/>
		</g>
		<path class="st123" d="M610.82,295.62c0,0,2.31,21.94,1.98,33.54c-0.25,8.75-0.27,25.52,1.81,39.81
			c0.13,0.88,11.31,0.22,11.31,0.22s4.01-54.4,5.2-63.36C632.31,296.87,628.85,290.41,610.82,295.62z"/>
		<path class="st116" d="M540.52,300.91c0,0,3.6,5.69,13.48,7.04c3.57,0.49-5.76,63.68-5.76,63.68l-14.6-4.68l2.82-69.88
			L540.52,300.91z"/>
		<path class="st116" d="M580.79,307.94c0,0,19.08,2.72,31.82,4.06c4.67,0.49,8.71-12.58,9.25-13.15c3.41-3.57,6.77-3.12,6.66-3.25
			c-2.76-2.98-17.05-5.75-31.98-9.25c-14.93-3.5-17.21-1.3-17.21-1.3L580.79,307.94z"/>
		<path class="st123" d="M596.54,286.35c14.93,3.5,29.23,6.27,31.98,9.25c0.12,0.13-3.25-0.32-6.66,3.25
			c-0.15,0.16-1.01,4.34-1.62,5.85c2.44-4.38-32.66-16.76-40.25-19.96C581.41,284.28,585.54,283.77,596.54,286.35z"/>
		<polygon class="st116" points="612.94,307.78 614.4,350.48 615.86,360.39 616.02,350.48 615.7,344.31 619.11,334.73 
			620.89,312.49 618.29,313.46 618.62,303.72 		"/>
		<path class="st123" d="M541.01,295.6l-3.57,0.97l-1.3,51.31l7.47,18.35l-3.57-12.5l1.46-25.82c0,0,5.2,12.5,5.2,11.85
			c0-0.65-4.38-27.11-4.38-27.11s4.87,4.06,4.38,3.9C546.21,316.38,543.77,298.04,541.01,295.6z"/>
		<path class="st259" d="M602.21,235.62c0,0,7.67-6.01,15.18,5.14c11,16.35,15.77,33.73,17.52,38.77c1.34,3.86,0.6,14.77-3.9,19.26
			c-1.08,1.08-7.57,0.22-7.57,0.22l-4.26-2.95l1.78-3.43l0.1-2.71c0,0-5.45-13.15-12.15-25.58
			C602.21,251.91,602.21,235.62,602.21,235.62z"/>
		<g>
			<path class="st121" d="M620.96,285.6l-24.9,1.3c0,0,23.99,11.01,24.78,9.11C625.33,285.26,620.96,285.6,620.96,285.6z"/>
			<g>
				<path class="st121" d="M607.26,284.83c-1.46-0.7-1.32-0.71-1.32-0.71s-1.33,1.58-3.26,1.88c-0.96,0.15-4.05,0.19-4.05,0.19
					l-4.59,0.11l-2.13-0.12c0,0-1.2-0.16-1.52,0.05c-0.93,0.6-0.13,1.07-0.13,1.07l8.22,1.17l-7.9,0.98c0,0-0.99,0.29-1.04,0.83
					c-0.04,0.5,0.29,0.48,0.29,0.48l9.18,0.98l-4.02,0.96c0,0-0.96,0.31-1.04,0.83c-0.08,0.57-0.12,0.72-0.12,0.72l8.44-0.83
					C602.27,293.42,608.72,285.53,607.26,284.83z"/>
				<path class="st121" d="M598.15,289.91l-5.52,1.01c0,0-1.26,0.09-1.82,0.49c-0.64,0.46-0.26,1.03-0.26,1.03l8.47-0.71
					L598.15,289.91z"/>
			</g>
		</g>
		<g>
			<path class="st288" d="M563.53,294.26c-0.01-0.02-0.02-0.03-0.03-0.05l0.03-1.57h49.07v1.57c0,0,0.01,0.03,0,0.05l-0.17,0.29
				c-0.84,1.36-2.33,1.61-4.05,1.61h-40.63c-1.72,0-3.21-0.24-4.05-1.61L563.53,294.26z"/>
			<g>
				<rect x="571.8" y="293" class="st289" width="32.49" height="1.11"/>
			</g>
			<g>
				<path class="st294" d="M563.56,292.81l-0.13-32.17c0-0.85,0.68-1.53,1.53-1.53h45.93c0.85,0,1.54,0.68,1.54,1.53l0.13,32.17
					H563.56z"/>
				<path class="st288" d="M585.01,275.95c0.01,1.64,1.34,2.98,2.99,2.98c1.64,0,2.97-1.33,2.96-2.98
					c-0.01-1.64-1.35-2.97-2.99-2.97C586.33,272.98,585.01,274.31,585.01,275.95z"/>
			</g>
		</g>
		<polygon class="st258" points="624.2,298.04 625.9,287.12 623.07,284.2 616.78,285.21 618.06,297.29 		"/>
		<polygon class="st259" points="547.83,290.2 547.18,286.19 555.14,279.04 559.44,280.99 553.81,291.76 		"/>
	</g>
</g>
</svg>
