<?xml version="1.0" encoding="utf-8"?>
<!-- Generator: Adobe Illustrator 23.0.3, SVG Export Plug-In . SVG Version: 6.00 Build 0)  -->
<svg version="1.1" id="Layer_1" xmlns="http://www.w3.org/2000/svg" xmlns:xlink="http://www.w3.org/1999/xlink" x="0px" y="0px"
	 viewBox="0 0 1190.55 720.01" style="enable-background:new 0 0 1190.55 720.01;" xml:space="preserve">
<style type="text/css">
	.st0{opacity:0.1;fill:#3772B9;enable-background:new    ;}
	.st1{fill:#302E41;}
	.st2{opacity:0.2;fill:#010101;enable-background:new    ;}
	.st3{fill:#3772B9;}
	.st4{fill:#666578;}
	.st5{fill:#F9BEBF;}
	.st6{opacity:0.1;fill:#010101;enable-background:new    ;}
	.st7{opacity:0.2;}
	.st8{fill:#403E56;}
	.st9{fill:#444276;}
	.st10{opacity:0.1;}
	.st11{fill:#010101;}
	.st12{fill:url(#XMLID_4107_);}
	.st13{fill:#3D5286;fill-opacity:0;}
	.st14{opacity:0.0244;fill:#3D5286;enable-background:new    ;}
	.st15{opacity:0.0488;fill:#3D5286;enable-background:new    ;}
	.st16{opacity:0.0732;fill:#3D5286;enable-background:new    ;}
	.st17{opacity:0.0976;fill:#3D5286;enable-background:new    ;}
	.st18{opacity:0.122;fill:#3D5286;enable-background:new    ;}
	.st19{opacity:0.1463;fill:#3D5286;enable-background:new    ;}
	.st20{opacity:0.1707;fill:#3D5286;enable-background:new    ;}
	.st21{opacity:0.1951;fill:#3D5286;enable-background:new    ;}
	.st22{opacity:0.2195;fill:#3D5286;enable-background:new    ;}
	.st23{opacity:0.2439;fill:#3D5286;enable-background:new    ;}
	.st24{opacity:0.2683;fill:#3D5286;enable-background:new    ;}
	.st25{opacity:0.2927;fill:#3D5286;enable-background:new    ;}
	.st26{opacity:0.3171;fill:#3D5286;enable-background:new    ;}
	.st27{opacity:0.3415;fill:#3D5286;enable-background:new    ;}
	.st28{opacity:0.3659;fill:#3D5286;enable-background:new    ;}
	.st29{opacity:0.3902;fill:#3D5286;enable-background:new    ;}
	.st30{opacity:0.4146;fill:#3D5286;enable-background:new    ;}
	.st31{opacity:0.439;fill:#3D5286;enable-background:new    ;}
	.st32{opacity:0.4634;fill:#3D5286;enable-background:new    ;}
	.st33{opacity:0.4878;fill:#3D5286;enable-background:new    ;}
	.st34{opacity:0.5122;fill:#3D5286;enable-background:new    ;}
	.st35{opacity:0.5366;fill:#3D5286;enable-background:new    ;}
	.st36{opacity:0.561;fill:#3D5286;enable-background:new    ;}
	.st37{opacity:0.5854;fill:#3D5286;enable-background:new    ;}
	.st38{opacity:0.6098;fill:#3D5286;enable-background:new    ;}
	.st39{opacity:0.6341;fill:#3D5286;enable-background:new    ;}
	.st40{opacity:0.6585;fill:#3D5286;enable-background:new    ;}
	.st41{opacity:0.6829;fill:#3D5286;enable-background:new    ;}
	.st42{opacity:0.7073;fill:#3D5286;enable-background:new    ;}
	.st43{opacity:0.7317;fill:#3D5286;enable-background:new    ;}
	.st44{opacity:0.7561;fill:#3D5286;enable-background:new    ;}
	.st45{opacity:0.7805;fill:#3D5286;enable-background:new    ;}
	.st46{opacity:0.8049;fill:#3D5286;enable-background:new    ;}
	.st47{opacity:0.8293;fill:#3D5286;enable-background:new    ;}
	.st48{opacity:0.8537;fill:#3D5286;enable-background:new    ;}
	.st49{opacity:0.878;fill:#3D5286;enable-background:new    ;}
	.st50{opacity:0.9024;fill:#3D5286;enable-background:new    ;}
	.st51{opacity:0.9268;fill:#3D5286;enable-background:new    ;}
	.st52{opacity:0.9512;fill:#3D5286;enable-background:new    ;}
	.st53{opacity:0.9756;fill:#3D5286;enable-background:new    ;}
	.st54{fill:#3D5286;}
	.st55{fill:#D2E1F1;}
	.st56{fill:url(#XMLID_4108_);}
	.st57{fill:#4A65A4;}
	.st58{fill:url(#XMLID_4109_);}
	.st59{fill:url(#XMLID_4110_);}
	.st60{fill:#FFFFFF;}
	.st61{fill:#DBE9F7;}
	.st62{fill:url(#XMLID_4111_);}
	.st63{fill:url(#XMLID_4112_);}
	.st64{opacity:0.3;fill:#4A65A4;enable-background:new    ;}
	.st65{fill:#F2B2B5;}
	.st66{fill:url(#XMLID_4124_);}
	.st67{fill:url(#XMLID_4125_);}
	.st68{fill:#A7CBEB;}
	.st69{fill:url(#XMLID_4126_);}
	.st70{fill:url(#XMLID_4127_);}
	.st71{fill:#EDF3FB;}
	.st72{fill:#EF9EA4;}
	.st73{fill:url(#XMLID_4128_);}
	.st74{fill:url(#XMLID_4129_);}
	.st75{fill:url(#XMLID_4130_);}
	.st76{fill:#FDC113;}
	.st77{fill:url(#XMLID_4163_);}
	.st78{fill:url(#XMLID_4164_);}
	.st79{fill:#FFDB6C;}
	.st80{fill:url(#XMLID_4165_);}
	.st81{fill:url(#XMLID_4166_);}
	.st82{fill:url(#XMLID_4167_);}
	.st83{fill:#FFCE3A;}
	.st84{fill:url(#XMLID_4168_);}
	.st85{fill:url(#XMLID_4169_);}
	.st86{fill:url(#XMLID_4170_);}
	.st87{fill:url(#XMLID_4171_);}
	.st88{fill:url(#XMLID_4172_);}
	.st89{fill:url(#XMLID_4173_);}
	.st90{fill:url(#XMLID_4174_);}
	.st91{fill:url(#XMLID_4175_);}
	.st92{fill:url(#XMLID_4176_);}
	.st93{fill:url(#XMLID_4177_);}
	.st94{opacity:0.6;fill:url(#XMLID_4178_);enable-background:new    ;}
	.st95{fill:url(#XMLID_4179_);}
	.st96{fill:#5E7EBF;}
	.st97{fill:#F8F6F9;}
	.st98{fill:url(#XMLID_4180_);}
	.st99{fill:url(#XMLID_4181_);}
	.st100{fill:url(#XMLID_4182_);}
	.st101{opacity:0.3;fill:#231F20;enable-background:new    ;}
	.st102{fill:url(#XMLID_4183_);}
	.st103{fill:#E5EEF9;}
	.st104{fill:#D2DCEA;}
	.st105{fill:#EAF7FE;}
	.st106{fill:none;stroke:#D2DCEA;stroke-width:2.5457;stroke-miterlimit:10;}
	.st107{fill:none;stroke:#D2DCEA;stroke-width:2.1192;stroke-miterlimit:10;}
	.st108{fill:#9EC1E1;}
	.st109{fill:none;stroke:#9EC1E1;stroke-width:1.3723;stroke-miterlimit:10;}
	.st110{fill:#1D1B50;}
	.st111{fill:#E2EDF9;}
	.st112{fill:#D9E5ED;}
	.st113{fill:#215CAA;}
	.st114{fill:#2E65B0;}
	.st115{fill:#E9AC86;}
	.st116{fill:#16405A;}
	.st117{fill:#EFBF96;}
	.st118{fill:#B5D1DE;}
	.st119{fill:#A1BAC6;}
	.st120{fill:#8EA2AC;}
	.st121{fill:#EAD7B9;}
	.st122{fill:#6591CC;}
	.st123{fill:#194967;}
	.st124{fill:#4C7ABD;}
	.st125{fill:#FDC12F;}
	.st126{fill:#B0D3F0;}
	.st127{fill:#FEBF13;}
	.st128{fill:#C2E0F5;}
	.st129{fill:#F2AA1E;}
	.st130{fill:#FFCF42;}
	.st131{fill:none;stroke:#B0D3F0;stroke-width:5.837;stroke-miterlimit:10;}
	.st132{fill:none;stroke:#B5D1DE;stroke-width:2.5823;}
	.st133{fill:url(#SVGID_1_);}
	.st134{fill:url(#SVGID_2_);}
	.st135{fill:#FBBF19;}
	.st136{opacity:0.5;fill:#8D8BC3;}
	.st137{opacity:0.5;fill:#F2A528;}
	.st138{fill:#E6E7E8;}
	.st139{fill:#818FA3;}
	.st140{fill:#DEE4F3;}
	.st141{fill:#F1F2F2;}
	.st142{fill:none;stroke:#E6E7E8;stroke-miterlimit:10;}
	.st143{fill:#D1D3D4;}
	.st144{fill:#FAA71A;}
	.st145{opacity:0.2;fill:#DEE4F3;}
	.st146{fill:none;stroke:#FEC14E;stroke-width:15;stroke-miterlimit:10;}
	.st147{fill:none;stroke:#D1D3D4;stroke-width:3;stroke-miterlimit:10;}
	.st148{fill:none;stroke:#818FA3;stroke-width:0.5;stroke-miterlimit:10;}
	.st149{fill:#0E1338;}
	.st150{opacity:0.5;fill:#D1D3D4;}
	.st151{fill:#BE1E2D;}
	.st152{fill:#8D8BC3;}
	.st153{fill:url(#SVGID_3_);}
	.st154{fill:url(#SVGID_4_);}
	.st155{fill:url(#SVGID_5_);}
	.st156{fill:url(#SVGID_6_);}
	.st157{fill:url(#SVGID_7_);}
	.st158{fill:url(#SVGID_8_);}
	.st159{fill:none;}
	.st160{fill:#6465AD;}
	.st161{fill:#D082B6;}
	.st162{fill:#4B51A0;}
	.st163{opacity:0.5;fill:#4B51A0;}
	.st164{fill:#722876;}
	.st165{fill:#F7941D;}
	.st166{opacity:0.3;fill:#F15A29;}
	.st167{fill:url(#SVGID_9_);}
	.st168{fill:url(#SVGID_10_);}
	.st169{opacity:0.5;fill:#FFE1B6;}
	.st170{fill:none;stroke:#9FB1CC;stroke-miterlimit:10;}
	.st171{fill:#FEC14E;}
	.st172{opacity:0.7;}
	.st173{opacity:0;fill:#3C5185;}
	.st174{opacity:0.0244;fill:#3C5185;}
	.st175{opacity:0.0488;fill:#3C5185;}
	.st176{opacity:0.0732;fill:#3C5185;}
	.st177{opacity:0.0976;fill:#3C5185;}
	.st178{opacity:0.122;fill:#3C5185;}
	.st179{opacity:0.1463;fill:#3C5185;}
	.st180{opacity:0.1707;fill:#3C5185;}
	.st181{opacity:0.1951;fill:#3C5185;}
	.st182{opacity:0.2195;fill:#3C5185;}
	.st183{opacity:0.2439;fill:#3C5185;}
	.st184{opacity:0.2683;fill:#3C5185;}
	.st185{opacity:0.2927;fill:#3C5185;}
	.st186{opacity:0.3171;fill:#3C5185;}
	.st187{opacity:0.3415;fill:#3C5185;}
	.st188{opacity:0.3659;fill:#3C5185;}
	.st189{opacity:0.3902;fill:#3C5185;}
	.st190{opacity:0.4146;fill:#3C5185;}
	.st191{opacity:0.439;fill:#3C5185;}
	.st192{opacity:0.4634;fill:#3C5185;}
	.st193{opacity:0.4878;fill:#3C5185;}
	.st194{opacity:0.5122;fill:#3C5185;}
	.st195{opacity:0.5366;fill:#3C5185;}
	.st196{opacity:0.561;fill:#3C5185;}
	.st197{opacity:0.5854;fill:#3C5185;}
	.st198{opacity:0.6098;fill:#3C5185;}
	.st199{opacity:0.6341;fill:#3C5185;}
	.st200{opacity:0.6585;fill:#3C5185;}
	.st201{opacity:0.6829;fill:#3C5185;}
	.st202{opacity:0.7073;fill:#3C5185;}
	.st203{opacity:0.7317;fill:#3C5185;}
	.st204{opacity:0.7561;fill:#3C5185;}
	.st205{opacity:0.7805;fill:#3C5185;}
	.st206{opacity:0.8049;fill:#3C5185;}
	.st207{opacity:0.8293;fill:#3C5185;}
	.st208{opacity:0.8537;fill:#3C5185;}
	.st209{opacity:0.878;fill:#3C5185;}
	.st210{opacity:0.9024;fill:#3C5185;}
	.st211{opacity:0.9268;fill:#3C5185;}
	.st212{opacity:0.9512;fill:#3C5185;}
	.st213{opacity:0.9756;fill:#3C5185;}
	.st214{fill:#3C5185;}
	.st215{fill:url(#XMLID_4184_);}
	.st216{fill:#EAF1F9;}
	.st217{fill:url(#XMLID_4185_);}
	.st218{fill:#D1E1F2;}
	.st219{fill:#49486B;}
	.st220{fill:url(#XMLID_4186_);}
	.st221{fill:url(#XMLID_4187_);}
	.st222{opacity:0.3;fill:#49486B;}
	.st223{fill:url(#XMLID_4188_);}
	.st224{fill:#F2B0B3;}
	.st225{fill:url(#XMLID_4189_);}
	.st226{opacity:0.3;fill:#3C5185;}
	.st227{fill:url(#SVGID_11_);}
	.st228{fill:url(#SVGID_12_);}
	.st229{opacity:0.3;fill:#2E3E64;}
	.st230{fill:#EF9EA3;}
	.st231{fill:url(#XMLID_4190_);}
	.st232{fill:url(#SVGID_13_);}
	.st233{fill:#FFCB4F;}
	.st234{fill:url(#XMLID_4191_);}
	.st235{fill:url(#XMLID_4192_);}
	.st236{fill:url(#XMLID_4193_);}
	.st237{fill:#2D469D;}
	.st238{opacity:0.83;fill:url(#XMLID_4194_);}
	.st239{opacity:0.49;fill:#6B7AB1;}
	.st240{fill:url(#SVGID_14_);}
	.st241{fill:url(#SVGID_15_);}
	.st242{fill:url(#SVGID_16_);}
	.st243{fill:#7FA6D7;}
	.st244{fill:url(#XMLID_4195_);}
	.st245{fill:url(#XMLID_4196_);}
	.st246{fill:#5F6896;}
	.st247{fill:#F2F2F2;}
	.st248{fill:#E2EBF6;}
	.st249{fill:#D9E6F4;}
	.st250{fill:#3BB6D5;}
	.st251{fill:#B0BFDD;}
	.st252{fill:#3E7BA8;}
	.st253{enable-background:new    ;}
	.st254{fill:#FBAA19;}
	.st255{fill:#F4DA80;}
	.st256{fill:#181914;}
	.st257{fill:#E2C59C;}
	.st258{fill:#864738;}
	.st259{fill:#AE5D4A;}
	.st260{fill:#0A1932;}
	.st261{fill:#B5B6B6;}
	.st262{fill:#A4ACAF;}
	.st263{clip-path:url(#SVGID_18_);enable-background:new    ;}
	.st264{fill:#9EA3A6;}
	.st265{clip-path:url(#SVGID_20_);enable-background:new    ;}
	.st266{fill:#959B9D;}
	.st267{fill:#98A0A2;}
	.st268{fill:#A2A9AD;}
	.st269{fill:#A6AFB2;}
	.st270{fill:#AAB4B7;}
	.st271{clip-path:url(#SVGID_22_);enable-background:new    ;}
	.st272{clip-path:url(#SVGID_24_);enable-background:new    ;}
	.st273{clip-path:url(#SVGID_26_);enable-background:new    ;}
	.st274{clip-path:url(#SVGID_28_);enable-background:new    ;}
	.st275{clip-path:url(#SVGID_30_);enable-background:new    ;}
	.st276{fill:#AAB2B5;}
	.st277{clip-path:url(#SVGID_32_);enable-background:new    ;}
	.st278{clip-path:url(#SVGID_34_);enable-background:new    ;}
	.st279{clip-path:url(#SVGID_36_);enable-background:new    ;}
	.st280{clip-path:url(#SVGID_38_);enable-background:new    ;}
	.st281{fill:#EFF9FE;}
	.st282{fill:#37A3BF;}
	.st283{fill:#DEC9A9;}
	.st284{fill:#EBB61F;}
	.st285{fill:#C5D2E2;}
	.st286{fill:#E4EDF2;}
	.st287{fill:#282724;}
	.st288{fill:#B6C2C9;}
	.st289{fill:#879BA6;}
	.st290{fill:#D9E1E4;}
	.st291{fill:#333B31;}
	.st292{fill:#3D473C;}
	.st293{fill:#F7C450;}
	.st294{fill:#D7DFE2;}
	.st295{fill:#359DB6;}
	.st296{fill:#974633;}
	.st297{fill:#7ECBD0;}
	.st298{fill:#387082;}
	.st299{fill:#89BDDA;}
	.st300{fill:#ADD5F1;}
	.st301{fill:#0E2145;}
	.st302{fill:#47C2C6;}
	.st303{fill:#36A8B5;}
	.st304{fill:#DCE5EA;}
	.st305{fill:#FBAF4F;}
	.st306{fill:#326192;}
	.st307{fill:#171311;}
	.st308{fill:#D1DEE6;}
	.st309{fill:#87BBD8;}
	.st310{fill:url(#SVGID_39_);}
	.st311{fill:#B4C0C7;}
	.st312{fill:#D7E3EB;}
	.st313{fill:#8599A4;}
	.st314{fill:#376890;}
	.st315{fill:url(#SVGID_40_);}
	.st316{fill:#FED815;}
	.st317{fill:#C1C4C7;}
	.st318{fill:#F6F6F6;}
	.st319{fill:#5380A2;}
	.st320{fill:#5899B0;}
	.st321{fill:#253551;}
	.st322{fill:#93A6C6;}
	.st323{fill:#047888;}
	.st324{fill:#12B4B4;}
	.st325{fill:#C4C4C4;}
	.st326{fill:#233450;}
	.st327{fill:#F48485;}
	.st328{fill:#C7E2ED;}
	.st329{fill:#E1E6EE;}
	.st330{fill:#121733;}
	.st331{fill:#FEBF52;}
	.st332{fill:#ED9B9C;}
	.st333{fill:#F4B7A9;}
	.st334{fill:#FBD1D9;}
	.st335{fill:#CCC9E1;}
	.st336{fill:#C56E79;}
	.st337{fill:#768BC5;}
	.st338{fill:#636FB1;}
	.st339{fill:#EFEFF8;}
	.st340{fill:#724E56;}
	.st341{fill:#383846;}
	.st342{fill:none;stroke:#1D1D1B;stroke-width:0;stroke-linecap:round;stroke-linejoin:round;}
	.st343{fill:#1D1D1B;}
	.st344{fill:#535566;}
	.st345{fill:#F8AFB1;}
	.st346{fill:#393941;}
	.st347{fill:#E2E4E8;}
	.st348{fill:#F6989A;}
	.st349{fill:#685856;}
	.st350{fill:#4A485C;}
	.st351{fill:#F5F6F7;}
	.st352{fill:#B9BAC0;}
	.st353{fill:#C27771;}
	.st354{fill:#54537C;}
	.st355{fill:#F8B2B0;}
	.st356{fill:#E99E9C;}
	.st357{fill:#4D413F;}
	.st358{fill:#B96760;}
	.st359{fill:#F6894F;}
	.st360{fill:#FCB54B;}
	.st361{fill:#FCE483;}
	.st362{fill:#796060;}
	.st363{fill:#6EA3D7;}
	.st364{fill:#4E8AC8;}
	.st365{fill:#BB664B;}
	.st366{fill:#F48471;}
	.st367{fill:#E7E8EB;}
	.st368{fill:#FFD766;}
	.st369{fill:#555387;}
	.st370{fill:#DBDADA;}
	.st371{fill:#9C9C9B;}
	.st372{fill:#878787;}
	.st373{fill:#C7C6C5;}
	.st374{fill:#EDEDEE;}
	.st375{fill:#FEEC87;}
	.st376{fill:#4A425F;}
	.st377{fill:#605570;}
	.st378{fill:#DD817F;}
	.st379{fill:#E0E3EF;}
	.st380{fill:#C3775E;}
	.st381{fill:#D3907A;}
	.st382{fill:#E5B182;}
	.st383{fill:#F5F6F6;}
	.st384{fill:#462C26;}
	.st385{fill:#A06F57;}
	.st386{fill:#3C3F54;}
	.st387{fill:#194043;}
	.st388{fill:#FAC2BE;}
	.st389{fill:#D8D7DF;}
	.st390{fill:#F9B5B2;}
	.st391{fill:#4A4A4A;}
	.st392{fill:#AFA0CE;}
	.st393{fill:#047091;}
	.st394{fill:#19243A;}
	.st395{clip-path:url(#SVGID_42_);}
	.st396{fill:#F8BFD2;}
	.st397{fill:#F27797;}
	.st398{fill:#96D4EC;}
	.st399{fill:#39A9E0;}
	.st400{fill:#BFD577;}
	.st401{fill:#95C13D;}
	.st402{fill:#F8B232;}
	.st403{fill:#F29220;}
	.st404{fill:#F2C65B;}
	.st405{fill:#F6E881;}
	.st406{fill:#F9E5BC;}
	.st407{fill:#FBC6AD;}
	.st408{fill:#1F2C41;}
	.st409{fill:#6BB5CF;}
	.st410{fill:#5771B6;}
	.st411{fill:#F29D42;}
	.st412{fill:#7D91AF;}
	.st413{fill:#F0C2C2;}
	.st414{fill:#A2B2CC;}
	.st415{fill:#585767;}
	.st416{fill:#875E5D;}
	.st417{fill:#484D6A;}
	.st418{fill:#E5807F;}
	.st419{fill:#F6999C;}
	.st420{fill:#FCD9D9;}
	.st421{fill:#121B2A;}
	.st422{fill:#1F2E45;}
	.st423{clip-path:url(#SVGID_44_);enable-background:new    ;}
	.st424{fill:#B3B3B3;}
	.st425{fill:#555A77;}
	.st426{fill:#92A3BF;}
	.st427{fill:#D78B8C;}
	.st428{fill:#8A4A49;}
	.st429{fill:#9B6162;}
	.st430{fill:#C48484;}
	.st431{fill:#F5D067;}
	.st432{fill:#CD7878;}
	.st433{fill:#BFC9D9;}
	.st434{fill:#B0BCD0;}
	.st435{fill:#616074;}
	.st436{fill:#362728;}
	.st437{fill:#D9B4A3;}
	.st438{fill:#F7B2AF;}
	.st439{fill:#7D428D;}
	.st440{fill:#E2C7B6;}
	.st441{fill:#FAC1BE;}
	.st442{fill:#F8C2DA;}
	.st443{fill:#FACEE1;}
	.st444{fill:#121210;}
	.st445{fill:#A48A7B;}
	.st446{fill:#4E4A82;}
	.st447{fill:#3C3A64;}
	.st448{fill:#F16E8D;}
	.st449{fill:#A95B5B;}
	.st450{fill:#F5A1A2;}
	.st451{fill:#F4BFBE;}
	.st452{fill:#FED46A;}
	.st453{fill:#FAC7D2;}
	.st454{fill:#342E4F;}
	.st455{fill:#837EBC;}
	.st456{fill:#9B96C9;}
	.st457{fill:#B47D81;}
	.st458{fill:#8F5A60;}
	.st459{fill:#A8A6C5;}
	.st460{fill:#A54C62;}
	.st461{fill:#902D42;}
	.st462{fill:#171021;}
	.st463{fill:#F1C131;}
	.st464{fill:#F9BEC7;}
	.st465{fill:#3F3F56;}
	.st466{fill:#77516D;}
	.st467{fill:#30303F;}
	.st468{fill:#24190F;}
	.st469{fill:#EFAA88;}
	.st470{fill:#DDDBE7;}
	.st471{fill:#5D7C92;}
	.st472{fill:#E79E7A;}
	.st473{fill:#D7D5DD;}
	.st474{fill:#6B6AB1;}
	.st475{fill:#466C83;}
	.st476{fill:#EEF8FA;}
	.st477{fill:#78787A;}
	.st478{fill:#85ACDB;}
	.st479{fill:#0F0F1E;}
	.st480{fill:#A46569;}
	.st481{fill:#454154;}
	.st482{fill:#E9A5A8;}
	.st483{fill:#9093AC;}
	.st484{fill:#EFB7B9;}
	.st485{fill:#5A5369;}
	.st486{fill:#69657F;}
	.st487{fill:#C5C8D6;}
	.st488{fill:#292F42;}
	.st489{fill:#456BB3;}
	.st490{fill:#698CC8;}
	.st491{fill:#F48270;}
	.st492{fill:#D6E1EE;}
	.st493{fill:#F47A66;}
	.st494{fill:#DEE3EE;}
	.st495{clip-path:url(#SVGID_46_);}
	.st496{fill:#917DBA;}
	.st497{fill:#82666B;}
	.st498{fill:#46425B;}
	.st499{fill:#CECFDB;}
	.st500{fill:#BABDD1;}
	.st501{fill:#F3746A;}
	.st502{fill:#F8A9A1;}
	.st503{fill:#F6A5B7;}
	.st504{fill:#2B2A6A;}
	.st505{fill:#D4EFFC;}
	.st506{fill:#E2E5EA;}
	.st507{fill:#F9C0CD;}
	.st508{fill:#B36B85;}
	.st509{fill:#FEC13C;}
	.st510{fill:#F6871F;}
	.st511{fill:#F5887C;}
	.st512{fill:#DC9BA3;}
	.st513{fill:#B69CCA;}
	.st514{fill:#534965;}
	.st515{fill:#B96976;}
	.st516{fill:#27193F;}
	.st517{fill:#C97883;}
	.st518{fill:#E4EBF2;}
	.st519{clip-path:url(#SVGID_48_);enable-background:new    ;}
	.st520{fill:#758BC6;}
	.st521{fill:#C1C1CC;}
	.st522{fill:#7D5426;}
	.st523{fill:#659B41;}
	.st524{fill:#56873D;}
	.st525{fill:#486C32;}
	.st526{fill:#496B32;}
	.st527{fill:#55873D;}
	.st528{fill:#94C93D;}
	.st529{fill:#72B844;}
	.st530{fill:#669A41;}
	.st531{fill:#476B32;}
	.st532{fill:#56863C;}
	.st533{fill:#71B744;}
	.st534{fill:#649B41;}
	.st535{fill:#FFFCF9;}
	.st536{fill:#BBC2D2;}
	.st537{fill:#F6CDB2;}
	.st538{fill:#EE9C86;}
	.st539{fill:#95C93D;}
	.st540{fill:#6FB544;}
	.st541{fill:#659940;}
	.st542{fill:#55853C;}
	.st543{fill:#C6C9D6;}
	.st544{fill:#A0A4B4;}
	.st545{fill:#454278;}
	.st546{fill:#964A75;}
	.st547{fill:#D1567C;}
	.st548{fill:#D2D1DF;}
	.st549{fill:#361D3E;}
	.st550{fill:#DADDDB;}
	.st551{fill:#717070;}
	.st552{fill:#585856;}
	.st553{fill:#B7B7B8;}
	.st554{fill:#454646;}
	.st555{fill:#727473;}
	.st556{fill:#838585;}
	.st557{fill:#607672;}
	.st558{fill:#DCDBDB;}
	.st559{fill:#566A66;}
	.st560{fill:#8DADA7;}
	.st561{fill:#D2DBEE;}
	.st562{fill:#2C100F;}
	.st563{fill:#9A3C63;}
	.st564{fill:#F9C0C7;}
	.st565{fill:#E39BA5;}
	.st566{fill:#C36987;}
	.st567{fill:#3A1518;}
	.st568{clip-path:url(#SVGID_50_);enable-background:new    ;}
	.st569{fill:#F2B9B8;}
	.st570{fill:#EEA04B;}
	.st571{fill:#3D3E51;}
	.st572{fill:#454A64;}
	.st573{fill:#3C364B;}
	.st574{fill:#C1C3C6;}
	.st575{fill:#D0E0F3;}
	.st576{fill:#14132B;}
	.st577{fill:#B8B9B8;}
	.st578{fill:#D6E1ED;}
	.st579{fill:#37475D;}
	.st580{fill:#E46047;}
	.st581{fill:#E290AC;}
	.st582{fill:#749DD2;}
	.st583{fill:#272043;}
	.st584{fill:#726797;}
	.st585{fill:#597DBE;}
	.st586{fill:#4161AD;}
	.st587{clip-path:url(#XMLID_4197_);}
	.st588{fill:#ACC5E7;}
	.st589{fill:#412312;}
	.st590{fill:#303E52;}
	.st591{opacity:0.5;fill:#5771B6;}
	.st592{fill:#F9E700;}
	.st593{fill:#101138;}
	.st594{fill:#A6B8DF;}
	.st595{fill:#E3ECF8;}
	.st596{fill:#BFC5DF;}
	.st597{fill:#7D90AA;}
	.st598{fill:#1E2656;}
	.st599{fill:#CECECF;}
	.st600{fill:#A7A7A8;}
	.st601{fill:#242164;}
	.st602{fill:#D3D4D5;}
	.st603{fill-rule:evenodd;clip-rule:evenodd;fill:#36475D;}
	.st604{fill:#474E5A;}
	.st605{fill:#23272C;}
	.st606{fill:#D9DADB;}
	.st607{fill:#5D6574;}
	.st608{fill:#7A8599;}
	.st609{fill:#BEBEBF;}
	.st610{fill:#676F80;}
	.st611{fill:none;stroke:#010101;stroke-width:0.1068;stroke-linecap:round;stroke-linejoin:round;stroke-miterlimit:10;}
	.st612{fill:#70777D;}
	.st613{fill:#231F20;}
	.st614{fill:#56A5A9;}
	.st615{fill:#6ECCDB;}
	.st616{fill:#4273B9;}
	.st617{fill:#69BD45;}
	.st618{fill:#EE3224;}
	.st619{clip-path:url(#XMLID_4212_);}
	.st620{fill:#3D3F54;}
	.st621{fill:#C82026;}
	.st622{fill:#D1E7F7;}
	.st623{fill:#1F1F2F;}
	.st624{fill:#403F56;}
	.st625{fill:#B9B9C1;}
	.st626{fill:#46475B;}
	.st627{fill:#AEB9CA;}
	.st628{fill:#4B4F67;}
	.st629{fill:#575C72;}
	.st630{fill:#6D89C5;}
	.st631{fill:#AB556C;}
	.st632{fill:#F7F8FA;}
	.st633{fill:#E1E3EC;}
	.st634{fill:#85506F;}
	.st635{fill:#EC749E;}
	.st636{fill:#F05878;}
	.st637{fill:#BFCFC7;}
	.st638{fill:#A15E9A;}
	.st639{fill:#8A98CB;}
	.st640{fill:#B8ABCD;}
	.st641{fill:#9779B5;}
	.st642{fill:#404774;}
	.st643{fill:#7A87C3;}
	.st644{clip-path:url(#XMLID_4213_);fill:none;stroke:#404774;stroke-miterlimit:10;}
	.st645{fill:#6977B7;}
	.st646{fill:#6A87C4;}
	.st647{fill:#8EC3EA;}
	.st648{fill:#DDF1FC;}
	.st649{opacity:0.8;}
	.st650{clip-path:url(#XMLID_4214_);fill:#DCDAE6;}
	.st651{clip-path:url(#XMLID_4214_);fill:#C39FBB;}
	.st652{opacity:0.78;fill:#D0E0F3;}
	.st653{fill:#669B41;}
	.st654{fill:#54873D;}
	.st655{fill:#93C83E;}
	.st656{fill:none;stroke:#3052A4;stroke-width:2;stroke-linecap:round;stroke-miterlimit:10;}
	.st657{opacity:0.41;}
	.st658{fill:#4D4A82;}
	.st659{fill:#972766;}
	.st660{fill:#F26F8D;}
	.st661{fill:#D0567B;}
	.st662{fill:#ED1F24;}
	.st663{fill:#3052A4;}
	.st664{fill:#C9C9C8;}
	.st665{fill:#F9FAFB;}
	.st666{fill:#C8D0DF;}
	.st667{fill:#D9E3F2;}
	.st668{clip-path:url(#XMLID_4215_);fill:#CDD6E9;}
	.st669{fill:#ACBCDE;}
	.st670{fill:#F5F8FD;}
	.st671{opacity:0.5;fill:#F5F8FD;}
	.st672{clip-path:url(#XMLID_4216_);fill:#A8B6DA;}
	.st673{clip-path:url(#XMLID_4216_);fill:#FFFFFF;}
	.st674{opacity:0.5;clip-path:url(#XMLID_4216_);fill:#9AACD8;}
	.st675{fill:#C3C8DF;}
	.st676{fill:#E5E5E4;}
	.st677{fill:#EF4881;}
	.st678{fill:#B1A0C2;}
	.st679{fill:#EF72AA;}
	.st680{clip-path:url(#XMLID_4217_);fill:#DCDAE6;}
	.st681{clip-path:url(#XMLID_4217_);fill:#37373D;}
	.st682{clip-path:url(#XMLID_4218_);}
	.st683{clip-path:url(#XMLID_4219_);}
	.st684{clip-path:url(#XMLID_4220_);fill:none;stroke:#404774;stroke-miterlimit:10;}
	.st685{clip-path:url(#XMLID_4221_);fill:#DCDAE6;}
	.st686{clip-path:url(#XMLID_4221_);fill:#C39FBB;}
	.st687{clip-path:url(#XMLID_4222_);fill:#CDD6E9;}
	.st688{clip-path:url(#XMLID_4223_);fill:#A8B6DA;}
	.st689{clip-path:url(#XMLID_4223_);fill:#FFFFFF;}
	.st690{opacity:0.5;clip-path:url(#XMLID_4223_);fill:#9AACD8;}
	.st691{clip-path:url(#XMLID_4224_);fill:#DCDAE6;}
	.st692{clip-path:url(#XMLID_4224_);fill:#37373D;}
	.st693{clip-path:url(#SVGID_52_);enable-background:new    ;}
	.st694{clip-path:url(#SVGID_54_);enable-background:new    ;}
	.st695{clip-path:url(#SVGID_56_);enable-background:new    ;}
	.st696{clip-path:url(#SVGID_58_);enable-background:new    ;}
	.st697{clip-path:url(#SVGID_60_);enable-background:new    ;}
	.st698{clip-path:url(#SVGID_62_);enable-background:new    ;}
	.st699{clip-path:url(#SVGID_64_);enable-background:new    ;}
	.st700{clip-path:url(#SVGID_66_);enable-background:new    ;}
	.st701{clip-path:url(#SVGID_68_);enable-background:new    ;}
	.st702{clip-path:url(#SVGID_70_);enable-background:new    ;}
	.st703{clip-path:url(#SVGID_72_);enable-background:new    ;}
	.st704{fill:#9EC43B;}
	.st705{fill:#94C2E6;}
	.st706{fill:#98DAEF;}
	.st707{fill:url(#SVGID_73_);}
	.st708{fill:url(#SVGID_74_);}
	.st709{fill:url(#SVGID_75_);}
	.st710{fill:url(#SVGID_76_);}
	.st711{fill:url(#SVGID_77_);}
	.st712{fill:url(#SVGID_78_);}
	.st713{fill:url(#SVGID_79_);}
	.st714{fill:url(#SVGID_80_);}
</style>
<g>
	<path class="st0" d="M1145.83,485.93c0.06,31.96-8.39,63.33-24.42,90.67c0,33.44-15.09,63.74-39.57,85.83
		c-6.13,5.52-12.73,10.46-19.71,14.76c-0.28,0.18-0.57,0.36-0.86,0.53c-0.52,0.32-1.05,0.64-1.58,0.97l-0.5,0.3l0,0
		c-2.23,1.3-4.52,2.56-6.84,3.74c-21.46,10.9-45.06,16.52-68.97,16.42H279.16c-5.61,0-11.17-0.23-16.68-0.7
		c-19.58-1.59-38.83-6.2-57.1-13.66c-3.57-1.46-7.06-3.02-10.49-4.69c-1.63-0.79-3.25-1.61-4.85-2.44c-1-0.52-2-1.06-2.99-1.6
		c-6.01-3.3-11.84-6.96-17.45-10.95c-5.13-3.62-10.06-7.53-14.77-11.71c-31.82-28.2-51.5-67.23-51.5-110.3
		c-17.84-28.37-27.3-61.48-27.23-95.31c0-95.75,74.1-173.38,165.51-173.38c2.81,0,5.61,0.09,8.42,0.24c0.4,0,0.79,0,1.2,0.06
		c15.41-27.13,36.01-52.06,60.78-74c67.55-59.78,166.28-97.47,276.25-97.47c92.41,0,176.87,26.61,241.57,70.57
		c24.52-14.31,52.21-21.82,80.37-21.78c91.4,0,165.51,77.62,165.51,173.38c-0.01,6.06-0.33,12.11-0.94,18.14
		C1119.47,376.24,1145.98,429.36,1145.83,485.93z"/>
	<ellipse class="st0" cx="139.69" cy="220.2" rx="20.23" ry="20.89"/>
	<ellipse class="st0" cx="223.99" cy="104.74" rx="20.23" ry="20.89"/>
	<ellipse class="st0" cx="217.13" cy="184.06" rx="33.9" ry="35.01"/>
</g>
<path class="st300" d="M310.62,152.7c-0.12-1.05-0.2-2.11-0.2-3.2c0-14.9,12.08-26.98,26.99-26.98c2.53,0,4.97,0.37,7.29,1.02
	c2.64-19.3,19.19-34.18,39.22-34.18c21.87,0,39.6,17.73,39.6,39.59c0,0.09,0,0.18,0,0.26c12.04,1.37,21.4,11.59,21.4,24
	c0,13.35-10.82,24.17-24.16,24.17h-40.67h-11.89h-10.66h-23.7h-21.78c0-0.02-0.01-0.03-0.02-0.05c-0.35,0.03-0.69,0.05-1.04,0.05
	c-6.82,0-12.35-5.53-12.35-12.36C298.64,158.34,303.97,152.9,310.62,152.7z"/>
<g>
	<path class="st103" d="M528.53,136.07c0,3.02-2.45,5.46-5.46,5.46h-47.36c-3.02,0-5.46-2.45-5.46-5.46V66.85
		c0-3.02,2.44-5.46,5.46-5.46h32.79l20.04,20.04V136.07z"/>
	<polygon class="st104" points="510.32,79.6 528.53,97.58 528.53,81.42 526.71,79.6 	"/>
	<path class="st127" d="M508.49,61.38v14.57c0,3.02,2.45,5.46,5.46,5.46h14.57L508.49,61.38z"/>
	<rect x="497.57" y="61.38" class="st251" width="3.64" height="41.9"/>
	<rect x="493.92" y="88.71" class="st251" width="3.64" height="3.64"/>
	<rect x="493.92" y="95.99" class="st251" width="3.64" height="3.64"/>
	<rect x="493.92" y="81.42" class="st251" width="3.64" height="3.64"/>
	<rect x="493.92" y="74.13" class="st251" width="3.64" height="3.64"/>
	<rect x="493.92" y="66.85" class="st251" width="3.64" height="3.64"/>
	<rect x="495.74" y="105.09" class="st251" width="7.29" height="10.93"/>
	<rect x="501.21" y="92.35" class="st251" width="3.64" height="3.64"/>
	<rect x="501.21" y="99.64" class="st251" width="3.64" height="3.64"/>
	<rect x="501.21" y="85.06" class="st251" width="3.64" height="3.64"/>
	<rect x="501.21" y="77.78" class="st251" width="3.64" height="3.64"/>
	<rect x="501.21" y="70.49" class="st251" width="3.64" height="3.64"/>
</g>
<g>
	<path class="st103" d="M674.04,136.07c0,3.02-2.44,5.46-5.46,5.46h-47.36c-3.02,0-5.46-2.45-5.46-5.46V66.85
		c0-3.02,2.45-5.46,5.46-5.46h32.79l20.04,20.04V136.07z"/>
	<polygon class="st104" points="655.83,79.6 674.04,97.58 674.04,81.42 672.22,79.6 	"/>
	<path class="st302" d="M654.01,61.38v14.57c0,3.02,2.45,5.46,5.47,5.46h14.57L654.01,61.38z"/>
	<rect x="635.79" y="105.1" class="st251" width="27.32" height="3.64"/>
	<rect x="635.79" y="112.39" class="st251" width="27.32" height="3.64"/>
	<rect x="635.79" y="119.67" class="st251" width="27.32" height="3.64"/>
	<rect x="626.68" y="105.1" class="st251" width="3.64" height="3.64"/>
	<rect x="626.68" y="112.39" class="st251" width="3.64" height="3.64"/>
	<rect x="626.68" y="119.67" class="st251" width="3.64" height="3.64"/>
	<rect x="626.68" y="94.17" class="st251" width="27.32" height="3.64"/>
</g>
<g>
	<path class="st103" d="M601.29,136.07c0,3.02-2.45,5.46-5.46,5.46h-47.36c-3.02,0-5.46-2.45-5.46-5.46V66.85
		c0-3.02,2.45-5.46,5.46-5.46h32.79l20.04,20.04V136.07z"/>
	<polygon class="st104" points="583.07,79.6 601.29,97.58 601.29,81.42 599.47,79.6 	"/>
	<path class="st704" d="M581.25,61.38v14.57c0,3.02,2.45,5.46,5.46,5.46h14.57L581.25,61.38z"/>
	<rect x="553.93" y="112.39" class="st251" width="36.43" height="3.64"/>
	<rect x="561.21" y="97.81" class="st251" width="18.21" height="3.64"/>
	<rect x="553.93" y="105.1" class="st251" width="36.43" height="3.64"/>
	<rect x="553.93" y="90.53" class="st251" width="36.43" height="3.64"/>
	<rect x="553.93" y="119.67" class="st251" width="36.43" height="3.64"/>
	<rect x="553.93" y="126.96" class="st251" width="36.43" height="3.64"/>
	<rect x="553.93" y="94.17" class="st251" width="3.64" height="36.43"/>
	<rect x="575.79" y="106.92" class="st251" width="3.64" height="23.68"/>
	<rect x="586.71" y="94.17" class="st251" width="3.64" height="36.43"/>
</g>
<g>
	<polygon class="st103" points="368.61,302.37 368.61,369.54 426.83,311.32 	"/>
	<path class="st103" d="M601.21,332.05c0,4.77-3.87,8.63-8.63,8.63H354.34c-4.76,0-8.62-3.86-8.62-8.63V165.28
		c0-4.76,3.86-8.62,8.62-8.62h238.25c4.76,0,8.63,3.86,8.63,8.62V332.05z"/>
	<path class="st300" d="M394.18,184.79c0,7.26-5.88,13.15-13.15,13.15c-7.26,0-13.14-5.89-13.14-13.15
		c0-7.26,5.88-13.14,13.14-13.14C388.3,171.65,394.18,177.53,394.18,184.79z"/>
	<g>
		<rect x="405.68" y="188.49" class="st300" width="135.56" height="5.75"/>
		<rect x="405.68" y="175.34" class="st705" width="76.4" height="5.75"/>
	</g>
	<g>
		<rect x="368.61" y="210.9" class="st250" width="212.06" height="108.35"/>
		<polygon class="st60" points="485.23,265.07 471.93,272.75 458.61,280.45 458.61,265.07 458.61,249.7 471.93,257.38 		"/>
	</g>
</g>
<g>
	<g>
		<g>
			<g>
				<path class="st299" d="M517.78,509.01l4.94,7.51l-41.39,13.32c0,0-2.77-2.64,7.38-7.97
					C500.53,515.67,517.78,509.01,517.78,509.01z"/>
				<path class="st299" d="M525.13,509l-4.92,7.52l41.43,13.2c0,0,2.76-2.65-7.41-7.95C542.39,515.61,525.13,509,525.13,509z"/>
			</g>
			
				<rect x="517.12" y="486.63" transform="matrix(1 -1.413703e-03 1.413703e-03 1 -0.7092 0.7377)" class="st299" width="8.65" height="30.81"/>
			<g>
				<path class="st706" d="M517.22,510.59l4.23,7.17l-35.43,12.71c0,0-2.37-2.52,6.32-7.6
					C502.46,516.94,517.22,510.59,517.22,510.59z"/>
				<path class="st706" d="M525.69,510.58l-4.21,7.18l35.47,12.61c0,0,2.36-2.53-6.34-7.59
					C540.47,516.89,525.69,510.58,525.69,510.58z"/>
			</g>
			<path class="st301" d="M490.04,533.31c0,1.66-1.34,3.01-3,3.01c-1.66,0-3.01-1.34-3.01-3c0-1.66,1.34-3.01,3-3.01
				C488.7,530.31,490.04,531.65,490.04,533.31z"/>
			<path class="st301" d="M558.73,533.21c0,1.66-1.34,3.01-3,3.01c-1.66,0-3.01-1.34-3.01-3c0-1.66,1.34-3.01,3-3.01
				C557.37,530.21,558.72,531.55,558.73,533.21z"/>
			<path class="st298" d="M482.77,533.32c0,1.66-1.34,3.01-3,3.01c-1.66,0-3.01-1.34-3.01-3c0-1.66,1.34-3.01,3-3.01
				C481.42,530.32,482.76,531.66,482.77,533.32z"/>
			<path class="st298" d="M566.01,533.2c0,1.66-1.34,3.01-3,3.01c-1.66,0-3.01-1.34-3.01-3c0-1.66,1.34-3.01,3-3.01
				C564.66,530.2,566,531.54,566.01,533.2z"/>
		</g>
		
			<rect x="518.14" y="475.35" transform="matrix(1 -1.141140e-03 1.141140e-03 1 -0.5484 0.5952)" class="st298" width="6.33" height="11.08"/>
		<path class="st298" d="M529.2,469.48c0.01,3.41-2.75,6.18-6.16,6.18l-3.48,0c-3.41,0.01-6.18-2.75-6.18-6.16l0,0
			c0-3.41,2.76-6.18,6.16-6.18l3.48,0C526.43,463.31,529.19,466.07,529.2,469.48L529.2,469.48z"/>
		<path class="st302" d="M568.32,463.78c0.15-0.73,0.23-5.28,0.23-6.06c-0.01-4.98-3.23-9.02-7.21-9.01l-80.17,0.12
			c-3.97,0.01-7.19,4.05-7.18,9.03c0,0.78,0.09,5.34,0.25,6.07L568.32,463.78z"/>
		<path class="st298" d="M473.26,466.36c0,1.52,0.89,2.76,2,2.76l92.06-0.13c1.1,0,1.99-1.24,1.99-2.76l0,0c0-1.53-0.9-2.76-2-2.76
			l-92.06,0.13C474.15,463.6,473.26,464.84,473.26,466.36L473.26,466.36z"/>
	</g>
	<g>
		<path class="st252" d="M540.68,450.65c0,0-48.28,0.17-66.91,0.48c-12.89,0.21-14.09-18.17-9.01-20.94
			c15.43-8.42,63.59-12.81,63.59-12.81l32.81,30.04C561.16,447.42,559.32,447.37,540.68,450.65z"/>
		<path class="st259" d="M495.02,352.21c0,0-12.41-3.45-17.8,12.76c-8.25,24.89-7.48,47.69-6.32,52.55
			c0.53,2.24,2.14,9.96,16.01,10.24c5.62,0.11,3.36-11.94,3.36-11.94s3.59-10.24,7.41-27.56
			C501.48,370.95,495.02,352.21,495.02,352.21z"/>
		<path class="st296" d="M485.2,353.62l31.82-10.34l24.09-1.65l26.41,7.95c0,0,8.65,5.94,0.65,25.09
			c-7.99,19.15-4.86,49.13-4.86,49.13l-68.1,2.28c0,0-1.33-27.72-5.88-55.43C488.31,364.45,488.17,357.17,485.2,353.62z"/>
		<path class="st259" d="M532.02,424.69l-3.47,0.01c-3.67-26.76-3.54-54.38,0.42-81.05c1.04,0.62,2.09,1.24,3.14,1.87
			C531.28,372.78,532.81,400.05,532.02,424.69z"/>
		<g>
			<path class="st257" d="M518.38,350.78c0.48,3.68,3.49,6.87,6.65,7.01c3-0.01,6-0.01,9-0.01c3.16-0.15,6.17-3.35,6.63-7.03
				c0.73-6.07,1.46-12.14,2.18-18.21c0.49-3.64-1.69-10.94-6.47-13.1c-4.38-1.91-9.4-1.91-13.78,0.02
				c-4.79,2.16-6.94,9.48-6.44,13.11C516.89,338.64,517.64,344.71,518.38,350.78z"/>
		</g>
		<polygon class="st259" points="529.89,358.24 535.62,367.6 546.07,354.49 544.41,347.61 541.01,344.82 540.97,350.01 		"/>
		<polygon class="st259" points="529.2,358.24 523.5,367.62 513.74,355.44 515.33,347.96 517.77,344.8 518.76,350.92 		"/>
		<g>
			<path class="st116" d="M530.82,307.89c2.52,0,4.74,1.29,6.03,3.25l2.47,0c3.08-0.01,5.58,2.49,5.59,5.57l0.02,13.78L541,330.5
				l-0.01-5.6c0-2.17-1.77-3.92-3.93-3.92l-2.29,0l3.63,0l-2.4,0c-3.98,0.01-7.21-3.21-7.21-7.19l-0.01-5.89L530.82,307.89z"/>
			<path class="st257" d="M537.82,335.63c0,1.89,1.53,3.41,3.42,3.41l0.28,0c1.89,0,3.42-1.53,3.41-3.42l-0.01-4.15
				c0-1.88-1.53-3.41-3.42-3.41h-0.28c-1.4,0-2.59,0.84-3.13,2.04L537.82,335.63z"/>
			<path class="st116" d="M533.89,313.37l-0.01-5.48l-2.26,0l-5.96,0.01l-3.6,0.01c-3.98,0.01-7.19,3.23-7.19,7.21l0.01,5.47l2.27,0
				l5.96-0.01l3.6,0C530.67,320.57,533.89,317.34,533.89,313.37z"/>
			<path class="st121" d="M515.92,340.9c0.02,2.86,2.21,7.7,5.84,9.23c4.93,2.03,10.76,2.01,15.68-0.02
				c3.63-1.54,5.8-6.39,5.81-9.25c-0.01-8.12-0.02-16.25-0.03-24.37c0.01-2.88-2.86-5.3-6.41-5.36c-4.84,0.01-9.69,0.01-14.53,0.02
				c-3.54,0.07-6.42,2.49-6.39,5.38C515.9,324.65,515.91,332.78,515.92,340.9z"/>
			<path class="st116" d="M526.74,307.9c-2.52,0-4.73,1.3-6.02,3.26l-2.47,0c-3.08,0-5.58,2.5-5.57,5.59l0.02,13.78l3.92-0.01
				l-0.01-5.6c0-2.17,1.75-3.93,3.92-3.93h0.04l-1.38,0l6.35-0.01c3.98-0.01,7.2-3.24,7.19-7.21l-0.01-5.89L526.74,307.9z"/>
			<path class="st121" d="M519.76,331.51c0-1.88-1.53-3.41-3.42-3.41l-0.28,0c-1.88,0-3.41,1.53-3.41,3.42l0.01,4.15
				c0,1.88,1.54,3.41,3.42,3.41h0.28c1.4,0,2.6-0.84,3.13-2.04L519.76,331.51z"/>
			<path class="st116" d="M532.75,314.78c-0.09-0.46-0.14-0.93-0.14-1.42l-0.01-5.48l2.26,0l2.83,0c3.98-0.01,7.21,3.21,7.21,7.19
				l0.01,5.47l-1.5,0h-0.77l-2.84,0c-0.51,0-1-0.05-1.48-0.15C537.77,317.58,535.56,315.36,532.75,314.78z"/>
		</g>
		<path class="st256" d="M596.28,542.87c0.74,0.9,0.2,3.27,0.2,3.27s-12.99,1.47-17.17,0.49c-1.09-0.25-2.92-1.19-4.66-2.17
			c-0.29-0.17-0.81-1.16-1.09-1.33c-0.52-0.31-0.8,0.21-1.24-0.07c-1.16-0.73-1.97-1.3-1.99-1.37c-1.15-5.96,0.37-8.36,0.37-8.36
			s11.06-3.69,13.14-1.13C588.73,538.22,594.66,540.9,596.28,542.87z"/>
		<path class="st256" d="M474.82,536.56l-0.89,9.82l-9.83,0.97c0,0-0.68-1.31-1.51-1.23c-0.7,0.07-1.47,1.53-2.42,1.62
			c-2.07,0.21-4.36,0.43-5.28,0.52c-1.84,0.19-19.72,1.96-19.72,1.96s-0.65-1.98-0.17-2.73c0.25-0.39,1.83-1.18,2.89-1.59
			c4.93-1.93,19.02-7.82,21.06-12.92C461.44,526.77,474.82,536.56,474.82,536.56z"/>
		<g>
			<path class="st121" d="M489.5,412.27l33.25,13.52c0,0-23.57,3.4-38.31,0.41C474.48,424.19,489.05,411.84,489.5,412.27z"/>
		</g>
		<path class="st252" d="M564.96,432.84c0,0,3.24,30.34,2.8,46.37c-0.32,12.1-0.33,35.29,2.58,55.05
			c0.18,1.21,15.63,0.27,15.63,0.27s5.43-75.23,7.06-87.62C594.67,434.52,589.87,425.59,564.96,432.84z"/>
		<path class="st306" d="M467.76,440.29c0,0,4.99,7.86,18.66,9.7c4.94,0.67-7.83,88.06-7.83,88.06l-20.19-6.43l3.76-96.64
			L467.76,440.29z"/>
		<path class="st306" d="M523.46,449.93c0,0,26.39,3.73,44.01,5.55c6.46,0.67,12.02-17.42,12.77-18.2c4.71-4.95,9.36-4.33,9.2-4.5
			c-3.82-4.12-23.59-7.92-44.24-12.73c-20.66-4.81-23.8-1.76-23.8-1.76L523.46,449.93z"/>
		<path class="st252" d="M545.19,420.04c20.66,4.82,40.42,8.61,44.24,12.73c0.16,0.18-4.49-0.44-9.2,4.5
			c-0.2,0.22-1.38,6.01-2.23,8.09c3.36-6.07-45.2-23.11-55.69-27.52C524.27,417.22,529.98,416.5,545.19,420.04z"/>
		<polygon class="st306" points="567.91,449.64 570.01,508.69 572.05,522.38 572.26,508.68 571.8,500.15 576.49,486.9 
			578.92,456.14 575.33,457.49 575.76,444.02 		"/>
		<path class="st252" d="M468.43,432.95l-4.94,1.36l-1.7,70.94l10.37,25.35l-4.96-17.28l1.97-35.7c0,0,7.21,17.28,7.21,16.38
			c0-0.9-6.12-37.48-6.12-37.48s6.74,5.61,6.07,5.38C475.65,461.68,472.25,436.32,468.43,432.95z"/>
		<path class="st296" d="M552.93,349.89c0,0,10.6-8.32,20.99,7.09c15.24,22.58,21.88,46.61,24.31,53.57
			c1.86,5.33,0.86,20.42-5.35,26.65c-1.5,1.5-10.48,0.32-10.48,0.32l-5.9-4.07l2.46-4.75l0.13-3.75c0,0-7.56-18.17-16.85-35.35
			C552.96,372.41,552.93,349.89,552.93,349.89z"/>
		<g>
			<path class="st121" d="M578.96,418.95l-34.44,1.85c0,0,33.2,15.17,34.29,12.55C585.01,418.48,578.96,418.95,578.96,418.95z"/>
			<g>
				<path class="st121" d="M560.01,417.92c-2.01-0.97-1.83-0.98-1.83-0.98s-1.84,2.19-4.5,2.6c-1.32,0.21-5.59,0.27-5.59,0.27
					l-6.34,0.17l-2.95-0.16c0,0-1.66-0.21-2.1,0.07c-1.28,0.82-0.18,1.48-0.18,1.48l11.37,1.6l-10.92,1.37c0,0-1.37,0.41-1.43,1.15
					c-0.06,0.7,0.4,0.67,0.4,0.67l12.69,1.34l-5.56,1.34c0,0-1.33,0.43-1.43,1.15c-0.11,0.79-0.16,1-0.16,1l11.67-1.16
					C553.14,429.81,562.03,418.89,560.01,417.92z"/>
				<path class="st121" d="M547.43,424.97l-7.63,1.4c0,0-1.74,0.12-2.51,0.69c-0.89,0.64-0.37,1.42-0.37,1.42l11.7-1L547.43,424.97z
					"/>
			</g>
		</g>
		<g>
			<path class="st288" d="M499.56,431.04c-0.01-0.02-0.03-0.05-0.03-0.07l0.03-2.17l67.85-0.1l0,2.17c0,0,0.02,0.05,0,0.07
				l-0.23,0.41c-1.15,1.88-3.22,2.22-5.6,2.23l-56.18,0.08c-2.37,0-4.45-0.33-5.61-2.21L499.56,431.04z"/>
			<g>
				
					<rect x="511" y="429.26" transform="matrix(1 -1.482323e-03 1.482323e-03 1 -0.6368 0.7912)" class="st289" width="44.93" height="1.53"/>
			</g>
			<g>
				<path class="st286" d="M499.6,429.04l-0.25-44.48c-0.01-1.17,0.94-2.12,2.11-2.12l63.51-0.09c1.17,0,2.13,0.94,2.13,2.12
					l0.25,44.48L499.6,429.04z"/>
				<path class="st288" d="M529.24,405.69c0.01,2.27,1.86,4.11,4.13,4.1c2.27,0,4.1-1.85,4.09-4.12c-0.01-2.27-1.86-4.11-4.13-4.11
					C531.05,401.58,529.22,403.42,529.24,405.69z"/>
			</g>
		</g>
		<polygon class="st259" points="583.46,436.15 585.8,421.05 581.87,417.02 573.18,418.43 574.98,435.13 		"/>
		<polygon class="st259" points="477.85,425.47 476.94,419.92 487.93,410.03 493.88,412.7 486.12,427.61 		"/>
	</g>
	<g>
		<g>
			<path class="st298" d="M249.83,508.32c-2.21,0-5.7-0.5-8.77-3.15c-4.41-3.82-6.32-10.63-5.7-20.23c0.42-6.48,2.96-13.04,5.65-20
				c4.53-11.69,9.66-24.94,6.94-42.45l5-0.78c2.93,18.85-2.7,33.38-7.22,45.06c-2.66,6.86-4.95,12.79-5.32,18.5
				c-0.51,7.79,0.85,13.33,3.92,16.04c2.91,2.57,6.54,1.9,6.69,1.87l1.02,4.96C251.96,508.15,251.11,508.32,249.83,508.32z"/>
		</g>
		<g>
			<g>
				<path class="st299" d="M288.7,548.43l4.94,7.51l-41.39,13.32c0,0-2.77-2.64,7.38-7.97C271.46,555.09,288.7,548.43,288.7,548.43z
					"/>
				<path class="st299" d="M296.06,548.42l-4.92,7.52l41.43,13.2c0,0,2.76-2.65-7.41-7.95
					C313.32,555.03,296.06,548.42,296.06,548.42z"/>
			</g>
			
				<rect x="288.04" y="526.06" transform="matrix(1 -1.490349e-03 1.490349e-03 1 -0.8066 0.4363)" class="st299" width="8.65" height="30.81"/>
			<g>
				<path class="st706" d="M288.15,550.01l4.23,7.17l-35.43,12.71c0,0-2.37-2.52,6.32-7.6
					C273.39,556.37,288.15,550.01,288.15,550.01z"/>
				<path class="st706" d="M296.61,550l-4.21,7.18l35.47,12.61c0,0,2.36-2.53-6.34-7.59C311.4,556.31,296.61,550,296.61,550z"/>
			</g>
			<path class="st301" d="M260.97,572.74c0,1.66-1.34,3.01-3,3.01c-1.66,0-3.01-1.34-3.01-3c0-1.66,1.34-3.01,3-3.01
				C259.62,569.73,260.97,571.08,260.97,572.74z"/>
			<path class="st301" d="M329.65,572.64c0,1.66-1.34,3.01-3,3.01c-1.66,0-3.01-1.34-3.01-3c0-1.66,1.34-3.01,3-3.01
				C328.3,569.63,329.65,570.98,329.65,572.64z"/>
			<path class="st298" d="M253.69,572.75c0,1.66-1.34,3.01-3,3.01c-1.66,0-3.01-1.34-3.01-3c0-1.66,1.34-3.01,3-3.01
				C252.34,569.74,253.69,571.09,253.69,572.75z"/>
			<path class="st298" d="M336.93,572.62c0,1.66-1.34,3.01-3,3.01c-1.66,0-3.01-1.34-3.01-3c0-1.66,1.34-3.01,3-3.01
				C335.58,569.62,336.93,570.97,336.93,572.62z"/>
		</g>
		
			<rect x="289.06" y="514.77" transform="matrix(1 -1.594304e-03 1.594304e-03 1 -0.8292 0.4666)" class="st298" width="6.33" height="11.08"/>
		<path class="st298" d="M300.13,508.9c0,3.41-2.75,6.18-6.16,6.18l-3.48,0.01c-3.41,0-6.18-2.75-6.18-6.16l0,0
			c-0.01-3.41,2.76-6.17,6.16-6.18l3.48-0.01C297.35,502.74,300.12,505.49,300.13,508.9L300.13,508.9z"/>
		<path class="st302" d="M339.25,503.2c0.15-0.73,0.23-5.28,0.23-6.07c-0.01-4.98-3.23-9.02-7.21-9.01l-80.17,0.12
			c-3.97,0.01-7.19,4.05-7.18,9.03c0,0.78,0.09,5.34,0.25,6.07L339.25,503.2z"/>
		<path class="st298" d="M244.19,505.78c0,1.53,0.9,2.76,2,2.76l92.06-0.14c1.1,0,1.99-1.24,1.99-2.76l0,0c0-1.53-0.9-2.76-2-2.76
			l-92.06,0.14C245.07,503.02,244.18,504.26,244.19,505.78L244.19,505.78z"/>
		<g>
			<path class="st302" d="M248.6,457.04c1.98,0.15,14.55,0.35,16.71,0.37c13.76,0.15,25.6-2.45,26.26-5.84
				c2.7-14.08,2.8-28.52,0.3-42.6c-0.59-3.39-12.62-5.95-26.67-5.76c-2.21,0.03-15.03,0.27-17.05,0.42
				C252.48,421.18,252.63,439.47,248.6,457.04z"/>
			<path class="st298" d="M246.64,403.63c-1.54,0.02-2.61,0.75-2.4,1.64c3.86,16.51,4.03,33.64,0.5,50.16
				c-0.19,0.89,0.87,1.61,2.38,1.63l0,0c1.51,0.02,2.9-0.69,3.09-1.58c3.56-16.56,3.43-33.73-0.4-50.28
				C249.6,404.31,248.18,403.61,246.64,403.63L246.64,403.63z"/>
			<path class="st303" d="M246.1,457.02c0.41,0.13,3.13,0.23,3.61,0.23c3,0.03,6.08-2.62,6.67-5.95
				c2.48-13.87,2.39-28.09-0.25-41.96c-0.63-3.33-3.8-5.97-6.85-5.93c-0.48,0.01-3.26,0.12-3.68,0.25
				C249.94,421.2,250.11,439.47,246.1,457.02z"/>
		</g>
	</g>
	<g>
		<g>
			<path class="st121" d="M388.68,431.69l-3.46-4.21l-3.65-2.56l-7.05-1.59c0,0-7.67-0.76-10.66,0c-3,0.75-14.48-0.21-15.92,0.01
				c-1.44,0.22-2.35,4.4-2.35,4.4s10.55,0.31,15.42,0.16c4.86-0.15,11.88,2.03,13.78,2.05c1.53,0.01,2.93-0.17,3.99-0.37
				c1.2-0.22,1.19-0.61,0.18-0.79c-1.58-0.28-3.77-0.65-4.6-0.7c-1.35-0.09-0.53-1.55-0.53-1.55s7.04,0.56,8.81,1.47
				c1.77,0.91,2.31,1.72,3.03,2.35C386.94,431.5,388.68,431.69,388.68,431.69z"/>
			<path class="st301" d="M327.45,345.76c0.01,8.87-7.17,16.07-16.04,16.09l-4.03-7.62c-8.87,0.01-16.08-13.34-16.09-22.21
				l-0.01-6.02c-0.01-8.87,7.17-16.07,16.04-16.09l4.02-0.01c8.87-0.01,16.07,7.17,16.09,16.04L327.45,345.76z"/>
			<path class="st301" d="M293.86,325.74c-0.88,0-1.74,0.07-2.6,0.17c0.18,1.06,0.29,2.14,0.29,3.25
				c0.02,10.69-8.17,19.5-18.73,20.77c1.61,10,10.44,17.65,21.1,17.63c11.8-0.02,21.35-9.39,21.33-20.94
				C315.23,335.08,305.66,325.73,293.86,325.74z"/>
			<path class="st121" d="M320.99,315.98c-0.02,1.47-0.14,2.99-0.38,4.53c-1.61,10.32-7.86,18.15-14.71,19.13
				c-0.21,4.67-1.14,8.87-2.26,12.44c-1.27,4.07-6.03,8.37-6.03,8.37c-1.15,7.21,23.38,17.74,22.8,16.58
				c-0.58-1.16-6.64-9.63-8.62-17.42c-1.39-5.42,0.38-9.9,2.44-12.99c3.82-4.51,9.38-4.46,9.38-4.46c0.53,0,1.01-0.23,1.35-0.59
				c0.32-1.06,0.5-2.19,0.5-3.36l-0.02-13.24C325.43,321.31,323.68,318.06,320.99,315.98z"/>
			<g>
				<path class="st123" d="M267.22,464.73c-0.02-0.08-0.04-0.16-0.06-0.23c0.05-0.06,0.09-0.12,0.14-0.18
					c2.25-11.71,5.72-23.12,11.04-33.44c3.76-7.28,11.34-14.19,14.69-17.68c8.64,4.7,17.17,2.5,25.26,8.59
					c1.05,3.31,1.9,6.94,2.52,10.86c1.24,7.05,2.3,13.6,3.22,19.72c14.89,4.35,19.9,8.42,27.94,13.54c1.02,0.56,4.71,4.26,5.79,5.13
					c-0.6,11.24-2.14,18.95-7.65,27.96c-0.98,1.6-11.87,0.95-21.54-0.62c-4.46-0.72-19.02-1.62-20.56-2.22
					C259.81,491.1,265.51,473.76,267.22,464.73z"/>
				<path class="st257" d="M358.7,492.82c1.59-2.58,3.13-5.13,4.63-7.67c1.18-4.93,1.17-8.27-0.25-9.49
					c-5.38-4.62-26.35,6.24-52.36,60.8c-1.3,2.74-27.01,46.61-26.01,45.99C297.07,574.85,335.17,531.01,358.7,492.82z"/>
				<path class="st116" d="M284.39,577.71l8.29-13.32c0.82-1.31,2.11-1.98,3.36-1.92l-6.39,10.26c-1.24,1.99-0.93,4.66,0.69,5.96
					c0.55,0.44,1.17,0.65,1.81,0.69l-1.9,3.06c-1.24,1.98-3.55,2.54-5.16,1.23C283.47,582.37,283.16,579.7,284.39,577.71z"/>
				<path class="st121" d="M315.2,401.23l15.15-23.52c4.5-6.99,1.82-14.04-5.95-15.67l-43.96-9.21c-4.88-0.61-12.69,6.4-10.93,14.7
					l9.35,27.13L315.2,401.23z"/>
				<path class="st116" d="M325.68,364.39c-5.84,20.13,6.38,58.96,6.38,58.96s6.63,3.41,8.17,0.05c1.96-4.26-1.25-17.9-3.56-46.73
					C335.24,358.82,326.66,361.02,325.68,364.39z"/>
				<path class="st116" d="M272.4,353.62c-15.54,11.18-26.15,45.91-26.15,45.91s2.21,3.79,5.28,2.25c3.88-1.96,9.94-11.2,23.39-33.2
					C283.26,354.96,275.01,351.75,272.4,353.62z"/>
				<path class="st125" d="M285.31,411.35c0.06,3.14,3.34,8.22,5.73,8.17l25.38,1.27c2.39-0.05,5.9-4.49,5.84-7.63l-0.23-10.58
					c-0.06-3.14-2.05-5.65-4.43-5.6l-29.97-7.09c-2.39,0.05-4.27,2.64-4.21,5.79L285.31,411.35z"/>
				<path class="st307" d="M317.85,421.33c-0.02,0.34-1.68,0.53-3.71,0.4l-22.97-1.4c-2.03-0.12-3.66-0.5-3.63-0.85l0.07-1.31
					c0.02-0.34,1.68-0.53,3.71-0.4l22.96,1.4c2.03,0.12,3.66,0.5,3.64,0.85L317.85,421.33z"/>
				<path class="st125" d="M277.13,364.79c0.39-1.54,0.96-2.94,1.62-4.15c21.36,15.1,36.45,8.65,47.33,6.07
					c0.1,0.65,0.18,1.31,0.22,2c0.41,7.52-0.11,15.05,0.21,22.57c0.3,5.98-8.12,11.23-12.16,11.4c-15.07,0.67-18.5-0.22-33.01-4.11
					c-3.89-1.05-11.11-7.37-9.62-12.87C273.58,378.75,275.37,371.78,277.13,364.79z"/>
				<path class="st123" d="M314.76,358.91c0,0,15.77-0.51,18.54,7.04c2.78,7.55-3.92,18.56-3.92,18.56s-3.99,14.01-5.08,21.61
					c-1.09,7.6,3.75,14.8,2.25,13.32c-0.3-0.3-3.87,0.05-9.56-2.6c-5.69-2.66-2.55-13.01-2-16.36c0.55-3.35,3.31-19.76,2.68-22.49
					C317.05,375.26,314.76,358.91,314.76,358.91z"/>
				<path class="st123" d="M268.98,363.76c0,0-1.22-6.3,1.38-8.82c3.82-3.69,13.05-3.2,16.04-2.33c2.99,0.87,5.01,1.83,5.01,1.83
					s-10.44,4.23-10.01,25.84c0.07,3.69,1.04,11.21,2.31,16.96c1.27,5.75,1.71,16.97,1.71,16.97s-6.23,1.29-6.52,2.21
					c-0.29,0.91-0.68-6.66-4.95-13.89C269.69,395.3,268.98,363.76,268.98,363.76z"/>
				<path class="st116" d="M282.74,352.06c-5.81,4.84-9.32,8.99-8.4,34.11c0.15,4.07-0.05,11.55,0.77,18.51
					c-0.35-0.72-0.73-1.44-1.15-2.16c-4.26-7.22-4.97-38.77-4.97-38.77s-1.22-6.3,1.38-8.82
					C273.12,352.27,278.72,351.79,282.74,352.06z"/>
				<path class="st257" d="M352.1,468.26c3.89,2.14,7.48,4.49,10.65,7.25c-5.81,2.82-8.57,9.79-15.35,12.37
					c-4.32-2.32-14.79-16.89-11.49-16.16C345.87,473.95,345.04,470.65,352.1,468.26z"/>
				<path class="st121" d="M333.34,470.76c4.43,0.4,7.29,1.69,10.46,4.45c-5.81,2.82-8.57,9.79-15.35,12.37
					c-5.03,3.43-7.59,13.24-7.59,9.85C320.84,492.95,325.91,470.1,333.34,470.76z"/>
				<path class="st121" d="M342.57,492.21c1.07-2.83,2.11-5.63,3.1-8.4c0.22-5.06-0.42-8.34-2.05-9.27
					c-6.16-3.51-24.69,11.13-39.88,69.62c-0.44,1.7-4.6,18.07-11.04,31.05c-1.28,2.57-2.81,2.07-3.53,4.18
					c-2.21,6.55-1.22,14.7-0.94,14.45C298.92,584.03,326.7,534.17,342.57,492.21z"/>
				<path class="st123" d="M283.84,589.03l7.19-13.95c0.71-1.37,1.94-2.14,3.19-2.18l-5.53,10.74c-1.07,2.07-0.55,4.71,1.17,5.88
					c0.58,0.4,1.22,0.56,1.86,0.54l-1.65,3.2c-1.08,2.08-3.33,2.82-5.05,1.65C283.29,593.74,282.77,591.11,283.84,589.03z"/>
				<g>
					<path class="st257" d="M282.92,424.13c0,0,2.78,2.03,3.33,3.67c0.38,1.14,1.28,6.79,1.28,6.79s-1.6-1.4-1.98-3.67
						C285.02,427.61,282.92,424.13,282.92,424.13z"/>
					<path class="st257" d="M284.77,427.58c1.86,1.1,2.79,3.42,3.22,6.42c0.41,2.84,2.04,3.73,2.04,3.73s-0.07-1.86-1.17-6.21
						c-0.31-1.22-0.68-2.45-1.07-3.63C286.49,423.99,279.99,424.76,284.77,427.58z"/>
					<path class="st257" d="M283.44,420.22c0.62,1.38,2.21,3.58,3.03,4.07c2.45,1.49,4.67,2.42,4.65,2.44
						c-2.73,1.64-6.18-1.8-8.07-2.28C281.15,423.97,281.82,416.65,283.44,420.22z"/>
					<path class="st121" d="M266.66,411.23c4.91,2.86,10.66,5.14,12.65,7.77c2.84,3.75,2.66,6.93,5.47,8.58
						c0.31,0.18,0.57,0.42,0.85,0.64c0.75,0.58,1.71,1.11,1.99,1.38c0.32,0.32,1.12,1.33,0.96,0.8c-1.37-4.7-3.37-9.83-4.22-10.65
						c-1.74-1.7-11.79-10.68-16.22-13.24C263.16,403.62,260.03,407.37,266.66,411.23z"/>
					<path class="st121" d="M284.99,427.15c0,0,0.6-1,1.41-0.57c1.32,0.7,3.19,3.08,3.82,3.95c0.7,0.98,3.23,6.11,3.23,6.11
						s-1.95-0.86-2.97-2.92C288.98,430.71,284.99,427.15,284.99,427.15z"/>
					<path class="st121" d="M261.33,400.8c-0.79,1.83-1.49,3.73-2.07,5.69c12.93,7.4,24.22,13.09,24.22,13.09L261.33,400.8z"/>
				</g>
				<path class="st116" d="M245.95,400.5c4.66,11.33,22.2,11.67,22.2,11.67s2.19-3.08,1.63-5.5c-0.72-3.06-5.12-6.14-15.68-12.59
					C247.55,390.09,245.17,398.6,245.95,400.5z"/>
			</g>
		</g>
		<path class="st116" d="M351.52,422.32c1.02,0.64-1.22,6.98-3.48,6.87l-1.73,0.12c0,0-14.96,0.35-14.41-7.37
			C331.9,421.93,335.5,414.87,351.52,422.32z"/>
	</g>
	<g>
		<path class="st308" d="M369.14,427.63c-0.01-0.03-0.03-0.05-0.04-0.08l0.04-2.36l97.78-0.14l0,2.36c0,0,0.02,0.05,0,0.08
			l-0.25,0.44c-1.25,2.05-3.51,2.42-6.09,2.43l-85.09,0.12c-2.58,0-4.84-0.36-6.1-2.41L369.14,427.63z"/>
		<path class="st288" d="M392.7,427.99c0,0,0.02,0.04,0,0.07l-0.24,0.36c-0.39,0.53-0.87,0.92-1.43,1.2l-14.87,0.02
			c-2.48,0-4.65-0.29-5.86-1.94l-0.24-0.36c-0.02-0.02-0.03-0.04-0.04-0.06l0.02-1.16l22.65-0.03L392.7,427.99z"/>
		<g>
			
				<rect x="405.9" y="425.65" transform="matrix(1 -1.428085e-03 1.428085e-03 1 -0.6086 0.615)" class="st288" width="48.86" height="1.67"/>
		</g>
		<g>
			<path class="st308" d="M393.24,425.07l12.61-48.06c0.34-1.27,1.63-2.3,2.9-2.3l68.6-0.1c1.27,0,2.02,1.02,1.69,2.29l-12.61,48.06
				L393.24,425.07z"/>
			<path class="st288" d="M432,399.85c-0.65,2.45,0.82,4.44,3.28,4.43c2.45,0,4.96-2,5.61-4.45c0.64-2.46-0.82-4.45-3.28-4.44
				C435.15,395.39,432.64,397.39,432,399.85z"/>
		</g>
	</g>
	<g>
		<polygon class="st300" points="624.85,595.03 634.86,595.01 618.11,435.12 603.6,435.14 		"/>
		<polygon class="st309" points="604.58,442.51 611.02,490.93 618.49,438.72 618.11,435.12 605.43,435.13 		"/>
		<polygon class="st300" points="380.68,595.52 390.69,595.5 373.95,435.61 359.43,435.63 		"/>
		<polygon class="st309" points="360.41,443 366.85,491.42 374.32,439.21 373.95,435.61 361.26,435.62 		"/>
		<polygon class="st300" points="275.61,595.67 265.6,595.68 281.88,435.74 296.39,435.72 		"/>
		<polygon class="st309" points="295.43,443.09 276.09,492.47 281.51,439.35 281.88,435.74 294.57,435.72 		"/>
		
			<rect x="267.87" y="430.34" transform="matrix(1 -1.455946e-03 1.455946e-03 1 -0.6329 0.6143)" class="st298" width="307.42" height="9.35"/>
		
			<radialGradient id="SVGID_1_" cx="5895.1948" cy="298.9487" r="243.1878" gradientTransform="matrix(-1 1.500000e-03 1.500000e-03 1 6512.8857 -9.9824)" gradientUnits="userSpaceOnUse">
			<stop  offset="1.574020e-03" style="stop-color:#D1ECEA"/>
			<stop  offset="1" style="stop-color:#67C7C5"/>
		</radialGradient>
		<polygon class="st133" points="630.05,439.25 382.96,439.75 382.94,430.4 630.04,429.9 		"/>
	</g>
</g>
<g>
	<g>
		<path class="st298" d="M915.98,569.41c2.74,0,7.08-0.63,10.88-3.94c5.47-4.75,7.83-13.21,7.04-25.13
			c-0.54-8.05-3.7-16.19-7.06-24.82c-5.65-14.51-12.04-30.96-8.69-52.71l-6.22-0.96c-3.6,23.42,3.41,41.45,9.05,55.94
			c3.31,8.52,6.17,15.87,6.64,22.96c0.65,9.67-1.03,16.56-4.83,19.92c-3.61,3.19-8.12,2.37-8.31,2.33l-1.26,6.16
			C913.34,569.2,914.39,569.41,915.98,569.41z"/>
	</g>
	<g>
		<g>
			<path class="st299" d="M867.78,619.29l-6.12,9.34l51.43,16.47c0,0,3.44-3.28-9.18-9.88
				C889.21,627.53,867.78,619.29,867.78,619.29z"/>
			<path class="st299" d="M858.65,619.29l6.12,9.34l-51.42,16.47c0,0-3.44-3.28,9.18-9.88
				C837.22,627.53,858.65,619.29,858.65,619.29z"/>
		</g>
		<rect x="857.84" y="591.52" class="st299" width="10.74" height="38.26"/>
		<g>
			<path class="st706" d="M868.47,621.26l-5.24,8.91l44.02,15.72c0,0,2.94-3.13-7.86-9.43
				C886.81,629.12,868.47,621.26,868.47,621.26z"/>
			<path class="st706" d="M857.96,621.26l5.24,8.91l-44.02,15.72c0,0-2.94-3.13,7.86-9.43
				C839.61,629.12,857.96,621.26,857.96,621.26z"/>
		</g>
		<path class="st301" d="M902.26,649.43c0,2.06,1.67,3.73,3.73,3.73c2.06,0,3.74-1.67,3.74-3.73c0-2.06-1.67-3.74-3.74-3.74
			C903.94,645.69,902.26,647.37,902.26,649.43z"/>
		<path class="st301" d="M816.97,649.43c0,2.06,1.67,3.73,3.73,3.73c2.06,0,3.73-1.67,3.73-3.73c0-2.06-1.67-3.74-3.73-3.74
			C818.64,645.69,816.97,647.37,816.97,649.43z"/>
		<path class="st298" d="M911.3,649.43c0,2.06,1.67,3.73,3.73,3.73c2.06,0,3.73-1.67,3.73-3.73c0-2.06-1.68-3.74-3.73-3.74
			C912.97,645.69,911.3,647.37,911.3,649.43z"/>
		<path class="st298" d="M807.93,649.43c0,2.06,1.67,3.73,3.73,3.73c2.06,0,3.74-1.67,3.74-3.73c0-2.06-1.68-3.74-3.74-3.74
			C809.6,645.69,807.93,647.37,807.93,649.43z"/>
	</g>
	<rect x="859.42" y="577.5" class="st298" width="7.86" height="13.76"/>
	<path class="st298" d="M853.52,570.23c0,4.23,3.43,7.67,7.67,7.67h4.32c4.23,0,7.66-3.43,7.66-7.67l0,0c0-4.23-3.43-7.66-7.66-7.66
		h-4.32C856.96,562.56,853.52,565.99,853.52,570.23L853.52,570.23z"/>
	<path class="st302" d="M804.93,563.22c-0.19-0.9-0.3-6.56-0.3-7.53c0-6.19,4-11.2,8.94-11.2h99.56c4.93,0,8.93,5.01,8.93,11.2
		c0,0.97-0.11,6.63-0.29,7.53H804.93z"/>
	<path class="st298" d="M922.98,566.25c0,1.89-1.11,3.43-2.47,3.43H806.19c-1.37,0-2.48-1.53-2.48-3.43l0,0
		c0-1.89,1.11-3.43,2.48-3.43h114.32C921.88,562.82,922.98,564.36,922.98,566.25L922.98,566.25z"/>
	<g>
		<path class="st302" d="M917.41,505.73c-2.46,0.18-18.06,0.46-20.75,0.49c-17.08,0.21-31.8-3-32.61-7.21
			c-3.37-17.48-3.52-35.42-0.44-52.9c0.73-4.21,15.67-7.41,33.11-7.2c2.74,0.03,18.67,0.31,21.17,0.49
			C912.53,461.2,912.37,483.92,917.41,505.73z"/>
		<path class="st298" d="M919.76,439.4c1.91,0.02,3.25,0.93,2.98,2.03c-4.76,20.51-4.94,41.78-0.53,62.29
			c0.24,1.1-1.08,2.01-2.96,2.03l0,0c-1.87,0.02-3.6-0.85-3.84-1.95c-4.46-20.56-4.32-41.88,0.41-62.44
			C916.08,440.25,917.84,439.37,919.76,439.4L919.76,439.4z"/>
		<path class="st303" d="M920.52,505.7c-0.51,0.16-3.89,0.29-4.48,0.3c-3.72,0.05-7.55-3.24-8.29-7.38
			c-3.1-17.22-3.02-34.88,0.24-52.1c0.78-4.14,4.71-7.42,8.5-7.37c0.6,0.01,4.05,0.14,4.57,0.3
			C915.68,461.22,915.51,483.91,920.52,505.7z"/>
	</g>
</g>
<g>
	<path class="st296" d="M831.87,418.74c0,0-23.69,83.94-42.68,113.99c-18.99,30.06-25.61-9.04-25.61-9.04l23.57-139.59l55.15-0.35
		C842.31,383.75,840.92,386.61,831.87,418.74z"/>
	<path class="st296" d="M805.69,384.09c0,0,15.87,137.7,18.15,144.62c7.68,23.4,25.25,8.29,27.97,0.49
		c2.71-7.8,7.24-65.53,6.33-107.66c-0.91-42.13-0.91-39.37-0.91-39.37L805.69,384.09z"/>
	<path class="st256" d="M854.07,654.45c0.81,0.99,0.22,3.6,0.22,3.6s-14.28,1.59-18.88,0.51c-1.19-0.28-3.21-1.31-5.1-2.4
		c-0.32-0.18-0.89-1.27-1.2-1.46c-0.58-0.34-0.88,0.23-1.37-0.08c-1.27-0.81-2.17-1.43-2.18-1.51c-1.26-6.55,0.41-9.19,0.41-9.19
		s12.16-4.04,14.44-1.23C845.77,649.33,852.28,652.29,854.07,654.45z"/>
	<path class="st256" d="M765.28,648.58l-2.04,10.64h-10.85c0,0-0.6-1.51-1.52-1.51c-0.77,0-1.77,1.51-2.83,1.51
		c-2.28,0-4.82,0-5.82,0c-2.03,0-21.77,0-21.77,0s-0.5-2.24,0.11-3.01c0.31-0.4,2.12-1.08,3.33-1.42
		c5.61-1.57,21.65-6.49,24.44-11.85C751.71,636.41,765.28,648.58,765.28,648.58z"/>
	<path class="st257" d="M826.45,234.09c0.25,3.51,2.37,6.22,4.76,6.05l0,0c2.39-0.17,4.12-3.14,3.88-6.65l-0.31-4.42
		c-0.24-3.51-2.38-6.22-4.76-6.05l0,0c-2.39,0.17-4.12,3.14-3.88,6.66L826.45,234.09z"/>
	<path class="st257" d="M812.15,270.24c1.09,4.49,4.64,8.02,7.83,7.78c3-0.41,6-0.82,9.01-1.23c3.14-0.62,5.61-4.97,5.46-9.59
		c-0.29-7.6-0.58-15.21-0.86-22.82c-0.12-4.57-3.51-13.31-8.67-15.32c-4.71-1.78-9.74-1.09-13.79,1.88
		c-4.43,3.32-5.36,12.66-4.25,17.09C808.62,255.44,810.39,262.85,812.15,270.24z"/>
	<path class="st121" d="M885.57,364.16l-35.27,36.11c0,0,42.52-9.76,44.42-27.36C896.61,355.3,885.57,364.16,885.57,364.16z"/>
	<path class="st300" d="M779.92,279.22l28.26-10.58l15.44,4.61l19.09-2.18l21.02,9.12c0,0,9.49,9.12,0.68,38.43
		c-8.82,29.31-5.43,75.23-5.43,75.23l-74.83,3.33c0,0-2.74-42.72-6.38-84.9C774.91,279.21,783.24,286.46,779.92,279.22z"/>
	<path class="st300" d="M850.16,281.49c0,0,11.66-9.14,23.06,7.81c17.5,26,29.16,54.71,31.2,60.57c2.03,5.86,4.75,23.45-3.39,28.66
		c-8.14,5.22-8.14,5.22-8.14,5.22l-16.95-10.42l2.71-5.21l1.35-3.26c0,0-9.5-20.84-19.66-39.73
		C850.16,306.24,850.16,281.49,850.16,281.49z"/>
	<path class="st121" d="M806.27,257.77c3.27,4.96,5.94,5.53,10.11,4.84c3.91-0.85,4.95-0.77,8.86-1.63c4.08-1.1,6.44-7.75,5.8-12.91
		c-1.1-8.5,1.12-16.5,0.02-24.99c-0.59-5.12-4.05-8.75-11.02-10.33c-6.36-1.38-14.77-5.68-19.82-1.82
		c-5.51,4.31-5.84,14.9-3.96,19.74C799.28,238.74,803.24,249.69,806.27,257.77z"/>
	<polygon class="st705" points="823.84,273.36 830.12,283.66 842.48,269.96 837.02,264.07 	"/>
	<polygon class="st705" points="810.83,263.9 818.32,271.48 813.29,280.39 807.16,268.64 	"/>
	<path class="st296" d="M819.82,469.96c0,0,3.52,52.22,3.02,79.84c-0.38,20.82-0.42,60.74,2.75,94.76
		c0.19,2.08,17.18,0.51,17.18,0.51s11.4-130.19,13.21-151.52C857.79,472.23,833.39,454.72,819.82,469.96z"/>
	<path class="st296" d="M769.45,527.76c0,0,4.8,1.05,19.9,2.36c6.88,0.6-20.12,120.49-20.12,120.49l-21.38-9.22l16.11-120.79
		L769.45,527.76z"/>
	<path class="st116" d="M831.96,215.87l-0.9,7.21c0,0-8.46-4.98-14.69-9.28c-1.96-1.36-16.17,3.06-19.47,4.83
		c-2.41,1.29-1.64,4.66-1.61,6.76c0.11,7.48-2.82-11.75-2.82-11.75s2.01-10.15,10.77-13.79c4.84-2.01,8.1,0.13,11.19,3.26
		c0.73,0.74-5.93,0.35-4.95-0.11c0.25-0.12,7.73,3.1,8.03,3.44c1.51,1.66,3.1,3.31,4.93,4.6
		C829.32,215.93,831.96,215.87,831.96,215.87z"/>
	<polygon class="st257" points="812.01,226.48 808.27,228.29 810.11,230.32 807.38,232.48 808.24,245.47 813.47,244.18 
		811.88,236.58 813.79,231.89 821.41,228.62 	"/>
	<polygon class="st300" points="893.26,380.45 878.65,368.12 872.92,375.93 887.24,387.6 	"/>
	<g>
		<path class="st121" d="M860.77,386.48c-2.35,0.7-2.22,0.55-2.22,0.55s0.12,3.14-1.74,5.44c-0.92,1.15-4.35,4.35-4.35,4.35
			l-5.04,4.82l-2.51,2.05c0,0-1.51,1.05-1.66,1.61c-0.43,1.61,0.95,1.34,0.95,1.34l10.43-7.1l-7.87,9.19c0,0-0.81,1.35-0.32,1.99
			c0.46,0.61,0.82,0.25,0.82,0.25l11.31-8.29l-3.54,5.2c0,0-0.77,1.33-0.31,1.99c0.5,0.72,0.62,0.94,0.62,0.94l8.62-9.57
			C863.96,401.23,863.12,385.78,860.77,386.48z"/>
		<path class="st121" d="M855.74,401.51l-5.17,6.78c0,0-1.32,1.39-1.54,2.42c-0.25,1.18,0.76,1.43,0.76,1.43l8.78-9.47
			L855.74,401.51z"/>
	</g>
	<path class="st705" d="M824.36,395.14h-7.91c-8.28-40.99-7.89-83.28,1.22-124.13c2.39,0.96,4.77,1.91,7.16,2.86
		C815.98,313.8,815.84,355.17,824.36,395.14z"/>
	<g>
		<g>
			<path class="st121" d="M721.85,380.1l-27.23,38.25l-11.06,0.17c0,0-0.03-0.61,2.36-1.88c0.68-0.36,4.11-0.01,4.66-0.65
				c0.73-0.86,4.2-1.99,4.41-3.5c1.49-10.93,1.62-27.49,7.21-38.66C711.2,355.86,722.55,379.64,721.85,380.1z"/>
			<path class="st300" d="M785.62,277.32c0,0-18.53,3.8-49.91,43.24C703.65,360.85,706.84,362,706.84,362l-4.83,10.65l16.81,12.91
				l54.52-62.24L785.62,277.32z"/>
			<path class="st705" d="M788.55,306.41l-38.65,42.32l-15.51,14.03l4.8-8.2c0,0,3.36-4.86,21.67-28.56
				c10.31-13.36,15.36-17.97,22.19-24.08L788.55,306.41z"/>
			<polygon class="st705" points="710.99,367.39 722.14,374.89 724.7,377.15 718.94,385.07 708.37,373.98 			"/>
		</g>
		<path class="st121" d="M679.37,411.66c-3.16,1.82-9.22,4.49-7.16,5.7l11.05-4.37l5.83,0.12l3.38,3.25l2.2-3.25
			c1.45-0.36,2.52-0.78,1.82-3.16l0.98-1.33c-4.37-0.85-6.19-1.34-7.53-1.09l-5.46,1.46C682.86,409.34,679.37,411.66,679.37,411.66z
			"/>
	</g>
</g>
<g>
	<g>
		<path class="st304" d="M891.59,324.56h9.49v4.86C898.95,326.48,895.5,324.56,891.59,324.56z"/>
		<path class="st304" d="M888.8,324.56v13.4c0,6.48,5.24,11.72,11.72,11.72h0.56v20.65h-41.86v-45.77H888.8z"/>
	</g>
	<g>
		<path class="st293" d="M865.86,353.8c0,0,16.4,5.85,0.65,52.86c-15.75,47.01-26.24,41.31-26.24,41.31l-13.02-1.26l-24.97-29.61
			l13.44-11.75l2.71,1.08c0,0,3.48-1.43,3.88-4.67c0.4-3.24,6.71-16.76,11.47-44.38C835.98,344.64,862.7,352.65,865.86,353.8z"/>
		<path class="st121" d="M805.84,417.66c0,0-32.37,16.54-52.76-15.47c-6.06-9.51-3.47,1.44-0.16,11.85
			c3.31,10.41,23.43,33.99,46.29,35.56c22.87,1.58,31.59,0.3,35.87-7.61C839.37,434.09,805.84,417.66,805.84,417.66z"/>
		<path class="st305" d="M833.64,410.15l-8.2-5.31l-3.41-1.94c-0.94,2.44-3.59,3.54-3.59,3.54l6.85,2.82l7.46,4.8l7.71,9.26
			L833.64,410.15z"/>
		<path class="st293" d="M835.58,488.83l61.28-1.32l25.48-85.32c0,0,11.66-51.39-10.12-52.25c-31.66-1.24-73.2-0.66-73.2-0.66
			S817.68,367.8,835.58,488.83z"/>
		<path class="st305" d="M857.59,484.22c-2.4,0.36-4.8,0.71-7.21,1.06c-3.92-44.83,0.23-90.32,12.22-133.64
			c1.96,0.65,3.92,1.3,5.88,1.96C857.11,396.05,853.4,440.51,857.59,484.22z"/>
		<path class="st116" d="M734.67,670c0,0,5.96,9.19,9,3.55c9.13-16.91,17.37-70.28,17.89-92.18c0.69-29.21,2.03-47.02,2.03-47.02
			l-29.38-10.65L734.67,670z"/>
		<path class="st116" d="M837.75,488.22l-103.68,35.5l27.19,15.18c0,0,106.93,18.76,108.84-20.93
			C871.7,484.57,837.75,488.22,837.75,488.22z"/>
		<path class="st123" d="M771.51,670.84c0,0,5.37,4.92,8.42-0.72c9.13-16.91,24.12-61.83,24.64-83.73
			c0.69-29.2-4.13-49.52-4.13-49.52l-30.03-10.43L771.51,670.84z"/>
		<path class="st123" d="M869.9,489.35l-98.86,37.3l27.08,14.74c0,0,100.34,18.75,102.27-20.93
			C902.33,480.78,869.9,489.35,869.9,489.35z"/>
		<path class="st123" d="M902.14,522.7c0.25,2.73-1.34,11.86-4.38,15.53c-9.36,11.3-31.53,7.52-49.21,7.52
			c-0.97,0-5.9-13.79-5.9-13.79l-7.38-45.1l61.98,1.05C897.25,487.9,900,499.93,902.14,522.7z"/>
		<path class="st121" d="M801.45,460.58l-22.7-4.07c0,0-3.53-0.38-3.69,2.06c-0.21,3.22,0.37,13.74,0.37,13.74l4.07-2.52l5.85,3.57
			l6.78-8.98c0,0,3.51,0.67,6.42-0.06C799.52,464.07,801.45,460.58,801.45,460.58z"/>
		<path class="st121" d="M857.13,454.14l-60.08,6.67c0,0,32.23,16.47,46.99,16.57c14.77,0.11,28.6-3.29,28.6-3.29L857.13,454.14z"/>
		<path class="st305" d="M886.76,391.85l-30.02,56.8l1.72,4.61l-4.62,0.86l14.02,22.31l22-5.02l39.58-78.4
			c0,0,8.33-23.67-10.56-41.74C909.45,342.27,889.42,387.3,886.76,391.85z"/>
		<path class="st293" d="M879.14,468.05c0,0-14.21-10.86-21.43-16.79l0.75,2.01l-4.62,0.86l4.91,7.68l8.51,9.9l4.88-1.78l-1.84-3.48
			L879.14,468.05z"/>
		<g>
			<g>
				<path class="st116" d="M860.22,310.28c0,4.1,3.32,7.43,7.42,7.43h28.05c4.11,0,7.43-3.33,7.43-7.43l0,0
					c0-4.1-3.32-7.43-7.43-7.43h-28.05C863.54,302.86,860.22,306.18,860.22,310.28L860.22,310.28z"/>
				<path class="st116" d="M865.37,323.16c0,7.58,6.15,13.72,13.72,13.72h14.64c7.57,0,13.72-6.15,13.72-13.72l0,0
					c0-7.58-6.15-13.72-13.72-13.72h-14.64C871.51,309.44,865.37,315.58,865.37,323.16L865.37,323.16z"/>
				<path class="st121" d="M854.35,345.13v-42.91c0-6.83,5.54,0,12.37,0h6.6c6.84,0,12.38,5.55,12.38,12.38v30.53H854.35z"/>
				<path class="st121" d="M880.23,324.18c0,3,2.43,5.44,5.44,5.44l0,0c3,0,5.44-2.44,5.44-5.44l0,0c0-3-2.43-5.44-5.44-5.44l0,0
					C882.67,318.74,880.23,321.18,880.23,324.18L880.23,324.18z"/>
				<path class="st121" d="M857.93,331.69c0,1.74-1.37,3.15-3.05,3.15h-2.54c-1.68,0-3.05-1.41-3.05-3.15c0,0,5.56-16.29,7.25-16.29
					c0,0,1.38,1.41,1.38,3.15V331.69z"/>
				<path class="st116" d="M871.68,342.79c12.38,0,13.66-3.8,14.03-8.14c0,0,3.3,10.87,3.3,14.37v3.9c0,7.54-7.76,13.66-17.33,13.66
					h-17.32v-19.24v-4.55H871.68z"/>
				<path class="st116" d="M854.35,334.82h9.9c4.56,0,8.25,3.69,8.25,8.25c0,0.72-0.12,1.4-0.29,2.07h-17.86V334.82z"/>
				<path class="st121" d="M867.14,343.48v2.75c0,0.76-0.62,1.38-1.38,1.38h-8.02c-0.76,0-1.38-0.62-1.38-1.38v-2.75H867.14z"/>
				<path class="st116" d="M858.62,294.6H884c2.74,0,4.95,2.22,4.95,4.95v9.9h-30.33V294.6z"/>
				<path class="st116" d="M842.89,302c0,4.13,3.35,7.48,7.48,7.48h17.18c4.13,0,7.48-3.35,7.48-7.48l0,0
					c0-4.13-3.35-7.47-7.48-7.47h-17.18C846.24,294.53,842.89,297.87,842.89,302L842.89,302z"/>
			</g>
			<rect x="879.14" y="305.88" class="st116" width="6.86" height="18.06"/>
			<rect x="863.67" y="298.12" class="st116" width="20.19" height="21.26"/>
			<path class="st121" d="M879.14,319.66c0-5.64-4.57-10.21-10.21-10.21h-5.27c-5.64,0-8.67,4.57-8.67,10.21l0,0
				c0,5.64,4.58,10.22,10.22,10.22h3.72C874.57,329.87,879.14,325.3,879.14,319.66L879.14,319.66z"/>
		</g>
		<g>
			<path class="st121" d="M755.56,413.3c0,0,4.87-11.68,3.13-14.85c-1.75-3.16-8.91-14.32-8.91-14.32l-2.1-2.68
				c0,0-4.26,0.64,0.64,8.09c4.9,7.45,0.51,5.1,0.51,5.1l-7.03-5.08l-9.12-5.57l-3.72-2.98c0,0-1.98-1.85-2.83-1.89
				c-2.46-0.12-1.63,1.78-1.63,1.78l13.48,12.79l-15.68-8.46c0,0-2.19-0.75-2.97,0.17c-0.73,0.86-0.11,1.26-0.11,1.26l15.47,13.69
				l-8.58-3.47c0,0-2.16-0.68-2.98,0.17c-0.88,0.94-1.15,1.17-1.15,1.17l31.53,17.65L755.56,413.3z"/>
			<path class="st121" d="M735.47,395.92l-11.38-5.32c0,0-2.41-1.47-3.96-1.46c-1.77,0.01-1.82,1.53-1.82,1.53l16.37,9.68
				L735.47,395.92z"/>
		</g>
		<path class="st123" d="M761.88,679.91c-0.52,0.87-0.11,3.17-0.11,3.17s9.26,1.53,12.23,0.61c0.77-0.24,2.07-1.13,3.29-2.07
			c0.2-0.16,0.56-1.12,0.76-1.28c0.37-0.3,0.57,0.21,0.89-0.06c0.82-0.7,1.39-1.24,1.4-1.31c0.75-5.78-0.35-8.12-0.35-8.12
			s-7.91-3.67-9.36-1.2C767.21,675.46,763.02,678.01,761.88,679.91z"/>
		<path class="st116" d="M744.67,672.62l-1.31,8.38h-7.01c0,0-0.38-1.18-0.98-1.18c-0.5,0-1.15,1.18-1.82,1.18
			c-1.47,0-3.11,0-3.77,0c-1.31,0-14.07,0-14.07,0s-0.32-1.76,0.07-2.37c0.2-0.31,1.37-0.86,2.15-1.12
			c3.62-1.24,14.58-3.95,17.02-7.84C736.84,666.66,744.67,672.62,744.67,672.62z"/>
	</g>
</g>
<g>
	<g>
		<polygon class="st300" points="527.89,681.43 515.46,681.43 535.97,482.83 553.99,482.83 		"/>
		<polygon class="st309" points="552.79,491.99 544.88,552.13 535.51,487.31 535.97,482.83 551.72,482.83 		"/>
		<polygon class="st300" points="709.52,681.43 697.1,681.43 717.6,482.83 735.62,482.83 		"/>
		<polygon class="st309" points="734.42,491.99 726.52,552.13 717.14,487.31 717.6,482.83 733.36,482.83 		"/>
		<polygon class="st300" points="840.01,681.43 852.44,681.43 831.93,482.83 813.91,482.83 		"/>
		<polygon class="st309" points="815.12,491.99 839.23,553.27 832.39,487.31 831.93,482.83 816.18,482.83 		"/>
		<rect x="703.84" y="476.38" class="st298" width="145.49" height="11.61"/>
		
			<radialGradient id="SVGID_2_" cx="7475.1504" cy="314.4666" r="219.1212" gradientTransform="matrix(1 0 0 1 -6945.2246 0)" gradientUnits="userSpaceOnUse">
			<stop  offset="1.574020e-03" style="stop-color:#D1ECEA"/>
			<stop  offset="1" style="stop-color:#67C7C5"/>
		</radialGradient>
		<rect x="521.15" y="476.38" class="st134" width="185.27" height="11.61"/>
	</g>
</g>
<g>
	<path class="st311" d="M800.58,472.91c0.01-0.03,0.04-0.07,0.05-0.09l-0.05-2.94H678.83v2.94c0,0-0.02,0.06,0,0.09l0.31,0.55
		c1.56,2.55,4.37,3.01,7.59,3.01h105.95c3.22,0,6.02-0.46,7.59-3.01L800.58,472.91z"/>
	<path class="st312" d="M771.24,473.41c0,0-0.02,0.05,0,0.08l0.3,0.44c0.48,0.66,1.09,1.14,1.78,1.5h18.51
		c3.09,0,5.79-0.37,7.3-2.43l0.29-0.45c0.02-0.03,0.04-0.05,0.05-0.07l-0.03-1.45h-28.21V473.41z"/>
	<g>
		<rect x="693.97" y="470.56" class="st313" width="60.84" height="2.08"/>
	</g>
	<g>
		<path class="st294" d="M770.57,469.77l-15.79-59.83c-0.42-1.58-2.03-2.86-3.61-2.86h-85.42c-1.58,0-2.52,1.28-2.1,2.86
			l15.78,59.83H770.57z"/>
		<path class="st311" d="M722.26,438.43c0.81,3.05-1.02,5.53-4.07,5.53c-3.06,0-6.19-2.48-6.99-5.53c-0.8-3.06,1.01-5.54,4.07-5.54
			C718.33,432.89,721.46,435.37,722.26,438.43z"/>
	</g>
</g>
<g>
	<path class="st125" d="M924.15,147.66c0-30.83-18.57-55.83-52.21-55.83c-33.64,0-52.21,25-52.21,55.83
		c0,24.05,16.87,32.4,31.18,52.35c2.83,3.95,0,19.44,0,19.44h42.06c0,0-2.83-15.49,0-19.44
		C907.28,180.06,924.15,171.71,924.15,147.66z"/>
	<path class="st252" d="M850.19,219.45v5.8c0,9.61,7.79,17.4,17.4,17.4h8.7c9.61,0,17.4-7.79,17.4-17.4v-5.8H850.19z"/>
	<g>
		<polygon class="st255" points="862.22,149.43 855.55,140.73 850.63,147.17 847.17,144.53 855.55,133.57 862.22,142.27 
			868.88,133.57 875.55,142.27 882.23,133.57 888.9,142.28 895.57,133.58 904,144.52 900.55,147.18 895.58,140.72 888.9,149.42 
			882.23,140.72 875.55,149.42 868.88,140.73 		"/>
	</g>
	<g>
		<polygon class="st255" points="868.4,218.72 864.05,218.72 864.05,182.57 854.53,154.15 858.65,152.77 868.4,181.86 		"/>
	</g>
	<g>
		<polygon class="st255" points="881.75,218.72 877.4,218.72 877.4,181.86 877.52,181.53 887.16,152.77 891.28,154.15 
			881.75,182.57 		"/>
	</g>
	<g>
		
			<rect x="895.34" y="61.25" transform="matrix(0.4399 -0.898 0.898 0.4399 453.0053 853.1979)" class="st255" width="30.33" height="4.35"/>
	</g>
	<g>
		
			<rect x="862.71" y="54.72" transform="matrix(0.1222 -0.9925 0.9925 0.1222 714.1204 921.2417)" class="st255" width="30.33" height="4.35"/>
	</g>
	<g>
		
			<rect x="839.81" y="45" transform="matrix(0.9544 -0.2984 0.2984 0.9544 20.4049 253.9772)" class="st255" width="4.35" height="30.33"/>
	</g>
	<rect x="862.03" y="222.45" class="st314" width="27.19" height="4.52"/>
	<rect x="862.03" y="230.6" class="st314" width="19.58" height="4.52"/>
	<path class="st314" d="M856.74,238.76c2.98,2.39,6.72,3.89,10.85,3.89h8.7c4.12,0,7.86-1.49,10.84-3.89H856.74z"/>
</g>
<g>
	<g>
		<rect x="941.74" y="219.23" class="st289" width="45.32" height="3.94"/>
	</g>
	<g>
		<rect x="957.51" y="242.87" class="st118" width="27.58" height="3.94"/>
	</g>
	<g>
		<rect x="957.51" y="250.75" class="st118" width="15.76" height="3.94"/>
	</g>
	<g>
		<rect x="957.51" y="260.6" class="st118" width="27.58" height="3.94"/>
	</g>
	<g>
		<rect x="957.51" y="268.49" class="st118" width="15.76" height="3.94"/>
	</g>
	<g>
		<rect x="957.51" y="278.34" class="st118" width="27.58" height="3.94"/>
	</g>
	<g>
		<rect x="957.51" y="286.22" class="st118" width="15.76" height="3.94"/>
	</g>
	<g>
		<rect x="941.74" y="227.11" class="st289" width="37.44" height="3.94"/>
	</g>
	<linearGradient id="SVGID_3_" gradientUnits="userSpaceOnUse" x1="943.7136" y1="248.7822" x2="951.5948" y2="248.7822">
		<stop  offset="0" style="stop-color:#D9E1E4"/>
		<stop  offset="1" style="stop-color:#D9E1E4"/>
	</linearGradient>
	<rect x="943.71" y="244.84" class="st153" width="7.88" height="7.88"/>
	<linearGradient id="SVGID_4_" gradientUnits="userSpaceOnUse" x1="943.7136" y1="266.5153" x2="951.5948" y2="266.5153">
		<stop  offset="0" style="stop-color:#D9E1E4"/>
		<stop  offset="1" style="stop-color:#D9E1E4"/>
	</linearGradient>
	<rect x="943.71" y="262.57" class="st154" width="7.88" height="7.88"/>
	<linearGradient id="SVGID_5_" gradientUnits="userSpaceOnUse" x1="943.7136" y1="284.2496" x2="951.5948" y2="284.2496">
		<stop  offset="0" style="stop-color:#D9E1E4"/>
		<stop  offset="1" style="stop-color:#D9E1E4"/>
	</linearGradient>
	<rect x="943.71" y="280.31" class="st155" width="7.88" height="7.88"/>
	<rect x="912.19" y="210.69" class="st704" width="26.27" height="26.27"/>
	<g>
		<polygon class="st60" points="923.03,231.87 916.71,225.55 919.49,222.76 923.03,226.29 933.45,215.86 936.24,218.65 		"/>
	</g>
</g>
<g>
	<g>
		<rect x="678.52" y="219.89" class="st289" width="18.79" height="3.94"/>
	</g>
	<g>
		<rect x="678.52" y="227.77" class="st289" width="15.53" height="3.94"/>
	</g>
	<rect x="655.54" y="217.91" class="st250" width="15.76" height="15.76"/>
	<g>
		<rect x="678.52" y="247.47" class="st118" width="18.79" height="3.94"/>
	</g>
	<g>
		<rect x="678.52" y="255.35" class="st118" width="15.53" height="3.94"/>
	</g>
	<linearGradient id="SVGID_6_" gradientUnits="userSpaceOnUse" x1="655.5375" y1="253.3811" x2="671.2988" y2="253.3811">
		<stop  offset="0" style="stop-color:#D9E1E4"/>
		<stop  offset="1" style="stop-color:#D9E1E4"/>
	</linearGradient>
	<rect x="655.54" y="245.5" class="st156" width="15.76" height="15.76"/>
	<g>
		<rect x="678.52" y="275.05" class="st118" width="18.79" height="3.94"/>
	</g>
	<g>
		<rect x="678.52" y="282.93" class="st118" width="15.53" height="3.94"/>
	</g>
	<linearGradient id="SVGID_7_" gradientUnits="userSpaceOnUse" x1="655.5375" y1="280.9657" x2="671.2988" y2="280.9657">
		<stop  offset="0" style="stop-color:#D9E1E4"/>
		<stop  offset="1" style="stop-color:#D9E1E4"/>
	</linearGradient>
	<rect x="655.54" y="273.08" class="st157" width="15.76" height="15.76"/>
	<rect x="624.67" y="210.69" class="st704" width="26.27" height="26.27"/>
	<g>
		<polygon class="st60" points="635.51,232.52 629.19,226.2 631.97,223.42 635.51,226.95 645.94,216.52 648.72,219.31 		"/>
	</g>
</g>
<g>
	<rect x="711.86" y="210.69" class="st704" width="26.27" height="26.27"/>
	<g>
		<polygon class="st60" points="722.69,233.18 716.37,226.86 719.16,224.07 722.69,227.61 733.12,217.18 735.91,219.96 		"/>
	</g>
	<g>
		<rect x="739.44" y="244.18" class="st289" width="29.55" height="3.94"/>
	</g>
	<rect x="741.41" y="217.91" class="st250" width="40.72" height="19.7"/>
	<g>
		<rect x="739.44" y="282.93" class="st118" width="29.55" height="3.94"/>
	</g>
	<linearGradient id="SVGID_8_" gradientUnits="userSpaceOnUse" x1="741.4108" y1="266.516" x2="782.1313" y2="266.516">
		<stop  offset="0" style="stop-color:#D9E1E4"/>
		<stop  offset="1" style="stop-color:#D9E1E4"/>
	</linearGradient>
	<rect x="741.41" y="256.66" class="st158" width="40.72" height="19.7"/>
</g>
<g>
	<path class="st125" d="M650.27,328.29v38.37c0,2.84-2.3,5.14-5.14,5.14h-48.55c-2.84,0-5.14-2.3-5.14-5.14v-11.48l-2.57-2.57
		l-5.15-5.14l5.15-5.14l2.57-2.57v-11.46c0-2.84,2.3-5.14,5.14-5.14h48.55C647.97,323.14,650.27,325.45,650.27,328.29z"/>
</g>
<path class="st60" d="M639.13,349.93l-0.11-5.03l-4.48-0.28c-0.35-1.64-0.99-3.17-1.86-4.54l2.92-3.6l-3.63-3.49l-3.37,2.97
	c-1.36-0.89-2.89-1.53-4.53-1.89l-0.48-4.61l-5.04,0.11l-0.27,4.48c-1.64,0.35-3.17,0.99-4.54,1.86l-3.6-2.91l-3.49,3.63l2.98,3.37
	c-0.89,1.36-1.53,2.89-1.89,4.52l-4.61,0.48l0.11,5.04l4.48,0.28c0.35,1.64,0.98,3.17,1.86,4.53l-2.92,3.6l3.64,3.48l3.37-2.97
	c1.36,0.88,2.89,1.53,4.53,1.89l0.48,4.61l5.04-0.11l0.28-4.48c1.64-0.35,3.17-0.99,4.53-1.86l3.6,2.92l3.49-3.63l-2.97-3.37
	c0.88-1.36,1.53-2.89,1.89-4.52L639.13,349.93z M621.27,354.12c-3.67,0.08-6.71-2.83-6.79-6.51c-0.08-3.67,2.84-6.71,6.51-6.79
	c3.67-0.08,6.71,2.84,6.79,6.51C627.86,351.01,624.94,354.05,621.27,354.12z"/>
</svg>
